SplineFontDB: 3.0
FontName: ManifontGroteskBookDot
FullName: Manifont Grotesk Book Dot
FamilyName: Manifont Grotesk Book Dot
Weight: Book
Copyright: Copyright (c) 2015 by interstices.io. All rights reserved.
Version: 001.001
ItalicAngle: 0
UnderlinePosition: -50
UnderlineWidth: 50
Ascent: 750
Descent: 250
InvalidEm: 0
sfntRevision: 0x00010000
LayerCount: 3
Layer: 0 0 "Back" 1
Layer: 1 0 "Fore" 0
Layer: 2 0 "Arri+AOgA-re" 1
XUID: [1021 814 -420952120 9553190]
FSType: 4
OS2Version: 2
OS2_WeightWidthSlopeOnly: 0
OS2_UseTypoMetrics: 1
CreationTime: 1251911182
ModificationTime: 1432846667
PfmFamily: 81
TTFWeight: 400
TTFWidth: 5
LineGap: 9
VLineGap: 0
Panose: 0 0 0 0 0 0 0 0 0 0
OS2TypoAscent: 750
OS2TypoAOffset: 0
OS2TypoDescent: -250
OS2TypoDOffset: 0
OS2TypoLinegap: 0
OS2WinAscent: 1035
OS2WinAOffset: 0
OS2WinDescent: 342
OS2WinDOffset: 0
HheadAscent: 750
HheadAOffset: 0
HheadDescent: -250
HheadDOffset: 0
OS2SubXSize: 700
OS2SubYSize: 650
OS2SubXOff: 0
OS2SubYOff: 140
OS2SupXSize: 700
OS2SupYSize: 650
OS2SupXOff: 0
OS2SupYOff: 477
OS2StrikeYSize: 50
OS2StrikeYPos: 250
OS2Vendor: 'pyrs'
OS2CodePages: 00000007.00000000
OS2UnicodeRanges: 8000020f.0000000a.00000000.00000000
Lookup: 258 0 0 "'kern' Horizontal Kerning in Latin lookup 0" { "'kern' Horizontal Kerning in Latin lookup 0 per glyph data 0"  "'kern' Horizontal Kerning in Latin lookup 0 per glyph data 1"  } ['kern' ('latn' <'dflt' > ) ]
MarkAttachClasses: 1
DEI: 91125
LangName: 1033 "" "" "Regular Dot" "" "ManifontGroteskBookDot" "" "" "" "" "Alexandre Liziard & +AMkA-tienne Ozeray" "" "" "http://interstices.io" "" "" "" "Manifont Grotesk Book Dot" "Book Dot"
Encoding: Custom
UnicodeInterp: none
NameList: AGL For New Fonts
DisplaySize: -48
AntiAlias: 1
FitToEm: 1
WinInfo: 0 19 14
BeginPrivate: 2
BlueValues 23 [-15 0 520 535 720 735]
OtherBlues 11 [-210 -200]
EndPrivate
Grid
-1000 107 m 4
 2000 107 l 1028
429 1250 m 0
 429 -750 l 1024
-1000 673.5 m 0
 2000 673.5 l 1024
-1000 515.916666667 m 0

StartChar: a
Encoding: 65 97 63
Width: 544
Flags: HMW
HStem: -15 72<202 243> 0 21G<408 499 408 408> 463 72<228.5 295.5>
VStem: 35 94<108 176.5 108 193> 381 90<140 263 263 263 332 334>
LayerCount: 3
Back
SplineSet
83.0498046875 16.38671875 m 1
 29.490234375 134.477539062 l 1
 89.1630859375 258.78515625 l 1
 382.41015625 348.740234375 l 1
 382.41015625 348.740234375 l 1
 347.499023438 441.418945312 l 1
 259.971679688 467.018554688 l 1
 178.3046875 439.981445312 l 1
 132.484375 360.962890625 l 1
 61.1103515625 404.840820312 l 1
 129.157226562 506.3203125 l 1
 269.158203125 540.501953125 l 1
 424.775390625 488.111328125 l 1
 472.125 335.44921875 l 1
 472 0.0009765625 l 1
 388 0.0009765625 l 1
 388.391601562 60.1455078125 l 1
 303.06640625 -2.466796875 l 1
 209.958984375 -20.5654296875 l 1
 83.0498046875 16.38671875 l 1
382.41015625 269.180664062 m 1
 382.41015625 269.180664062 l 1
 165.567382812 209.150390625 l 1
 125.423828125 138.475585938 l 1
 156.573242188 70.3935546875 l 1
 224.3359375 52.830078125 l 1
 318.71875 81.7890625 l 1
 382.356445312 137.5390625 l 1
 382.41015625 269.180664062 l 1
EndSplineSet
Fore
SplineSet
146.763671875 359.763671875 m 0x38
 146.763671875 352.438476562 140.825195312 346.5 133.5 346.5 c 0
 126.174804688 346.5 120.236328125 352.438476562 120.236328125 359.763671875 c 0
 120.236328125 367.088867188 126.174804688 373.026367188 133.5 373.026367188 c 0
 140.825195312 373.026367188 146.763671875 367.088867188 146.763671875 359.763671875 c 0x38
75.6328125 403.4921875 m 0
 75.6328125 396.166992188 69.6943359375 390.228515625 62.369140625 390.228515625 c 0
 55.0439453125 390.228515625 49.10546875 396.166992188 49.10546875 403.4921875 c 0
 49.10546875 410.817382812 55.0439453125 416.754882812 62.369140625 416.754882812 c 0
 69.6943359375 416.754882812 75.6328125 410.817382812 75.6328125 403.4921875 c 0
143.448242188 504.625976562 m 0
 143.448242188 497.299804688 137.509765625 491.362304688 130.184570312 491.362304688 c 0
 122.859375 491.362304688 116.920898438 497.299804688 116.920898438 504.625976562 c 0
 116.920898438 511.951171875 122.859375 517.888671875 130.184570312 517.888671875 c 0
 137.509765625 517.888671875 143.448242188 511.951171875 143.448242188 504.625976562 c 0
192.427734375 438.512695312 m 0
 192.427734375 431.1875 186.489257812 425.249023438 179.1640625 425.249023438 c 0
 171.83984375 425.249023438 165.900390625 431.1875 165.900390625 438.512695312 c 0
 165.900390625 445.837890625 171.83984375 451.776367188 179.1640625 451.776367188 c 0
 186.489257812 451.776367188 192.427734375 445.837890625 192.427734375 438.512695312 c 0
273.817382812 465.458007812 m 0
 273.817382812 458.1328125 267.87890625 452.194335938 260.553710938 452.194335938 c 0
 253.228515625 452.194335938 247.290039062 458.1328125 247.290039062 465.458007812 c 0
 247.290039062 472.783203125 253.228515625 478.721679688 260.553710938 478.721679688 c 0
 267.87890625 478.721679688 273.817382812 472.783203125 273.817382812 465.458007812 c 0
282.97265625 538.690429688 m 0
 282.97265625 531.365234375 277.034179688 525.427734375 269.708984375 525.427734375 c 0
 262.383789062 525.427734375 256.4453125 531.365234375 256.4453125 538.690429688 c 0
 256.4453125 546.015625 262.383789062 551.954101562 269.708984375 551.954101562 c 0
 277.034179688 551.954101562 282.97265625 546.015625 282.97265625 538.690429688 c 0
361.046875 439.9453125 m 0
 361.046875 432.620117188 355.108398438 426.681640625 347.783203125 426.681640625 c 0
 340.458007812 426.681640625 334.51953125 432.620117188 334.51953125 439.9453125 c 0
 334.51953125 447.270507812 340.458007812 453.208984375 347.783203125 453.208984375 c 0
 355.108398438 453.208984375 361.046875 447.270507812 361.046875 439.9453125 c 0
438.060546875 486.478515625 m 0
 438.060546875 479.153320312 432.12109375 473.21484375 424.795898438 473.21484375 c 0
 417.471679688 473.21484375 411.532226562 479.153320312 411.532226562 486.478515625 c 0
 411.532226562 493.803710938 417.471679688 499.7421875 424.795898438 499.7421875 c 0
 432.12109375 499.7421875 438.060546875 493.803710938 438.060546875 486.478515625 c 0
485.248046875 334.3359375 m 0
 485.248046875 327.010742188 479.309570312 321.072265625 471.984375 321.072265625 c 0
 464.66015625 321.072265625 458.720703125 327.010742188 458.720703125 334.3359375 c 0
 458.720703125 341.661132812 464.66015625 347.599609375 471.984375 347.599609375 c 0
 479.309570312 347.599609375 485.248046875 341.661132812 485.248046875 334.3359375 c 0
395.78515625 347.56640625 m 0
 395.78515625 340.241210938 389.846679688 334.302734375 382.521484375 334.302734375 c 0
 375.197265625 334.302734375 369.2578125 340.241210938 369.2578125 347.56640625 c 0
 369.2578125 354.891601562 375.197265625 360.830078125 382.521484375 360.830078125 c 0
 389.846679688 360.830078125 395.78515625 354.891601562 395.78515625 347.56640625 c 0
103.58984375 257.932617188 m 0
 103.58984375 250.607421875 97.6513671875 244.668945312 90.326171875 244.668945312 c 0
 83.0009765625 244.668945312 77.0625 250.607421875 77.0625 257.932617188 c 0
 77.0625 265.2578125 83.0009765625 271.1953125 90.326171875 271.1953125 c 0
 97.6513671875 271.1953125 103.58984375 265.2578125 103.58984375 257.932617188 c 0
179.734375 208.466796875 m 0
 179.734375 201.141601562 173.795898438 195.203125 166.470703125 195.203125 c 0
 159.145507812 195.203125 153.20703125 201.141601562 153.20703125 208.466796875 c 0
 153.20703125 215.791992188 159.145507812 221.73046875 166.470703125 221.73046875 c 0
 173.795898438 221.73046875 179.734375 215.791992188 179.734375 208.466796875 c 0
139.727539062 138.032226562 m 0
 139.727539062 130.70703125 133.7890625 124.768554688 126.463867188 124.768554688 c 0
 119.138671875 124.768554688 113.200195312 130.70703125 113.200195312 138.032226562 c 0
 113.200195312 145.357421875 119.138671875 151.295898438 126.463867188 151.295898438 c 0
 133.7890625 151.295898438 139.727539062 145.357421875 139.727539062 138.032226562 c 0
44.1201171875 134.048828125 m 0
 44.1201171875 126.723632812 38.181640625 120.78515625 30.8564453125 120.78515625 c 0
 23.53125 120.78515625 17.5927734375 126.723632812 17.5927734375 134.048828125 c 0
 17.5927734375 141.374023438 23.53125 147.311523438 30.8564453125 147.311523438 c 0
 38.181640625 147.311523438 44.1201171875 141.374023438 44.1201171875 134.048828125 c 0
170.770507812 70.181640625 m 0
 170.770507812 62.8564453125 164.83203125 56.9189453125 157.506835938 56.9189453125 c 0
 150.181640625 56.9189453125 144.243164062 62.8564453125 144.243164062 70.181640625 c 0
 144.243164062 77.5068359375 150.181640625 83.4453125 157.506835938 83.4453125 c 0
 164.83203125 83.4453125 170.770507812 77.5068359375 170.770507812 70.181640625 c 0
97.4970703125 16.359375 m 0
 97.4970703125 9.0341796875 91.55859375 3.095703125 84.2333984375 3.095703125 c 0
 76.9091796875 3.095703125 70.9697265625 9.0341796875 70.9697265625 16.359375 c 0
 70.9697265625 23.6845703125 76.9091796875 29.623046875 84.2333984375 29.623046875 c 0
 91.55859375 29.623046875 97.4970703125 23.6845703125 97.4970703125 16.359375 c 0
223.974609375 -20.466796875 m 0
 223.974609375 -27.7919921875 218.036132812 -33.73046875 210.7109375 -33.73046875 c 0
 203.385742188 -33.73046875 197.447265625 -27.7919921875 197.447265625 -20.466796875 c 0
 197.447265625 -13.1416015625 203.385742188 -7.203125 210.7109375 -7.203125 c 0
 218.036132812 -7.203125 223.974609375 -13.1416015625 223.974609375 -20.466796875 c 0
238.302734375 52.6787109375 m 0
 238.302734375 45.3525390625 232.364257812 39.4150390625 225.0390625 39.4150390625 c 0
 217.713867188 39.4150390625 211.775390625 45.3525390625 211.775390625 52.6787109375 c 0
 211.775390625 60.00390625 217.713867188 65.94140625 225.0390625 65.94140625 c 0
 232.364257812 65.94140625 238.302734375 60.00390625 238.302734375 52.6787109375 c 0
332.364257812 81.5390625 m 0
 332.364257812 74.2138671875 326.42578125 68.275390625 319.100585938 68.275390625 c 0
 311.775390625 68.275390625 305.836914062 74.2138671875 305.836914062 81.5390625 c 0
 305.836914062 88.8642578125 311.775390625 94.8017578125 319.100585938 94.8017578125 c 0
 326.42578125 94.8017578125 332.364257812 88.8642578125 332.364257812 81.5390625 c 0
316.765625 -2.4296875 m 0
 316.765625 -9.7548828125 310.826171875 -15.693359375 303.501953125 -15.693359375 c 0
 296.176757812 -15.693359375 290.237304688 -9.7548828125 290.237304688 -2.4296875 c 0
 290.237304688 4.8955078125 296.176757812 10.833984375 303.501953125 10.833984375 c 0
 310.826171875 10.833984375 316.765625 4.8955078125 316.765625 -2.4296875 c 0
401.41015625 0.029296875 m 0
 401.41015625 -7.2958984375 395.470703125 -13.234375 388.146484375 -13.234375 c 0
 380.821289062 -13.234375 374.8828125 -7.2958984375 374.8828125 0.029296875 c 0
 374.8828125 7.3544921875 380.821289062 13.29296875 388.146484375 13.29296875 c 0
 395.470703125 13.29296875 401.41015625 7.3544921875 401.41015625 0.029296875 c 0
401.799804688 59.9697265625 m 0
 401.799804688 52.64453125 395.861328125 46.7060546875 388.536132812 46.7060546875 c 0
 381.2109375 46.7060546875 375.272460938 52.64453125 375.272460938 59.9697265625 c 0
 375.272460938 67.294921875 381.2109375 73.232421875 388.536132812 73.232421875 c 0
 395.861328125 73.232421875 401.799804688 67.294921875 401.799804688 59.9697265625 c 0
485.124023438 0.029296875 m 0
 485.124023438 -7.2958984375 479.185546875 -13.234375 471.860351562 -13.234375 c 0
 464.53515625 -13.234375 458.596679688 -7.2958984375 458.596679688 0.029296875 c 0
 458.596679688 7.3544921875 464.53515625 13.29296875 471.860351562 13.29296875 c 0
 479.185546875 13.29296875 485.124023438 7.3544921875 485.124023438 0.029296875 c 0
395.78515625 268.278320312 m 0
 395.78515625 260.953125 389.846679688 255.014648438 382.521484375 255.014648438 c 0
 375.197265625 255.014648438 369.2578125 260.953125 369.2578125 268.278320312 c 0
 369.2578125 275.603515625 375.197265625 281.541015625 382.521484375 281.541015625 c 0
 389.846679688 281.541015625 395.78515625 275.603515625 395.78515625 268.278320312 c 0
395.78515625 137.098632812 m 0
 395.78515625 129.7734375 389.846679688 123.8359375 382.521484375 123.8359375 c 0
 375.197265625 123.8359375 369.2578125 129.7734375 369.2578125 137.098632812 c 0
 369.2578125 144.423828125 375.197265625 150.362304688 382.521484375 150.362304688 c 0
 389.846679688 150.362304688 395.78515625 144.423828125 395.78515625 137.098632812 c 0
EndSplineSet
Validated: 1
Layer: 2
EndChar

StartChar: b
Encoding: 66 98 64
Width: 550
Flags: HMW
HStem: -15 75<257.5 326.5 252.5 364> 0 60 460 75<261 326.5> 700 20G<65 155 155 155>
VStem: 65 90<465 720 465 720 465 720> 425 90<194 326>
LayerCount: 3
Back
SplineSet
155 720 m 1
 155 465 l 1
 211.5546875 519.397460938 l 1
 292.086914062 538.626953125 l 1
 460.919921875 460.34765625 l 1
 519.592773438 258.134765625 l 1
 460.919921875 55.9228515625 l 1
 292.086914062 -22.35546875 l 1
 202.190429688 2.384765625 l 1
 145 70 l 1
 145 -0 l 1
 65 -0 l 1
 65 720 l 1
 155 720 l 1
286.899414062 54.103515625 m 1
 387.48046875 105.592773438 l 1
 427.655273438 258.05078125 l 1
 387.48046875 410.551757812 l 1
 286.899414062 462.08203125 l 1
 183.723632812 410.551757812 l 1
 140.954101562 258.05078125 l 1
 187.583007812 105.592773438 l 1
 286.899414062 54.103515625 l 1
EndSplineSet
Fore
SplineSet
78.263671875 720.012695312 m 0x3c
 78.263671875 712.6875 72.3251953125 706.75 65 706.75 c 0
 57.6748046875 706.75 51.736328125 712.6875 51.736328125 720.012695312 c 0
 51.736328125 727.337890625 57.6748046875 733.276367188 65 733.276367188 c 0
 72.3251953125 733.276367188 78.263671875 727.337890625 78.263671875 720.012695312 c 0x3c
168.263671875 720.012695312 m 0
 168.263671875 712.6875 162.325195312 706.75 155 706.75 c 0
 147.674804688 706.75 141.736328125 712.6875 141.736328125 720.012695312 c 0
 141.736328125 727.337890625 147.674804688 733.276367188 155 733.276367188 c 0
 162.325195312 733.276367188 168.263671875 727.337890625 168.263671875 720.012695312 c 0
168.263671875 465.013671875 m 0
 168.263671875 457.6875 162.325195312 451.75 155 451.75 c 0
 147.674804688 451.75 141.736328125 457.6875 141.736328125 465.013671875 c 0
 141.736328125 472.338867188 147.674804688 478.276367188 155 478.276367188 c 0
 162.325195312 478.276367188 168.263671875 472.338867188 168.263671875 465.013671875 c 0
196.987304688 410.565429688 m 0
 196.987304688 403.239257812 191.048828125 397.301757812 183.723632812 397.301757812 c 0
 176.399414062 397.301757812 170.459960938 403.239257812 170.459960938 410.565429688 c 0
 170.459960938 417.890625 176.399414062 423.828125 183.723632812 423.828125 c 0
 191.048828125 423.828125 196.987304688 417.890625 196.987304688 410.565429688 c 0
154.217773438 258.064453125 m 0
 154.217773438 250.73828125 148.279296875 244.80078125 140.954101562 244.80078125 c 0
 133.629882812 244.80078125 127.690429688 250.73828125 127.690429688 258.064453125 c 0
 127.690429688 265.389648438 133.629882812 271.327148438 140.954101562 271.327148438 c 0
 148.279296875 271.327148438 154.217773438 265.389648438 154.217773438 258.064453125 c 0
200.846679688 105.606445312 m 0
 200.846679688 98.2802734375 194.908203125 92.3427734375 187.583007812 92.3427734375 c 0
 180.258789062 92.3427734375 174.319335938 98.2802734375 174.319335938 105.606445312 c 0
 174.319335938 112.931640625 180.258789062 118.869140625 187.583007812 118.869140625 c 0
 194.908203125 118.869140625 200.846679688 112.931640625 200.846679688 105.606445312 c 0
158.263671875 70.0126953125 m 0
 158.263671875 62.6875 152.325195312 56.75 145 56.75 c 0
 137.674804688 56.75 131.736328125 62.6875 131.736328125 70.0126953125 c 0
 131.736328125 77.337890625 137.674804688 83.2763671875 145 83.2763671875 c 0
 152.325195312 83.2763671875 158.263671875 77.337890625 158.263671875 70.0126953125 c 0
78.263671875 0.0126953125 m 0
 78.263671875 -7.3125 72.3251953125 -13.25 65 -13.25 c 0
 57.6748046875 -13.25 51.736328125 -7.3125 51.736328125 0.0126953125 c 0
 51.736328125 7.337890625 57.6748046875 13.2763671875 65 13.2763671875 c 0
 72.3251953125 13.2763671875 78.263671875 7.337890625 78.263671875 0.0126953125 c 0
158.263671875 0.0126953125 m 0
 158.263671875 -7.3125 152.325195312 -13.25 145 -13.25 c 0
 137.674804688 -13.25 131.736328125 -7.3125 131.736328125 0.0126953125 c 0
 131.736328125 7.337890625 137.674804688 13.2763671875 145 13.2763671875 c 0
 152.325195312 13.2763671875 158.263671875 7.337890625 158.263671875 0.0126953125 c 0
215.454101562 2.3974609375 m 0
 215.454101562 -4.927734375 209.515625 -10.865234375 202.190429688 -10.865234375 c 0
 194.865234375 -10.865234375 188.926757812 -4.927734375 188.926757812 2.3974609375 c 0
 188.926757812 9.72265625 194.865234375 15.6611328125 202.190429688 15.6611328125 c 0
 209.515625 15.6611328125 215.454101562 9.72265625 215.454101562 2.3974609375 c 0
305.350585938 -22.3427734375 m 0
 305.350585938 -29.66796875 299.412109375 -35.60546875 292.086914062 -35.60546875 c 0
 284.76171875 -35.60546875 278.823242188 -29.66796875 278.823242188 -22.3427734375 c 0
 278.823242188 -15.017578125 284.76171875 -9.0791015625 292.086914062 -9.0791015625 c 0
 299.412109375 -9.0791015625 305.350585938 -15.017578125 305.350585938 -22.3427734375 c 0
300.163085938 54.1171875 m 0
 300.163085938 46.791015625 294.223632812 40.853515625 286.899414062 40.853515625 c 0
 279.57421875 40.853515625 273.635742188 46.791015625 273.635742188 54.1171875 c 0
 273.635742188 61.4423828125 279.57421875 67.3798828125 286.899414062 67.3798828125 c 0
 294.223632812 67.3798828125 300.163085938 61.4423828125 300.163085938 54.1171875 c 0
400.744140625 105.606445312 m 0
 400.744140625 98.2802734375 394.8046875 92.3427734375 387.48046875 92.3427734375 c 0
 380.155273438 92.3427734375 374.216796875 98.2802734375 374.216796875 105.606445312 c 0
 374.216796875 112.931640625 380.155273438 118.869140625 387.48046875 118.869140625 c 0
 394.8046875 118.869140625 400.744140625 112.931640625 400.744140625 105.606445312 c 0
474.18359375 55.935546875 m 0
 474.18359375 48.6103515625 468.245117188 42.6728515625 460.919921875 42.6728515625 c 0
 453.594726562 42.6728515625 447.65625 48.6103515625 447.65625 55.935546875 c 0
 447.65625 63.2607421875 453.594726562 69.19921875 460.919921875 69.19921875 c 0
 468.245117188 69.19921875 474.18359375 63.2607421875 474.18359375 55.935546875 c 0
532.856445312 258.147460938 m 0
 532.856445312 250.822265625 526.91796875 244.884765625 519.592773438 244.884765625 c 0
 512.267578125 244.884765625 506.329101562 250.822265625 506.329101562 258.147460938 c 0
 506.329101562 265.47265625 512.267578125 271.411132812 519.592773438 271.411132812 c 0
 526.91796875 271.411132812 532.856445312 265.47265625 532.856445312 258.147460938 c 0
440.918945312 258.064453125 m 0
 440.918945312 250.73828125 434.979492188 244.80078125 427.655273438 244.80078125 c 0
 420.330078125 244.80078125 414.391601562 250.73828125 414.391601562 258.064453125 c 0
 414.391601562 265.389648438 420.330078125 271.327148438 427.655273438 271.327148438 c 0
 434.979492188 271.327148438 440.918945312 265.389648438 440.918945312 258.064453125 c 0
400.744140625 410.565429688 m 0
 400.744140625 403.239257812 394.8046875 397.301757812 387.48046875 397.301757812 c 0
 380.155273438 397.301757812 374.216796875 403.239257812 374.216796875 410.565429688 c 0
 374.216796875 417.890625 380.155273438 423.828125 387.48046875 423.828125 c 0
 394.8046875 423.828125 400.744140625 417.890625 400.744140625 410.565429688 c 0
474.18359375 460.361328125 m 0
 474.18359375 453.03515625 468.245117188 447.09765625 460.919921875 447.09765625 c 0
 453.594726562 447.09765625 447.65625 453.03515625 447.65625 460.361328125 c 0
 447.65625 467.686523438 453.594726562 473.624023438 460.919921875 473.624023438 c 0
 468.245117188 473.624023438 474.18359375 467.686523438 474.18359375 460.361328125 c 0
305.350585938 538.640625 m 0
 305.350585938 531.314453125 299.412109375 525.376953125 292.086914062 525.376953125 c 0
 284.76171875 525.376953125 278.823242188 531.314453125 278.823242188 538.640625 c 0
 278.823242188 545.965820312 284.76171875 551.903320312 292.086914062 551.903320312 c 0
 299.412109375 551.903320312 305.350585938 545.965820312 305.350585938 538.640625 c 0
300.163085938 462.095703125 m 0
 300.163085938 454.76953125 294.223632812 448.83203125 286.899414062 448.83203125 c 0
 279.57421875 448.83203125 273.635742188 454.76953125 273.635742188 462.095703125 c 0
 273.635742188 469.420898438 279.57421875 475.358398438 286.899414062 475.358398438 c 0
 294.223632812 475.358398438 300.163085938 469.420898438 300.163085938 462.095703125 c 0
224.818359375 519.411132812 m 0
 224.818359375 512.084960938 218.879882812 506.147460938 211.5546875 506.147460938 c 0
 204.229492188 506.147460938 198.291015625 512.084960938 198.291015625 519.411132812 c 0
 198.291015625 526.736328125 204.229492188 532.673828125 211.5546875 532.673828125 c 0
 218.879882812 532.673828125 224.818359375 526.736328125 224.818359375 519.411132812 c 0
EndSplineSet
Validated: 1
Layer: 2
EndChar

StartChar: c
Encoding: 67 99 65
Width: 524
Flags: HMW
HStem: -15 75<233.5 303.5 233.5 329> 460 75<233.5 303.5>
VStem: 35 90<189 331 189 346>
LayerCount: 3
Back
SplineSet
273.384765625 55.9765625 m 1
 355.116210938 84.2548828125 l 1
 404.955078125 175.299804688 l 1
 481.41015625 134.540039062 l 1
 415.639648438 25.51953125 l 1
 273.384765625 -20.482421875 l 1
 96.833984375 53.96875 l 1
 30.5703125 260.0078125 l 1
 96.8974609375 466.046875 l 1
 273.384765625 540.499023438 l 1
 415.639648438 493.943359375 l 1
 482.4296875 382.3984375 l 1
 404.955078125 343.611328125 l 1
 355.1796875 435.590820312 l 1
 273.384765625 464.040039062 l 1
 167.666992188 416.3359375 l 1
 122.421875 260.0078125 l 1
 167.666992188 103.6796875 l 1
 273.384765625 55.9765625 l 1
EndSplineSet
Fore
SplineSet
286.443359375 540.401367188 m 0
 286.443359375 533.076171875 280.50390625 527.138671875 273.1796875 527.138671875 c 0
 265.854492188 527.138671875 259.916015625 533.076171875 259.916015625 540.401367188 c 0
 259.916015625 547.7265625 265.854492188 553.665039062 273.1796875 553.665039062 c 0
 280.50390625 553.665039062 286.443359375 547.7265625 286.443359375 540.401367188 c 0
418.013671875 343.513671875 m 0
 418.013671875 336.188476562 412.075195312 330.25 404.75 330.25 c 0
 397.424804688 330.25 391.486328125 336.188476562 391.486328125 343.513671875 c 0
 391.486328125 350.838867188 397.424804688 356.77734375 404.75 356.77734375 c 0
 412.075195312 356.77734375 418.013671875 350.838867188 418.013671875 343.513671875 c 0
495.48828125 382.30078125 m 0
 495.48828125 374.975585938 489.549804688 369.037109375 482.224609375 369.037109375 c 0
 474.899414062 369.037109375 468.9609375 374.975585938 468.9609375 382.30078125 c 0
 468.9609375 389.625976562 474.899414062 395.564453125 482.224609375 395.564453125 c 0
 489.549804688 395.564453125 495.48828125 389.625976562 495.48828125 382.30078125 c 0
428.698242188 493.845703125 m 0
 428.698242188 486.520507812 422.759765625 480.583007812 415.434570312 480.583007812 c 0
 408.109375 480.583007812 402.170898438 486.520507812 402.170898438 493.845703125 c 0
 402.170898438 501.170898438 408.109375 507.109375 415.434570312 507.109375 c 0
 422.759765625 507.109375 428.698242188 501.170898438 428.698242188 493.845703125 c 0
368.23828125 435.493164062 m 0
 368.23828125 428.16796875 362.299804688 422.229492188 354.974609375 422.229492188 c 0
 347.649414062 422.229492188 341.7109375 428.16796875 341.7109375 435.493164062 c 0
 341.7109375 442.818359375 347.649414062 448.756835938 354.974609375 448.756835938 c 0
 362.299804688 448.756835938 368.23828125 442.818359375 368.23828125 435.493164062 c 0
286.443359375 463.942382812 m 0
 286.443359375 456.6171875 280.504882812 450.678710938 273.1796875 450.678710938 c 0
 265.854492188 450.678710938 259.916015625 456.6171875 259.916015625 463.942382812 c 0
 259.916015625 471.267578125 265.854492188 477.206054688 273.1796875 477.206054688 c 0
 280.504882812 477.206054688 286.443359375 471.267578125 286.443359375 463.942382812 c 0
180.7265625 416.23828125 m 0
 180.7265625 408.913085938 174.787109375 402.974609375 167.462890625 402.974609375 c 0
 160.137695312 402.974609375 154.19921875 408.913085938 154.19921875 416.23828125 c 0
 154.19921875 423.563476562 160.137695312 429.501953125 167.462890625 429.501953125 c 0
 174.787109375 429.501953125 180.7265625 423.563476562 180.7265625 416.23828125 c 0
109.956054688 465.94921875 m 0
 109.956054688 458.624023438 104.017578125 452.686523438 96.6923828125 452.686523438 c 0
 89.3671875 452.686523438 83.4287109375 458.624023438 83.4287109375 465.94921875 c 0
 83.4287109375 473.274414062 89.3671875 479.212890625 96.6923828125 479.212890625 c 0
 104.017578125 479.212890625 109.956054688 473.274414062 109.956054688 465.94921875 c 0
135.481445312 259.91015625 m 0
 135.481445312 252.584960938 129.541992188 246.647460938 122.217773438 246.647460938 c 0
 114.892578125 246.647460938 108.954101562 252.584960938 108.954101562 259.91015625 c 0
 108.954101562 267.235351562 114.892578125 273.173828125 122.217773438 273.173828125 c 0
 129.541992188 273.173828125 135.481445312 267.235351562 135.481445312 259.91015625 c 0
43.62890625 259.91015625 m 0
 43.62890625 252.584960938 37.6904296875 246.647460938 30.365234375 246.647460938 c 0
 23.0400390625 246.647460938 17.1015625 252.584960938 17.1015625 259.91015625 c 0
 17.1015625 267.235351562 23.0400390625 273.173828125 30.365234375 273.173828125 c 0
 37.6904296875 273.173828125 43.62890625 267.235351562 43.62890625 259.91015625 c 0
180.7265625 103.583007812 m 0
 180.7265625 96.2568359375 174.787109375 90.3193359375 167.462890625 90.3193359375 c 0
 160.137695312 90.3193359375 154.19921875 96.2568359375 154.19921875 103.583007812 c 0
 154.19921875 110.908203125 160.137695312 116.845703125 167.462890625 116.845703125 c 0
 174.787109375 116.845703125 180.7265625 110.908203125 180.7265625 103.583007812 c 0
109.892578125 53.8720703125 m 0
 109.892578125 46.5458984375 103.954101562 40.6083984375 96.62890625 40.6083984375 c 0
 89.3037109375 40.6083984375 83.365234375 46.5458984375 83.365234375 53.8720703125 c 0
 83.365234375 61.197265625 89.3037109375 67.134765625 96.62890625 67.134765625 c 0
 103.954101562 67.134765625 109.892578125 61.197265625 109.892578125 53.8720703125 c 0
286.443359375 -20.580078125 m 0
 286.443359375 -27.9052734375 280.504882812 -33.84375 273.1796875 -33.84375 c 0
 265.854492188 -33.84375 259.916015625 -27.9052734375 259.916015625 -20.580078125 c 0
 259.916015625 -13.2548828125 265.854492188 -7.3173828125 273.1796875 -7.3173828125 c 0
 280.504882812 -7.3173828125 286.443359375 -13.2548828125 286.443359375 -20.580078125 c 0
286.443359375 55.87890625 m 0
 286.443359375 48.5537109375 280.504882812 42.615234375 273.1796875 42.615234375 c 0
 265.85546875 42.615234375 259.916015625 48.5537109375 259.916015625 55.87890625 c 0
 259.916015625 63.2041015625 265.85546875 69.142578125 273.1796875 69.142578125 c 0
 280.504882812 69.142578125 286.443359375 63.2041015625 286.443359375 55.87890625 c 0
368.174804688 84.1572265625 m 0
 368.174804688 76.83203125 362.236328125 70.8935546875 354.911132812 70.8935546875 c 0
 347.586914062 70.8935546875 341.647460938 76.83203125 341.647460938 84.1572265625 c 0
 341.647460938 91.482421875 347.586914062 97.4208984375 354.911132812 97.4208984375 c 0
 362.236328125 97.4208984375 368.174804688 91.482421875 368.174804688 84.1572265625 c 0
428.698242188 25.4228515625 m 0
 428.698242188 18.0966796875 422.759765625 12.1591796875 415.434570312 12.1591796875 c 0
 408.110351562 12.1591796875 402.170898438 18.0966796875 402.170898438 25.4228515625 c 0
 402.170898438 32.748046875 408.110351562 38.685546875 415.434570312 38.685546875 c 0
 422.759765625 38.685546875 428.698242188 32.748046875 428.698242188 25.4228515625 c 0
494.46875 134.442382812 m 0
 494.46875 127.1171875 488.530273438 121.178710938 481.205078125 121.178710938 c 0
 473.880859375 121.178710938 467.94140625 127.1171875 467.94140625 134.442382812 c 0
 467.94140625 141.767578125 473.880859375 147.706054688 481.205078125 147.706054688 c 0
 488.530273438 147.706054688 494.46875 141.767578125 494.46875 134.442382812 c 0
418.013671875 175.202148438 m 0
 418.013671875 167.876953125 412.075195312 161.938476562 404.75 161.938476562 c 0
 397.42578125 161.938476562 391.486328125 167.876953125 391.486328125 175.202148438 c 0
 391.486328125 182.52734375 397.42578125 188.465820312 404.75 188.465820312 c 0
 412.075195312 188.465820312 418.013671875 182.52734375 418.013671875 175.202148438 c 0
EndSplineSet
Validated: 1
Layer: 2
EndChar

StartChar: d
Encoding: 68 100 66
Width: 550
Flags: HMW
HStem: -15 75<223.5 292.5> 0 60 460 75<223.5 289 186 302.5> 700 20G<395 485 485 485>
VStem: 35 90<194 326 194 341> 406 79<194 326>
LayerCount: 3
Back
SplineSet
485 720 m 1
 485 0 l 1
 405 0 l 1
 405 71 l 1
 343.4765625 1.533203125 l 1
 255.264648438 -22.705078125 l 1
 86.3994140625 55.5732421875 l 1
 27.7587890625 257.78515625 l 1
 86.3994140625 459.998046875 l 1
 255.264648438 538.27734375 l 1
 338.625 517.46484375 l 1
 395 465.920898438 l 1
 395 720 l 1
 485 720 l 1
260.452148438 461.818359375 m 1
 159.796875 410.287109375 l 1
 119.611328125 257.78515625 l 1
 159.796875 105.327148438 l 1
 260.452148438 53.8388671875 l 1
 359.7578125 105.327148438 l 1
 406.311523438 257.78515625 l 1
 363.584960938 410.287109375 l 1
 260.452148438 461.818359375 l 1
EndSplineSet
Fore
SplineSet
471.491210938 719.986328125 m 0x3c
 471.491210938 727.311523438 477.4296875 733.25 484.754882812 733.25 c 0
 492.080078125 733.25 498.018554688 727.311523438 498.018554688 719.986328125 c 0
 498.018554688 712.661132812 492.080078125 706.723632812 484.754882812 706.723632812 c 0
 477.4296875 706.723632812 471.491210938 712.661132812 471.491210938 719.986328125 c 0x3c
381.491210938 719.986328125 m 0
 381.491210938 727.311523438 387.4296875 733.25 394.754882812 733.25 c 0
 402.080078125 733.25 408.018554688 727.311523438 408.018554688 719.986328125 c 0
 408.018554688 712.661132812 402.080078125 706.723632812 394.754882812 706.723632812 c 0
 387.4296875 706.723632812 381.491210938 712.661132812 381.491210938 719.986328125 c 0
381.491210938 465.908203125 m 0
 381.491210938 473.233398438 387.4296875 479.170898438 394.754882812 479.170898438 c 0
 402.080078125 479.170898438 408.018554688 473.233398438 408.018554688 465.908203125 c 0
 408.018554688 458.58203125 402.080078125 452.64453125 394.754882812 452.64453125 c 0
 387.4296875 452.64453125 381.491210938 458.58203125 381.491210938 465.908203125 c 0
350.076171875 410.2734375 m 0
 350.076171875 417.598632812 356.014648438 423.537109375 363.33984375 423.537109375 c 0
 370.6640625 423.537109375 376.603515625 417.598632812 376.603515625 410.2734375 c 0
 376.603515625 402.948242188 370.6640625 397.009765625 363.33984375 397.009765625 c 0
 356.014648438 397.009765625 350.076171875 402.948242188 350.076171875 410.2734375 c 0
392.802734375 257.771484375 m 0
 392.802734375 265.096679688 398.741210938 271.03515625 406.06640625 271.03515625 c 0
 413.390625 271.03515625 419.330078125 265.096679688 419.330078125 257.771484375 c 0
 419.330078125 250.446289062 413.390625 244.5078125 406.06640625 244.5078125 c 0
 398.741210938 244.5078125 392.802734375 250.446289062 392.802734375 257.771484375 c 0
346.249023438 105.313476562 m 0
 346.249023438 112.638671875 352.1875 118.577148438 359.512695312 118.577148438 c 0
 366.836914062 118.577148438 372.776367188 112.638671875 372.776367188 105.313476562 c 0
 372.776367188 97.98828125 366.836914062 92.0498046875 359.512695312 92.0498046875 c 0
 352.1875 92.0498046875 346.249023438 97.98828125 346.249023438 105.313476562 c 0
391.491210938 70.986328125 m 0
 391.491210938 78.3115234375 397.4296875 84.25 404.754882812 84.25 c 0
 412.080078125 84.25 418.018554688 78.3115234375 418.018554688 70.986328125 c 0
 418.018554688 63.6611328125 412.080078125 57.7236328125 404.754882812 57.7236328125 c 0
 397.4296875 57.7236328125 391.491210938 63.6611328125 391.491210938 70.986328125 c 0
471.491210938 -0.013671875 m 0
 471.491210938 7.3115234375 477.4296875 13.25 484.754882812 13.25 c 0
 492.080078125 13.25 498.018554688 7.3115234375 498.018554688 -0.013671875 c 0
 498.018554688 -7.3388671875 492.080078125 -13.2763671875 484.754882812 -13.2763671875 c 0
 477.4296875 -13.2763671875 471.491210938 -7.3388671875 471.491210938 -0.013671875 c 0
391.491210938 -0.013671875 m 0
 391.491210938 7.3115234375 397.4296875 13.25 404.754882812 13.25 c 0
 412.080078125 13.25 418.018554688 7.3115234375 418.018554688 -0.013671875 c 0
 418.018554688 -7.3388671875 412.080078125 -13.2763671875 404.754882812 -13.2763671875 c 0
 397.4296875 -13.2763671875 391.491210938 -7.3388671875 391.491210938 -0.013671875 c 0
329.967773438 1.51953125 m 0
 329.967773438 8.8447265625 335.90625 14.783203125 343.231445312 14.783203125 c 0
 350.556640625 14.783203125 356.495117188 8.8447265625 356.495117188 1.51953125 c 0
 356.495117188 -5.8056640625 350.556640625 -11.7431640625 343.231445312 -11.7431640625 c 0
 335.90625 -11.7431640625 329.967773438 -5.8056640625 329.967773438 1.51953125 c 0
241.755859375 -22.71875 m 0
 241.755859375 -15.3935546875 247.694335938 -9.455078125 255.01953125 -9.455078125 c 0
 262.344726562 -9.455078125 268.283203125 -15.3935546875 268.283203125 -22.71875 c 0
 268.283203125 -30.0439453125 262.344726562 -35.982421875 255.01953125 -35.982421875 c 0
 247.694335938 -35.982421875 241.755859375 -30.0439453125 241.755859375 -22.71875 c 0
246.943359375 53.8251953125 m 0
 246.943359375 61.150390625 252.881835938 67.0888671875 260.20703125 67.0888671875 c 0
 267.53125 67.0888671875 273.470703125 61.150390625 273.470703125 53.8251953125 c 0
 273.470703125 46.5 267.53125 40.5615234375 260.20703125 40.5615234375 c 0
 252.881835938 40.5615234375 246.943359375 46.5 246.943359375 53.8251953125 c 0
146.288085938 105.313476562 m 0
 146.288085938 112.638671875 152.2265625 118.577148438 159.551757812 118.577148438 c 0
 166.876953125 118.577148438 172.815429688 112.638671875 172.815429688 105.313476562 c 0
 172.815429688 97.98828125 166.876953125 92.0498046875 159.551757812 92.0498046875 c 0
 152.2265625 92.0498046875 146.288085938 97.98828125 146.288085938 105.313476562 c 0
72.890625 55.5595703125 m 0
 72.890625 62.884765625 78.8291015625 68.8232421875 86.154296875 68.8232421875 c 0
 93.4794921875 68.8232421875 99.41796875 62.884765625 99.41796875 55.5595703125 c 0
 99.41796875 48.234375 93.4794921875 42.2958984375 86.154296875 42.2958984375 c 0
 78.8291015625 42.2958984375 72.890625 48.234375 72.890625 55.5595703125 c 0
14.25 257.771484375 m 0
 14.25 265.096679688 20.1884765625 271.03515625 27.513671875 271.03515625 c 0
 34.8388671875 271.03515625 40.77734375 265.096679688 40.77734375 257.771484375 c 0
 40.77734375 250.446289062 34.8388671875 244.508789062 27.513671875 244.508789062 c 0
 20.1884765625 244.508789062 14.25 250.446289062 14.25 257.771484375 c 0
106.102539062 257.771484375 m 0
 106.102539062 265.096679688 112.041015625 271.03515625 119.366210938 271.03515625 c 0
 126.69140625 271.03515625 132.629882812 265.096679688 132.629882812 257.771484375 c 0
 132.629882812 250.446289062 126.69140625 244.5078125 119.366210938 244.5078125 c 0
 112.041015625 244.5078125 106.102539062 250.446289062 106.102539062 257.771484375 c 0
146.288085938 410.2734375 m 0
 146.288085938 417.598632812 152.2265625 423.537109375 159.551757812 423.537109375 c 0
 166.876953125 423.537109375 172.815429688 417.598632812 172.815429688 410.2734375 c 0
 172.815429688 402.948242188 166.876953125 397.009765625 159.551757812 397.009765625 c 0
 152.2265625 397.009765625 146.288085938 402.948242188 146.288085938 410.2734375 c 0
72.890625 459.984375 m 0
 72.890625 467.309570312 78.8291015625 473.248046875 86.154296875 473.248046875 c 0
 93.4794921875 473.248046875 99.41796875 467.309570312 99.41796875 459.984375 c 0
 99.41796875 452.659179688 93.4794921875 446.721679688 86.154296875 446.721679688 c 0
 78.8291015625 446.721679688 72.890625 452.659179688 72.890625 459.984375 c 0
241.755859375 538.263671875 m 0
 241.755859375 545.588867188 247.694335938 551.52734375 255.01953125 551.52734375 c 0
 262.344726562 551.52734375 268.283203125 545.588867188 268.283203125 538.263671875 c 0
 268.283203125 530.938476562 262.344726562 525.000976562 255.01953125 525.000976562 c 0
 247.694335938 525.000976562 241.755859375 530.938476562 241.755859375 538.263671875 c 0
246.943359375 461.8046875 m 0
 246.943359375 469.129882812 252.881835938 475.068359375 260.20703125 475.068359375 c 0
 267.53125 475.068359375 273.470703125 469.129882812 273.470703125 461.8046875 c 0
 273.470703125 454.479492188 267.53125 448.541015625 260.20703125 448.541015625 c 0
 252.881835938 448.541015625 246.943359375 454.479492188 246.943359375 461.8046875 c 0
325.116210938 517.451171875 m 0
 325.116210938 524.776367188 331.0546875 530.71484375 338.379882812 530.71484375 c 0
 345.705078125 530.71484375 351.643554688 524.776367188 351.643554688 517.451171875 c 0
 351.643554688 510.125976562 345.705078125 504.188476562 338.379882812 504.188476562 c 0
 331.0546875 504.188476562 325.116210938 510.125976562 325.116210938 517.451171875 c 0
EndSplineSet
Validated: 1
Layer: 2
EndChar

StartChar: e
Encoding: 69 101 67
Width: 544
Flags: HMW
HStem: -15 75<240.5 308.5 240.5 329.5> 237 72<128 413 128 508 125 413> 460 75<242 315>
VStem: 35 90<237 237 237 346> 413 96<309 309>
LayerCount: 3
Back
SplineSet
122 237 m 1
 174.46484375 98.9150390625 l 1
 278.149414062 56.44140625 l 1
 365.399414062 85.7744140625 l 1
 419.926757812 174.744140625 l 1
 490 131 l 1
 421.6171875 23.7744140625 l 1
 273.047851562 -20.1025390625 l 1
 96.603515625 54.3486328125 l 1
 30.318359375 260.387695312 l 1
 96.603515625 466.426757812 l 1
 273.047851562 540.87890625 l 1
 453.446289062 463.493164062 l 1
 513 272.999023438 l 1
 512.77734375 236.918945312 l 1
 122.001953125 236.9140625 l 1
 122 237 l 1
125 309 m 1
 416 309 l 1
 374.999023438 421.139648438 l 1
 272.961914062 464.505859375 l 1
 181.481445312 428.028320312 l 1
 125 309 l 1
EndSplineSet
Fore
SplineSet
406.635742188 174.587890625 m 0
 406.635742188 181.913085938 412.575195312 187.8515625 419.899414062 187.8515625 c 0
 427.224609375 187.8515625 433.163085938 181.913085938 433.163085938 174.587890625 c 0
 433.163085938 167.262695312 427.224609375 161.32421875 419.899414062 161.32421875 c 0
 412.575195312 161.32421875 406.635742188 167.262695312 406.635742188 174.587890625 c 0
476.708984375 130.84375 m 0
 476.708984375 138.168945312 482.6484375 144.107421875 489.97265625 144.107421875 c 0
 497.297851562 144.107421875 503.236328125 138.168945312 503.236328125 130.84375 c 0
 503.236328125 123.518554688 497.297851562 117.580078125 489.97265625 117.580078125 c 0
 482.6484375 117.580078125 476.708984375 123.518554688 476.708984375 130.84375 c 0
408.326171875 23.6181640625 m 0
 408.326171875 30.943359375 414.265625 36.880859375 421.58984375 36.880859375 c 0
 428.915039062 36.880859375 434.853515625 30.943359375 434.853515625 23.6181640625 c 0
 434.853515625 16.29296875 428.915039062 10.3544921875 421.58984375 10.3544921875 c 0
 414.265625 10.3544921875 408.326171875 16.29296875 408.326171875 23.6181640625 c 0
352.108398438 85.6181640625 m 0
 352.108398438 92.943359375 358.047851562 98.8818359375 365.372070312 98.8818359375 c 0
 372.697265625 98.8818359375 378.63671875 92.943359375 378.63671875 85.6181640625 c 0
 378.63671875 78.29296875 372.697265625 72.3544921875 365.372070312 72.3544921875 c 0
 358.047851562 72.3544921875 352.108398438 78.29296875 352.108398438 85.6181640625 c 0
264.858398438 56.28515625 m 0
 264.858398438 63.6103515625 270.797851562 69.548828125 278.122070312 69.548828125 c 0
 285.447265625 69.548828125 291.38671875 63.6103515625 291.38671875 56.28515625 c 0
 291.38671875 48.9599609375 285.447265625 43.021484375 278.122070312 43.021484375 c 0
 270.797851562 43.021484375 264.858398438 48.9599609375 264.858398438 56.28515625 c 0
259.756835938 -20.2587890625 m 0
 259.756835938 -12.93359375 265.6953125 -6.99609375 273.020507812 -6.99609375 c 0
 280.345703125 -6.99609375 286.284179688 -12.93359375 286.284179688 -20.2587890625 c 0
 286.284179688 -27.583984375 280.345703125 -33.5224609375 273.020507812 -33.5224609375 c 0
 265.6953125 -33.5224609375 259.756835938 -27.583984375 259.756835938 -20.2587890625 c 0
83.3125 54.193359375 m 0
 83.3125 61.5185546875 89.2509765625 67.4560546875 96.576171875 67.4560546875 c 0
 103.901367188 67.4560546875 109.83984375 61.5185546875 109.83984375 54.193359375 c 0
 109.83984375 46.8671875 103.901367188 40.9296875 96.576171875 40.9296875 c 0
 89.2509765625 40.9296875 83.3125 46.8671875 83.3125 54.193359375 c 0
161.173828125 98.7587890625 m 0
 161.173828125 106.083984375 167.112304688 112.022460938 174.4375 112.022460938 c 0
 181.762695312 112.022460938 187.701171875 106.083984375 187.701171875 98.7587890625 c 0
 187.701171875 91.43359375 181.762695312 85.4951171875 174.4375 85.4951171875 c 0
 167.112304688 85.4951171875 161.173828125 91.43359375 161.173828125 98.7587890625 c 0
108.741210938 236.7578125 m 0
 108.741210938 244.083007812 114.680664062 250.021484375 122.004882812 250.021484375 c 0
 129.330078125 250.021484375 135.26953125 244.083007812 135.26953125 236.7578125 c 0
 135.26953125 229.432617188 129.330078125 223.494140625 122.004882812 223.494140625 c 0
 114.680664062 223.494140625 108.741210938 229.432617188 108.741210938 236.7578125 c 0
17.02734375 260.231445312 m 0
 17.02734375 267.556640625 22.9658203125 273.495117188 30.291015625 273.495117188 c 0
 37.6162109375 273.495117188 43.5546875 267.556640625 43.5546875 260.231445312 c 0
 43.5546875 252.90625 37.6162109375 246.96875 30.291015625 246.96875 c 0
 22.9658203125 246.96875 17.02734375 252.90625 17.02734375 260.231445312 c 0
111.708984375 308.84375 m 0
 111.708984375 316.168945312 117.647460938 322.107421875 124.97265625 322.107421875 c 0
 132.297851562 322.107421875 138.236328125 316.168945312 138.236328125 308.84375 c 0
 138.236328125 301.518554688 132.297851562 295.580078125 124.97265625 295.580078125 c 0
 117.647460938 295.580078125 111.708984375 301.518554688 111.708984375 308.84375 c 0
83.3125 466.270507812 m 0
 83.3125 473.595703125 89.2509765625 479.534179688 96.576171875 479.534179688 c 0
 103.901367188 479.534179688 109.83984375 473.595703125 109.83984375 466.270507812 c 0
 109.83984375 458.9453125 103.901367188 453.0078125 96.576171875 453.0078125 c 0
 89.2509765625 453.0078125 83.3125 458.9453125 83.3125 466.270507812 c 0
168.190429688 427.872070312 m 0
 168.190429688 435.197265625 174.12890625 441.135742188 181.454101562 441.135742188 c 0
 188.779296875 441.135742188 194.717773438 435.197265625 194.717773438 427.872070312 c 0
 194.717773438 420.546875 188.779296875 414.609375 181.454101562 414.609375 c 0
 174.12890625 414.609375 168.190429688 420.546875 168.190429688 427.872070312 c 0
259.670898438 464.349609375 m 0
 259.670898438 471.674804688 265.609375 477.61328125 272.934570312 477.61328125 c 0
 280.259765625 477.61328125 286.198242188 471.674804688 286.198242188 464.349609375 c 0
 286.198242188 457.024414062 280.259765625 451.086914062 272.934570312 451.086914062 c 0
 265.609375 451.086914062 259.670898438 457.024414062 259.670898438 464.349609375 c 0
259.756835938 540.72265625 m 0
 259.756835938 548.047851562 265.6953125 553.986328125 273.020507812 553.986328125 c 0
 280.345703125 553.986328125 286.284179688 548.047851562 286.284179688 540.72265625 c 0
 286.284179688 533.397460938 280.345703125 527.459960938 273.020507812 527.459960938 c 0
 265.6953125 527.459960938 259.756835938 533.397460938 259.756835938 540.72265625 c 0
440.155273438 463.336914062 m 0
 440.155273438 470.662109375 446.094726562 476.600585938 453.418945312 476.600585938 c 0
 460.744140625 476.600585938 466.682617188 470.662109375 466.682617188 463.336914062 c 0
 466.682617188 456.01171875 460.744140625 450.07421875 453.418945312 450.07421875 c 0
 446.094726562 450.07421875 440.155273438 456.01171875 440.155273438 463.336914062 c 0
361.708007812 420.983398438 m 0
 361.708007812 428.30859375 367.646484375 434.247070312 374.971679688 434.247070312 c 0
 382.296875 434.247070312 388.235351562 428.30859375 388.235351562 420.983398438 c 0
 388.235351562 413.658203125 382.296875 407.720703125 374.971679688 407.720703125 c 0
 367.646484375 407.720703125 361.708007812 413.658203125 361.708007812 420.983398438 c 0
402.708984375 308.84375 m 0
 402.708984375 316.168945312 408.647460938 322.107421875 415.97265625 322.107421875 c 0
 423.297851562 322.107421875 429.236328125 316.168945312 429.236328125 308.84375 c 0
 429.236328125 301.518554688 423.297851562 295.580078125 415.97265625 295.580078125 c 0
 408.647460938 295.580078125 402.708984375 301.518554688 402.708984375 308.84375 c 0
499.677734375 272.95703125 m 0
 499.677734375 280.282226562 505.6171875 286.220703125 512.94140625 286.220703125 c 0
 520.266601562 286.220703125 526.205078125 280.282226562 526.205078125 272.95703125 c 0
 526.205078125 265.631835938 520.266601562 259.693359375 512.94140625 259.693359375 c 0
 505.6171875 259.693359375 499.677734375 265.631835938 499.677734375 272.95703125 c 0
499.736328125 236.762695312 m 0
 499.736328125 244.087890625 505.67578125 250.026367188 513 250.026367188 c 0
 520.325195312 250.026367188 526.263671875 244.087890625 526.263671875 236.762695312 c 0
 526.263671875 229.4375 520.325195312 223.5 513 223.5 c 0
 505.67578125 223.5 499.736328125 229.4375 499.736328125 236.762695312 c 0
EndSplineSet
Validated: 1
Layer: 2
EndChar

StartChar: f
Encoding: 70 102 68
Width: 303
Flags: HMW
HStem: 0 21G<88 175 88 88> 451 69<10 88 10 88 175 276> 633 78<221.5 254.5 188 257>
VStem: 88 87<0 451 520 541 541 543>
LayerCount: 3
Back
SplineSet
88 0 m 1
 88 451 l 1
 10 451 l 1
 10 520 l 1
 88 520 l 1
 88 545 l 1
 124.8203125 673.46875 l 1
 239.561523438 718.110351562 l 1
 321 703 l 1
 308.961914062 628.298828125 l 1
 308.961914062 628.298828125 l 1
 250.7890625 638.504882812 l 1
 191.977539062 614.393554688 l 1
 175 547 l 1
 175 520 l 1
 276 520 l 1
 276 451 l 1
 175 451 l 1
 175 0 l 1
 88 0 l 1
 88 0 l 1
EndSplineSet
Fore
SplineSet
74.75 0 m 0
 74.75 7.3251953125 80.6884765625 13.263671875 88.013671875 13.263671875 c 0
 95.3388671875 13.263671875 101.27734375 7.3251953125 101.27734375 0 c 0
 101.27734375 -7.3251953125 95.3388671875 -13.263671875 88.013671875 -13.263671875 c 0
 80.6884765625 -13.263671875 74.75 -7.3251953125 74.75 0 c 0
161.75 0 m 0
 161.75 7.3251953125 167.688476562 13.263671875 175.013671875 13.263671875 c 0
 182.338867188 13.263671875 188.27734375 7.3251953125 188.27734375 0 c 0
 188.27734375 -7.3251953125 182.338867188 -13.263671875 175.013671875 -13.263671875 c 0
 167.688476562 -13.263671875 161.75 -7.3251953125 161.75 0 c 0
74.75 451 m 0
 74.75 458.325195312 80.6884765625 464.263671875 88.013671875 464.263671875 c 0
 95.3388671875 464.263671875 101.27734375 458.325195312 101.27734375 451 c 0
 101.27734375 443.674804688 95.3388671875 437.736328125 88.013671875 437.736328125 c 0
 80.6884765625 437.736328125 74.75 443.674804688 74.75 451 c 0
161.75 451 m 0
 161.75 458.325195312 167.688476562 464.263671875 175.013671875 464.263671875 c 0
 182.338867188 464.263671875 188.27734375 458.325195312 188.27734375 451 c 0
 188.27734375 443.674804688 182.338867188 437.736328125 175.013671875 437.736328125 c 0
 167.688476562 437.736328125 161.75 443.674804688 161.75 451 c 0
74.75 520 m 0
 74.75 527.325195312 80.6884765625 533.263671875 88.013671875 533.263671875 c 0
 95.3388671875 533.263671875 101.27734375 527.325195312 101.27734375 520 c 0
 101.27734375 512.674804688 95.3388671875 506.736328125 88.013671875 506.736328125 c 0
 80.6884765625 506.736328125 74.75 512.674804688 74.75 520 c 0
161.75 520 m 0
 161.75 527.325195312 167.688476562 533.263671875 175.013671875 533.263671875 c 0
 182.338867188 533.263671875 188.27734375 527.325195312 188.27734375 520 c 0
 188.27734375 512.674804688 182.338867188 506.736328125 175.013671875 506.736328125 c 0
 167.688476562 506.736328125 161.75 512.674804688 161.75 520 c 0
74.75 545 m 0
 74.75 552.325195312 80.6884765625 558.263671875 88.013671875 558.263671875 c 0
 95.3388671875 558.263671875 101.27734375 552.325195312 101.27734375 545 c 0
 101.27734375 537.674804688 95.3388671875 531.736328125 88.013671875 531.736328125 c 0
 80.6884765625 531.736328125 74.75 537.674804688 74.75 545 c 0
161.75 547 m 0
 161.75 554.325195312 167.688476562 560.263671875 175.013671875 560.263671875 c 0
 182.338867188 560.263671875 188.27734375 554.325195312 188.27734375 547 c 0
 188.27734375 539.674804688 182.338867188 533.736328125 175.013671875 533.736328125 c 0
 167.688476562 533.736328125 161.75 539.674804688 161.75 547 c 0
262.75 451 m 0
 262.75 458.325195312 268.688476562 464.263671875 276.013671875 464.263671875 c 0
 283.338867188 464.263671875 289.27734375 458.325195312 289.27734375 451 c 0
 289.27734375 443.674804688 283.338867188 437.736328125 276.013671875 437.736328125 c 0
 268.688476562 437.736328125 262.75 443.674804688 262.75 451 c 0
262.75 520 m 0
 262.75 527.325195312 268.688476562 533.263671875 276.013671875 533.263671875 c 0
 283.338867188 533.263671875 289.27734375 527.325195312 289.27734375 520 c 0
 289.27734375 512.674804688 283.338867188 506.736328125 276.013671875 506.736328125 c 0
 268.688476562 506.736328125 262.75 512.674804688 262.75 520 c 0
-3.25 451 m 0
 -3.25 458.325195312 2.6884765625 464.263671875 10.013671875 464.263671875 c 0
 17.3388671875 464.263671875 23.27734375 458.325195312 23.27734375 451 c 0
 23.27734375 443.674804688 17.3388671875 437.736328125 10.013671875 437.736328125 c 0
 2.6884765625 437.736328125 -3.25 443.674804688 -3.25 451 c 0
-3.25 520 m 0
 -3.25 527.325195312 2.6884765625 533.263671875 10.013671875 533.263671875 c 0
 17.3388671875 533.263671875 23.27734375 527.325195312 23.27734375 520 c 0
 23.27734375 512.674804688 17.3388671875 506.736328125 10.013671875 506.736328125 c 0
 2.6884765625 506.736328125 -3.25 512.674804688 -3.25 520 c 0
178.727539062 614.393554688 m 4
 178.727539062 621.71875 184.666015625 627.657226562 191.991210938 627.657226562 c 4
 199.31640625 627.657226562 205.254882812 621.71875 205.254882812 614.393554688 c 4
 205.254882812 607.068359375 199.31640625 601.130859375 191.991210938 601.130859375 c 4
 184.666015625 601.130859375 178.727539062 607.068359375 178.727539062 614.393554688 c 4
111.5703125 673.46875 m 4
 111.5703125 680.793945312 117.508789062 686.732421875 124.833984375 686.732421875 c 4
 132.159179688 686.732421875 138.09765625 680.793945312 138.09765625 673.46875 c 4
 138.09765625 666.143554688 132.159179688 660.206054688 124.833984375 660.206054688 c 4
 117.508789062 660.206054688 111.5703125 666.143554688 111.5703125 673.46875 c 4
237.5390625 638.504882812 m 4
 237.5390625 645.830078125 243.477539062 651.768554688 250.802734375 651.768554688 c 4
 258.127929688 651.768554688 264.06640625 645.830078125 264.06640625 638.504882812 c 4
 264.06640625 631.1796875 258.127929688 625.241210938 250.802734375 625.241210938 c 4
 243.477539062 625.241210938 237.5390625 631.1796875 237.5390625 638.504882812 c 4
295.711914062 628.298828125 m 4
 295.711914062 635.624023438 301.650390625 641.5625 308.975585938 641.5625 c 4
 316.30078125 641.5625 322.239257812 635.624023438 322.239257812 628.298828125 c 4
 322.239257812 620.973632812 316.30078125 615.03515625 308.975585938 615.03515625 c 4
 301.650390625 615.03515625 295.711914062 620.973632812 295.711914062 628.298828125 c 4
307.811523438 703.032226562 m 4
 307.811523438 710.357421875 313.75 716.295898438 321.075195312 716.295898438 c 4
 328.400390625 716.295898438 334.338867188 710.357421875 334.338867188 703.032226562 c 4
 334.338867188 695.70703125 328.400390625 689.768554688 321.075195312 689.768554688 c 4
 313.75 689.768554688 307.811523438 695.70703125 307.811523438 703.032226562 c 4
226.311523438 718.110351562 m 4
 226.311523438 725.435546875 232.25 731.374023438 239.575195312 731.374023438 c 4
 246.900390625 731.374023438 252.838867188 725.435546875 252.838867188 718.110351562 c 4
 252.838867188 710.78515625 246.900390625 704.84765625 239.575195312 704.84765625 c 4
 232.25 704.84765625 226.311523438 710.78515625 226.311523438 718.110351562 c 4
EndSplineSet
Validated: 5
Layer: 2
EndChar

StartChar: g
Encoding: 71 103 69
Width: 558
Flags: HMW
HStem: -210 76<236 314.5 236 356.5> -15 75<231.5 297> 460 60 460 75<231.5 300.5 194 305.5>
VStem: 43 90<194 326 194 341> 63 85<-46 -46 -46 -33> 403 90<18 40 40 55 55 55>
LayerCount: 3
Back
SplineSet
260.900390625 -217.545898438 m 1
 120.368164062 -174.689453125 l 1
 75 -79 l 1
 147 -46 l 1
 179.763671875 -116.515625 l 1
 263.025390625 -139.98046875 l 1
 369.921875 -99.548828125 l 1
 401.740234375 16.83984375 l 1
 401.999023438 55 l 1
 342.4453125 0.6650390625 l 1
 261.918945312 -18.53125 l 1
 93.09765625 59.748046875 l 1
 34.5 261.959960938 l 1
 93.09765625 464.171875 l 1
 261.918945312 542.451171875 l 1
 353.0859375 516.42578125 l 1
 411.999023438 450 l 1
 411.999023438 520 l 1
 491.999023438 520 l 1
 491.999023438 34 l 1
 447.177734375 -139.384765625 l 1
 260.900390625 -217.545898438 l 1
267.0234375 465.907226562 m 1
 166.516601562 414.375976562 l 1
 126.3515625 261.875 l 1
 166.516601562 109.416015625 l 1
 267.0234375 57.927734375 l 1
 370.198242188 109.416015625 l 1
 412.967773438 261.875 l 1
 366.403320312 414.375976562 l 1
 267.0234375 465.907226562 l 1
EndSplineSet
Fore
SplineSet
61.736328125 -78.9873046875 m 0xc2
 61.736328125 -71.662109375 67.6748046875 -65.724609375 75 -65.724609375 c 0
 82.3251953125 -65.724609375 88.263671875 -71.662109375 88.263671875 -78.9873046875 c 0
 88.263671875 -86.3125 82.3251953125 -92.2509765625 75 -92.2509765625 c 0
 67.6748046875 -92.2509765625 61.736328125 -86.3125 61.736328125 -78.9873046875 c 0xc2
133.705078125 -45.9208984375 m 0
 133.705078125 -38.595703125 139.64453125 -32.6572265625 146.96875 -32.6572265625 c 0
 154.293945312 -32.6572265625 160.233398438 -38.595703125 160.233398438 -45.9208984375 c 0
 160.233398438 -53.24609375 154.293945312 -59.1845703125 146.96875 -59.1845703125 c 0
 139.64453125 -59.1845703125 133.705078125 -53.24609375 133.705078125 -45.9208984375 c 0
166.5 -116.502929688 m 0
 166.5 -109.177734375 172.438476562 -103.240234375 179.763671875 -103.240234375 c 0
 187.088867188 -103.240234375 193.02734375 -109.177734375 193.02734375 -116.502929688 c 0
 193.02734375 -123.828125 187.088867188 -129.766601562 179.763671875 -129.766601562 c 0
 172.438476562 -129.766601562 166.5 -123.828125 166.5 -116.502929688 c 0
107.104492188 -174.676757812 m 0
 107.104492188 -167.3515625 113.04296875 -161.4140625 120.368164062 -161.4140625 c 0
 127.693359375 -161.4140625 133.631835938 -167.3515625 133.631835938 -174.676757812 c 0
 133.631835938 -182.001953125 127.693359375 -187.940429688 120.368164062 -187.940429688 c 0
 113.04296875 -187.940429688 107.104492188 -182.001953125 107.104492188 -174.676757812 c 0
249.76171875 -139.967773438 m 0
 249.76171875 -132.642578125 255.700195312 -126.704101562 263.025390625 -126.704101562 c 0
 270.350585938 -126.704101562 276.2890625 -132.642578125 276.2890625 -139.967773438 c 0
 276.2890625 -147.29296875 270.350585938 -153.231445312 263.025390625 -153.231445312 c 0
 255.700195312 -153.231445312 249.76171875 -147.29296875 249.76171875 -139.967773438 c 0
247.63671875 -217.533203125 m 0
 247.63671875 -210.208007812 253.575195312 -204.270507812 260.900390625 -204.270507812 c 0
 268.225585938 -204.270507812 274.1640625 -210.208007812 274.1640625 -217.533203125 c 0
 274.1640625 -224.858398438 268.225585938 -230.796875 260.900390625 -230.796875 c 0
 253.575195312 -230.796875 247.63671875 -224.858398438 247.63671875 -217.533203125 c 0
433.915039062 -139.372070312 m 0
 433.915039062 -132.046875 439.853515625 -126.108398438 447.178710938 -126.108398438 c 0
 454.50390625 -126.108398438 460.442382812 -132.046875 460.442382812 -139.372070312 c 0
 460.442382812 -146.697265625 454.50390625 -152.635742188 447.178710938 -152.635742188 c 0
 439.853515625 -152.635742188 433.915039062 -146.697265625 433.915039062 -139.372070312 c 0
356.659179688 -99.5361328125 m 0
 356.659179688 -92.2109375 362.59765625 -86.2734375 369.922851562 -86.2734375 c 0
 377.248046875 -86.2734375 383.186523438 -92.2109375 383.186523438 -99.5361328125 c 0
 383.186523438 -106.861328125 377.248046875 -112.799804688 369.922851562 -112.799804688 c 0
 362.59765625 -112.799804688 356.659179688 -106.861328125 356.659179688 -99.5361328125 c 0
387.880859375 14.6708984375 m 0
 387.880859375 21.99609375 393.819335938 27.9345703125 401.14453125 27.9345703125 c 0
 408.469726562 27.9345703125 414.408203125 21.99609375 414.408203125 14.6708984375 c 0
 414.408203125 7.345703125 408.469726562 1.4072265625 401.14453125 1.4072265625 c 0
 393.819335938 1.4072265625 387.880859375 7.345703125 387.880859375 14.6708984375 c 0
388.736328125 55.0126953125 m 0
 388.736328125 62.337890625 394.674804688 68.2763671875 402 68.2763671875 c 0
 409.325195312 68.2763671875 415.263671875 62.337890625 415.263671875 55.0126953125 c 0
 415.263671875 47.6875 409.325195312 41.7490234375 402 41.7490234375 c 0
 394.674804688 41.7490234375 388.736328125 47.6875 388.736328125 55.0126953125 c 0
329.182617188 0.677734375 m 0
 329.182617188 8.0029296875 335.12109375 13.94140625 342.446289062 13.94140625 c 0
 349.771484375 13.94140625 355.709960938 8.0029296875 355.709960938 0.677734375 c 0
 355.709960938 -6.6474609375 349.771484375 -12.5859375 342.446289062 -12.5859375 c 0
 335.12109375 -12.5859375 329.182617188 -6.6474609375 329.182617188 0.677734375 c 0
248.65625 -18.5185546875 m 0
 248.65625 -11.193359375 254.594726562 -5.2548828125 261.919921875 -5.2548828125 c 0
 269.245117188 -5.2548828125 275.18359375 -11.193359375 275.18359375 -18.5185546875 c 0
 275.18359375 -25.84375 269.245117188 -31.7822265625 261.919921875 -31.7822265625 c 0
 254.594726562 -31.7822265625 248.65625 -25.84375 248.65625 -18.5185546875 c 0
253.759765625 57.9404296875 m 0
 253.759765625 65.265625 259.698242188 71.203125 267.0234375 71.203125 c 0
 274.348632812 71.203125 280.287109375 65.265625 280.287109375 57.9404296875 c 0
 280.287109375 50.615234375 274.348632812 44.6767578125 267.0234375 44.6767578125 c 0
 259.698242188 44.6767578125 253.759765625 50.615234375 253.759765625 57.9404296875 c 0
478.736328125 36.3291015625 m 0
 478.736328125 43.654296875 484.674804688 49.5927734375 492 49.5927734375 c 0
 499.325195312 49.5927734375 505.263671875 43.654296875 505.263671875 36.3291015625 c 0
 505.263671875 29.00390625 499.325195312 23.0654296875 492 23.0654296875 c 0
 484.674804688 23.0654296875 478.736328125 29.00390625 478.736328125 36.3291015625 c 0
478.736328125 520.012695312 m 0
 478.736328125 527.337890625 484.674804688 533.276367188 492 533.276367188 c 0
 499.325195312 533.276367188 505.263671875 527.337890625 505.263671875 520.012695312 c 0
 505.263671875 512.6875 499.325195312 506.75 492 506.75 c 0
 484.674804688 506.75 478.736328125 512.6875 478.736328125 520.012695312 c 0
398.736328125 520.012695312 m 0
 398.736328125 527.337890625 404.674804688 533.276367188 412 533.276367188 c 0
 419.325195312 533.276367188 425.263671875 527.337890625 425.263671875 520.012695312 c 0
 425.263671875 512.6875 419.325195312 506.75 412 506.75 c 0
 404.674804688 506.75 398.736328125 512.6875 398.736328125 520.012695312 c 0
398.736328125 450.012695312 m 0
 398.736328125 457.337890625 404.674804688 463.276367188 412 463.276367188 c 0
 419.325195312 463.276367188 425.263671875 457.337890625 425.263671875 450.012695312 c 0
 425.263671875 442.6875 419.325195312 436.75 412 436.75 c 0
 404.674804688 436.75 398.736328125 442.6875 398.736328125 450.012695312 c 0
353.139648438 414.388671875 m 0
 353.139648438 421.713867188 359.078125 427.651367188 366.403320312 427.651367188 c 0
 373.728515625 427.651367188 379.666992188 421.713867188 379.666992188 414.388671875 c 0
 379.666992188 407.063476562 373.728515625 401.125 366.403320312 401.125 c 0
 359.078125 401.125 353.139648438 407.063476562 353.139648438 414.388671875 c 0
399.704101562 261.887695312 m 0
 399.704101562 269.212890625 405.642578125 275.150390625 412.967773438 275.150390625 c 0
 420.29296875 275.150390625 426.231445312 269.212890625 426.231445312 261.887695312 c 0
 426.231445312 254.5625 420.29296875 248.624023438 412.967773438 248.624023438 c 0
 405.642578125 248.624023438 399.704101562 254.5625 399.704101562 261.887695312 c 0
253.759765625 465.919921875 m 0
 253.759765625 473.245117188 259.698242188 479.182617188 267.0234375 479.182617188 c 0
 274.348632812 479.182617188 280.287109375 473.245117188 280.287109375 465.919921875 c 0
 280.287109375 458.594726562 274.348632812 452.65625 267.0234375 452.65625 c 0
 259.698242188 452.65625 253.759765625 458.594726562 253.759765625 465.919921875 c 0
339.823242188 516.438476562 m 0
 339.823242188 523.763671875 345.76171875 529.702148438 353.086914062 529.702148438 c 0
 360.412109375 529.702148438 366.350585938 523.763671875 366.350585938 516.438476562 c 0
 366.350585938 509.11328125 360.412109375 503.17578125 353.086914062 503.17578125 c 0
 345.76171875 503.17578125 339.823242188 509.11328125 339.823242188 516.438476562 c 0
248.65625 542.463867188 m 0
 248.65625 549.7890625 254.594726562 555.727539062 261.919921875 555.727539062 c 0
 269.245117188 555.727539062 275.18359375 549.7890625 275.18359375 542.463867188 c 0
 275.18359375 535.138671875 269.245117188 529.201171875 261.919921875 529.201171875 c 0
 254.594726562 529.201171875 248.65625 535.138671875 248.65625 542.463867188 c 0
153.25390625 414.388671875 m 0
 153.25390625 421.713867188 159.192382812 427.651367188 166.517578125 427.651367188 c 0
 173.842773438 427.651367188 179.78125 421.713867188 179.78125 414.388671875 c 0
 179.78125 407.063476562 173.842773438 401.125 166.517578125 401.125 c 0
 159.192382812 401.125 153.25390625 407.063476562 153.25390625 414.388671875 c 0
79.833984375 464.184570312 m 0
 79.833984375 471.509765625 85.7724609375 477.448242188 93.09765625 477.448242188 c 0
 100.422851562 477.448242188 106.361328125 471.509765625 106.361328125 464.184570312 c 0
 106.361328125 456.859375 100.422851562 450.921875 93.09765625 450.921875 c 0
 85.7724609375 450.921875 79.833984375 456.859375 79.833984375 464.184570312 c 0
113.088867188 261.887695312 m 0
 113.088867188 269.212890625 119.02734375 275.150390625 126.352539062 275.150390625 c 0
 133.677734375 275.150390625 139.616210938 269.212890625 139.616210938 261.887695312 c 0
 139.616210938 254.5625 133.677734375 248.624023438 126.352539062 248.624023438 c 0
 119.02734375 248.624023438 113.088867188 254.5625 113.088867188 261.887695312 c 0
21.236328125 261.97265625 m 0
 21.236328125 269.297851562 27.1748046875 275.236328125 34.5 275.236328125 c 0
 41.8251953125 275.236328125 47.763671875 269.297851562 47.763671875 261.97265625 c 0
 47.763671875 254.647460938 41.8251953125 248.708984375 34.5 248.708984375 c 0
 27.1748046875 248.708984375 21.236328125 254.647460938 21.236328125 261.97265625 c 0
79.833984375 59.7607421875 m 0
 79.833984375 67.0859375 85.7724609375 73.0244140625 93.09765625 73.0244140625 c 0
 100.422851562 73.0244140625 106.361328125 67.0859375 106.361328125 59.7607421875 c 0
 106.361328125 52.435546875 100.422851562 46.4970703125 93.09765625 46.4970703125 c 0
 85.7724609375 46.4970703125 79.833984375 52.435546875 79.833984375 59.7607421875 c 0
153.25390625 109.428710938 m 0
 153.25390625 116.75390625 159.192382812 122.69140625 166.517578125 122.69140625 c 0
 173.842773438 122.69140625 179.78125 116.75390625 179.78125 109.428710938 c 0
 179.78125 102.103515625 173.842773438 96.1650390625 166.517578125 96.1650390625 c 0
 159.192382812 96.1650390625 153.25390625 102.103515625 153.25390625 109.428710938 c 0
356.934570312 109.428710938 m 0
 356.934570312 116.75390625 362.873046875 122.69140625 370.198242188 122.69140625 c 0
 377.5234375 122.69140625 383.461914062 116.75390625 383.461914062 109.428710938 c 0
 383.461914062 102.103515625 377.5234375 96.1650390625 370.198242188 96.1650390625 c 0
 362.873046875 96.1650390625 356.934570312 102.103515625 356.934570312 109.428710938 c 0
EndSplineSet
Validated: 1
Layer: 2
EndChar

StartChar: h
Encoding: 72 104 70
Width: 555
Flags: HMW
HStem: 0 21G<65.7109 155.711 65.7109 65.7109 400.711 400.711 400.711 490.711> 459 76<275.711 332.711> 700 20G<65.7109 155.711 155.711 155.711>
VStem: 65.7109 90<0 283 449 720> 400.711 90<0 315 315 319 0 360>
LayerCount: 3
Back
SplineSet
62 0 m 1
 62 720 l 1
 152.518554688 720 l 1
 152.518554688 449 l 1
 215.657226562 516.44921875 l 1
 311.64453125 538.477539062 l 1
 457.982421875 475.719726562 l 1
 492.16015625 316.407226562 l 1
 491.767578125 0.0009765625 l 1
 402 0.0009765625 l 1
 402.051757812 315.69140625 l 1
 377.6953125 421.918945312 l 1
 293.314453125 460.9140625 l 1
 191.66015625 414.741210938 l 1
 152.64453125 283.000976562 l 1
 152.64453125 0.0009765625 l 1
 62 0.0009765625 l 1
 62 0 l 1
EndSplineSet
Fore
SplineSet
48.6103515625 0.2646484375 m 0
 48.6103515625 7.58984375 54.548828125 13.5283203125 61.8740234375 13.5283203125 c 0
 69.19921875 13.5283203125 75.1376953125 7.58984375 75.1376953125 0.2646484375 c 0
 75.1376953125 -7.060546875 69.19921875 -12.9990234375 61.8740234375 -12.9990234375 c 0
 54.548828125 -12.9990234375 48.6103515625 -7.060546875 48.6103515625 0.2646484375 c 0
139.12890625 0.2646484375 m 0
 139.12890625 7.58984375 145.067382812 13.5283203125 152.392578125 13.5283203125 c 0
 159.717773438 13.5283203125 165.65625 7.58984375 165.65625 0.2646484375 c 0
 165.65625 -7.060546875 159.717773438 -12.9990234375 152.392578125 -12.9990234375 c 0
 145.067382812 -12.9990234375 139.12890625 -7.060546875 139.12890625 0.2646484375 c 0
387.859375 0.2646484375 m 0
 387.859375 7.58984375 393.797851562 13.52734375 401.123046875 13.52734375 c 0
 408.448242188 13.52734375 414.38671875 7.58984375 414.38671875 0.2646484375 c 0
 414.38671875 -7.060546875 408.448242188 -12.9990234375 401.123046875 -12.9990234375 c 0
 393.797851562 -12.9990234375 387.859375 -7.060546875 387.859375 0.2646484375 c 0
478.377929688 0.2646484375 m 0
 478.377929688 7.58984375 484.31640625 13.5283203125 491.641601562 13.5283203125 c 0
 498.966796875 13.5283203125 504.905273438 7.58984375 504.905273438 0.2646484375 c 0
 504.905273438 -7.060546875 498.966796875 -12.9990234375 491.641601562 -12.9990234375 c 0
 484.31640625 -12.9990234375 478.377929688 -7.060546875 478.377929688 0.2646484375 c 0
48.736328125 720.263671875 m 0
 48.736328125 727.588867188 54.67578125 733.52734375 62 733.52734375 c 0
 69.3251953125 733.52734375 75.263671875 727.588867188 75.263671875 720.263671875 c 0
 75.263671875 712.938476562 69.3251953125 707 62 707 c 0
 54.67578125 707 48.736328125 712.938476562 48.736328125 720.263671875 c 0
139.254882812 720.263671875 m 0
 139.254882812 727.588867188 145.194335938 733.52734375 152.51953125 733.52734375 c 0
 159.84375 733.52734375 165.783203125 727.588867188 165.783203125 720.263671875 c 0
 165.783203125 712.938476562 159.84375 707.000976562 152.51953125 707.000976562 c 0
 145.194335938 707.000976562 139.254882812 712.938476562 139.254882812 720.263671875 c 0
139.12890625 449.263671875 m 0
 139.12890625 456.588867188 145.067382812 462.52734375 152.392578125 462.52734375 c 0
 159.717773438 462.52734375 165.65625 456.588867188 165.65625 449.263671875 c 0
 165.65625 441.938476562 159.717773438 436.000976562 152.392578125 436.000976562 c 0
 145.067382812 436.000976562 139.12890625 441.938476562 139.12890625 449.263671875 c 0
178.270507812 415.004882812 m 0
 178.270507812 422.330078125 184.209960938 428.268554688 191.534179688 428.268554688 c 0
 198.859375 428.268554688 204.798828125 422.330078125 204.798828125 415.004882812 c 0
 204.798828125 407.6796875 198.859375 401.741210938 191.534179688 401.741210938 c 0
 184.209960938 401.741210938 178.270507812 407.6796875 178.270507812 415.004882812 c 0
139.12890625 282.837890625 m 0
 139.12890625 290.163085938 145.067382812 296.1015625 152.392578125 296.1015625 c 0
 159.717773438 296.1015625 165.65625 290.163085938 165.65625 282.837890625 c 0
 165.65625 275.512695312 159.717773438 269.57421875 152.392578125 269.57421875 c 0
 145.067382812 269.57421875 139.12890625 275.512695312 139.12890625 282.837890625 c 0
202.267578125 516.712890625 m 0
 202.267578125 524.038085938 208.206054688 529.9765625 215.53125 529.9765625 c 0
 222.856445312 529.9765625 228.794921875 524.038085938 228.794921875 516.712890625 c 0
 228.794921875 509.387695312 222.856445312 503.44921875 215.53125 503.44921875 c 0
 208.206054688 503.44921875 202.267578125 509.387695312 202.267578125 516.712890625 c 0
298.254882812 538.741210938 m 0
 298.254882812 546.06640625 304.193359375 552.004882812 311.518554688 552.004882812 c 0
 318.84375 552.004882812 324.782226562 546.06640625 324.782226562 538.741210938 c 0
 324.782226562 531.416015625 318.84375 525.477539062 311.518554688 525.477539062 c 0
 304.193359375 525.477539062 298.254882812 531.416015625 298.254882812 538.741210938 c 0
279.924804688 461.177734375 m 0
 279.924804688 468.502929688 285.86328125 474.44140625 293.188476562 474.44140625 c 0
 300.513671875 474.44140625 306.452148438 468.502929688 306.452148438 461.177734375 c 0
 306.452148438 453.852539062 300.513671875 447.9140625 293.188476562 447.9140625 c 0
 285.86328125 447.9140625 279.924804688 453.852539062 279.924804688 461.177734375 c 0
364.305664062 422.182617188 m 0
 364.305664062 429.5078125 370.244140625 435.446289062 377.569335938 435.446289062 c 0
 384.89453125 435.446289062 390.833007812 429.5078125 390.833007812 422.182617188 c 0
 390.833007812 414.857421875 384.89453125 408.918945312 377.569335938 408.918945312 c 0
 370.244140625 408.918945312 364.305664062 414.857421875 364.305664062 422.182617188 c 0
388.662109375 315.956054688 m 0
 388.662109375 323.28125 394.600585938 329.21875 401.92578125 329.21875 c 0
 409.250976562 329.21875 415.189453125 323.28125 415.189453125 315.956054688 c 0
 415.189453125 308.630859375 409.250976562 302.692382812 401.92578125 302.692382812 c 0
 394.600585938 302.692382812 388.662109375 308.630859375 388.662109375 315.956054688 c 0
478.770507812 316.671875 m 0
 478.770507812 323.997070312 484.708984375 329.935546875 492.034179688 329.935546875 c 0
 499.359375 329.935546875 505.297851562 323.997070312 505.297851562 316.671875 c 0
 505.297851562 309.346679688 499.359375 303.408203125 492.034179688 303.408203125 c 0
 484.708984375 303.408203125 478.770507812 309.346679688 478.770507812 316.671875 c 0
444.592773438 475.983398438 m 0
 444.592773438 483.30859375 450.53125 489.247070312 457.856445312 489.247070312 c 0
 465.181640625 489.247070312 471.120117188 483.30859375 471.120117188 475.983398438 c 0
 471.120117188 468.658203125 465.181640625 462.719726562 457.856445312 462.719726562 c 0
 450.53125 462.719726562 444.592773438 468.658203125 444.592773438 475.983398438 c 0
EndSplineSet
Validated: 1
Layer: 2
EndChar

StartChar: i
Encoding: 73 105 71
Width: 223
Flags: HMW
HStem: 0 21G<68 158 68 68> 500 20G<68 158 158 158> 619 101<68 158 68 158>
VStem: 68 90<0 520 619 720>
LayerCount: 3
Back
SplineSet
132.432617188 600 m 1
 87.107421875 599.754882812 l 1
 54.900390625 634.799804688 l 1
 54.677734375 684.607421875 l 1
 86.5673828125 720 l 1
 131.892578125 720.245117188 l 1
 164.099609375 685.200195312 l 1
 164.322265625 635.392578125 l 1
 132.432617188 600 l 1
155 0 m 1
 65 0 l 1
 65 520 l 1
 155 520 l 1
 155 0 l 1
EndSplineSet
Fore
SplineSet
99.5625 721.19140625 m 0
 99.5625 713.840820312 93.6025390625 707.8828125 86.2529296875 707.8828125 c 0
 78.9033203125 707.8828125 72.9443359375 713.840820312 72.9443359375 721.19140625 c 0
 72.9443359375 728.541992188 78.9033203125 734.5 86.2529296875 734.5 c 0
 93.6025390625 734.5 99.5625 728.541992188 99.5625 721.19140625 c 0
145.586914062 721.399414062 m 0
 145.586914062 714.048828125 139.627929688 708.090820312 132.278320312 708.090820312 c 0
 129.763932726 708.090820312 127.412304496 708.788148148 125.406356874 709.999999877 c 0
 121.54887615 712.330416998 118.969726562 716.563549805 118.969726562 721.399414062 c 0
 118.969726562 728.75 124.928710938 734.708007812 132.278320312 734.708007812 c 0
 139.627929688 734.708007812 145.586914062 728.75 145.586914062 721.399414062 c 0
99.8095703125 598.75 m 0
 99.8095703125 591.399414062 93.8505859375 585.44140625 86.5 585.44140625 c 0
 79.150390625 585.44140625 73.19140625 591.399414062 73.19140625 598.75 c 0
 73.19140625 606.100585938 79.150390625 612.05859375 86.5 612.05859375 c 0
 93.8505859375 612.05859375 99.8095703125 606.100585938 99.8095703125 598.75 c 0
146.05859375 598.75 m 0
 146.05859375 591.399414062 140.099609375 585.44140625 132.75 585.44140625 c 0
 125.400390625 585.44140625 119.44140625 591.399414062 119.44140625 598.75 c 0
 119.44140625 606.100585938 125.400390625 612.05859375 132.75 612.05859375 c 0
 140.099609375 612.05859375 146.05859375 606.100585938 146.05859375 598.75 c 0
53.6455078125 671.547851562 m 0
 46.2958984375 671.547851562 40.3369140625 677.506835938 40.3369140625 684.857421875 c 0
 40.3369140625 692.20703125 46.2958984375 698.166015625 53.6455078125 698.166015625 c 0
 60.99609375 698.166015625 66.9541015625 692.20703125 66.9541015625 684.857421875 c 0
 66.9541015625 677.506835938 60.99609375 671.547851562 53.6455078125 671.547851562 c 0
53.8349609375 620.712890625 m 0
 46.484375 620.712890625 40.5263671875 626.671875 40.5263671875 634.021484375 c 0
 40.5263671875 641.37109375 46.484375 647.330078125 53.8349609375 647.330078125 c 0
 61.185546875 647.330078125 67.1435546875 641.37109375 67.1435546875 634.021484375 c 0
 67.1435546875 626.671875 61.185546875 620.712890625 53.8349609375 620.712890625 c 0
165.25 671.69140625 m 0
 157.900390625 671.69140625 151.94140625 677.650390625 151.94140625 685.000976562 c 0
 151.94140625 692.350585938 157.900390625 698.309570312 165.25 698.309570312 c 0
 172.600585938 698.309570312 178.55859375 692.350585938 178.55859375 685.000976562 c 0
 178.55859375 677.650390625 172.600585938 671.69140625 165.25 671.69140625 c 0
165.25 620.69140625 m 0
 157.899414062 620.69140625 151.94140625 626.650390625 151.94140625 634.000976562 c 0
 151.94140625 641.350585938 157.899414062 647.309570312 165.25 647.309570312 c 0
 172.600585938 647.309570312 178.55859375 641.350585938 178.55859375 634.000976562 c 0
 178.55859375 626.650390625 172.600585938 620.69140625 165.25 620.69140625 c 0
51.2177734375 0.0126953125 m 0
 51.2177734375 7.337890625 57.1572265625 13.2763671875 64.4814453125 13.2763671875 c 0
 71.806640625 13.2763671875 77.7451171875 7.337890625 77.7451171875 0.0126953125 c 0
 77.7451171875 -7.3125 71.806640625 -13.2509765625 64.4814453125 -13.2509765625 c 0
 57.1572265625 -13.2509765625 51.2177734375 -7.3125 51.2177734375 0.0126953125 c 0
141.736328125 0.0126953125 m 0
 141.736328125 7.337890625 147.67578125 13.2763671875 155 13.2763671875 c 0
 162.325195312 13.2763671875 168.263671875 7.337890625 168.263671875 0.0126953125 c 0
 168.263671875 -7.3125 162.325195312 -13.25 155 -13.25 c 0
 147.67578125 -13.25 141.736328125 -7.3125 141.736328125 0.0126953125 c 0
51.736328125 520.012695312 m 0
 51.736328125 527.337890625 57.67578125 533.276367188 65 533.276367188 c 0
 72.3251953125 533.276367188 78.263671875 527.337890625 78.263671875 520.012695312 c 0
 78.263671875 512.6875 72.3251953125 506.75 65 506.75 c 0
 57.67578125 506.75 51.736328125 512.6875 51.736328125 520.012695312 c 0
141.736328125 520.012695312 m 0
 141.736328125 527.337890625 147.67578125 533.276367188 155 533.276367188 c 0
 162.325195312 533.276367188 168.263671875 527.337890625 168.263671875 520.012695312 c 0
 168.263671875 512.6875 162.325195312 506.75 155 506.75 c 0
 147.67578125 506.75 141.736328125 512.6875 141.736328125 520.012695312 c 0
EndSplineSet
Validated: 1
Layer: 2
EndChar

StartChar: j
Encoding: 74 106 72
Width: 220
Flags: HMW
HStem: -210 79<1 31 -3 69> 500 20G<65 155 155 155> 619 101<65 155 65 155>
VStem: 65 90<-26 520 619 720>
LayerCount: 3
Back
SplineSet
132.432617188 600 m 1
 87.107421875 599.754882812 l 1
 54.900390625 634.799804688 l 1
 54.677734375 684.607421875 l 1
 86.5673828125 720 l 1
 131.892578125 720.245117188 l 1
 164.099609375 685.200195312 l 1
 164.322265625 635.392578125 l 1
 132.432617188 600 l 1
-34.15234375 -124.903320312 m 1
 12 -132 l 1
 55.201171875 -98.322265625 l 1
 64.98828125 12.1337890625 l 1
 64.98828125 520 l 1
 154.956054688 520 l 1
 154.5390625 -29.8408203125 l 1
 125.9453125 -158.732421875 l 1
 12.9541015625 -210.00390625 l 1
 -52 -199.998046875 l 1
 -34.15625 -124.870117188 l 1
 -34.15234375 -124.903320312 l 1
EndSplineSet
Fore
SplineSet
99.5625 721.19140625 m 0
 99.5625 713.840820312 93.6025390625 707.8828125 86.2529296875 707.8828125 c 0
 78.9033203125 707.8828125 72.9443359375 713.840820312 72.9443359375 721.19140625 c 0
 72.9443359375 728.541992188 78.9033203125 734.5 86.2529296875 734.5 c 0
 93.6025390625 734.5 99.5625 728.541992188 99.5625 721.19140625 c 0
145.586914062 721.399414062 m 0
 145.586914062 714.048828125 139.627929688 708.090820312 132.278320312 708.090820312 c 0
 124.928710938 708.090820312 118.969726562 714.048828125 118.969726562 721.399414062 c 0
 118.969726562 728.75 124.928710938 734.708007812 132.278320312 734.708007812 c 0
 139.627929688 734.708007812 145.586914062 728.75 145.586914062 721.399414062 c 0
99.8095703125 598.75 m 0
 99.8095703125 591.399414062 93.8505859375 585.44140625 86.5 585.44140625 c 0
 79.150390625 585.44140625 73.19140625 591.399414062 73.19140625 598.75 c 0
 73.19140625 606.100585938 79.150390625 612.05859375 86.5 612.05859375 c 0
 93.8505859375 612.05859375 99.8095703125 606.100585938 99.8095703125 598.75 c 0
146.05859375 598.75 m 0
 146.05859375 591.399414062 140.099609375 585.44140625 132.75 585.44140625 c 0
 125.400390625 585.44140625 119.44140625 591.399414062 119.44140625 598.75 c 0
 119.44140625 606.100585938 125.400390625 612.05859375 132.75 612.05859375 c 0
 140.099609375 612.05859375 146.05859375 606.100585938 146.05859375 598.75 c 0
53.6455078125 671.547851562 m 0
 46.2958984375 671.547851562 40.3369140625 677.506835938 40.3369140625 684.857421875 c 0
 40.3369140625 692.20703125 46.2958984375 698.166015625 53.6455078125 698.166015625 c 0
 60.99609375 698.166015625 66.9541015625 692.20703125 66.9541015625 684.857421875 c 0
 66.9541015625 677.506835938 60.99609375 671.547851562 53.6455078125 671.547851562 c 0
53.8349609375 620.712890625 m 0
 46.484375 620.712890625 40.5263671875 626.671875 40.5263671875 634.021484375 c 0
 40.5263671875 641.37109375 46.484375 647.330078125 53.8349609375 647.330078125 c 0
 61.185546875 647.330078125 67.1435546875 641.37109375 67.1435546875 634.021484375 c 0
 67.1435546875 626.671875 61.185546875 620.712890625 53.8349609375 620.712890625 c 0
165.25 671.69140625 m 0
 157.900390625 671.69140625 151.94140625 677.650390625 151.94140625 685.000976562 c 0
 151.94140625 692.350585938 157.900390625 698.309570312 165.25 698.309570312 c 0
 172.600585938 698.309570312 178.55859375 692.350585938 178.55859375 685.000976562 c 0
 178.55859375 677.650390625 172.600585938 671.69140625 165.25 671.69140625 c 0
165.25 620.69140625 m 0
 157.899414062 620.69140625 151.94140625 626.650390625 151.94140625 634.000976562 c 0
 151.94140625 641.350585938 157.899414062 647.309570312 165.25 647.309570312 c 0
 172.600585938 647.309570312 178.55859375 641.350585938 178.55859375 634.000976562 c 0
 178.55859375 626.650390625 172.600585938 620.69140625 165.25 620.69140625 c 0
51.75 520 m 0
 51.75 527.325195312 57.6884765625 533.263671875 65.013671875 533.263671875 c 0
 72.3388671875 533.263671875 78.27734375 527.325195312 78.27734375 520 c 0
 78.27734375 512.674804688 72.3388671875 506.736328125 65.013671875 506.736328125 c 0
 57.6884765625 506.736328125 51.75 512.674804688 51.75 520 c 0
141.75 520 m 0
 141.75 527.325195312 147.688476562 533.263671875 155.013671875 533.263671875 c 0
 162.338867188 533.263671875 168.27734375 527.325195312 168.27734375 520 c 0
 168.27734375 512.674804688 162.338867188 506.736328125 155.013671875 506.736328125 c 0
 147.688476562 506.736328125 141.75 512.674804688 141.75 520 c 0
52.162109375 12.1337890625 m 0
 52.162109375 19.458984375 58.1005859375 25.3974609375 65.42578125 25.3974609375 c 0
 72.7509765625 25.3974609375 78.689453125 19.458984375 78.689453125 12.1337890625 c 0
 78.689453125 4.80859375 72.7509765625 -1.12890625 65.42578125 -1.12890625 c 0
 58.1005859375 -1.12890625 52.162109375 4.80859375 52.162109375 12.1337890625 c 0
141.712890625 -29.8408203125 m 0
 141.712890625 -22.515625 147.651367188 -16.578125 154.9765625 -16.578125 c 0
 162.301757812 -16.578125 168.240234375 -22.515625 168.240234375 -29.8408203125 c 0
 168.240234375 -37.166015625 162.301757812 -43.1044921875 154.9765625 -43.1044921875 c 0
 147.651367188 -43.1044921875 141.712890625 -37.166015625 141.712890625 -29.8408203125 c 0
113.119140625 -158.731445312 m 0
 113.119140625 -151.40625 119.057617188 -145.46875 126.3828125 -145.46875 c 0
 133.708007812 -145.46875 139.646484375 -151.40625 139.646484375 -158.731445312 c 0
 139.646484375 -166.056640625 133.708007812 -171.995117188 126.3828125 -171.995117188 c 0
 119.057617188 -171.995117188 113.119140625 -166.056640625 113.119140625 -158.731445312 c 0
42.375 -98.3212890625 m 0
 42.375 -90.99609375 48.3134765625 -85.05859375 55.638671875 -85.05859375 c 0
 62.9638671875 -85.05859375 68.90234375 -90.99609375 68.90234375 -98.3212890625 c 0
 68.90234375 -105.647460938 62.9638671875 -111.584960938 55.638671875 -111.584960938 c 0
 48.3134765625 -111.584960938 42.375 -105.647460938 42.375 -98.3212890625 c 0
-0.826171875 -131.999023438 m 0
 -0.826171875 -124.673828125 5.1123046875 -118.736328125 12.4375 -118.736328125 c 0
 19.7626953125 -118.736328125 25.701171875 -124.673828125 25.701171875 -131.999023438 c 0
 25.701171875 -139.32421875 19.7626953125 -145.262695312 12.4375 -145.262695312 c 0
 5.1123046875 -145.262695312 -0.826171875 -139.32421875 -0.826171875 -131.999023438 c 0
-46.982421875 -124.870117188 m 0
 -46.982421875 -117.544921875 -41.0439453125 -111.607421875 -33.71875 -111.607421875 c 0
 -26.3935546875 -111.607421875 -20.455078125 -117.544921875 -20.455078125 -124.870117188 c 0
 -20.455078125 -132.1953125 -26.3935546875 -138.133789062 -33.71875 -138.133789062 c 0
 -41.0439453125 -138.133789062 -46.982421875 -132.1953125 -46.982421875 -124.870117188 c 0
-64.826171875 -199.997070312 m 0
 -64.826171875 -192.671875 -58.8876953125 -186.734375 -51.5625 -186.734375 c 0
 -44.2373046875 -186.734375 -38.298828125 -192.671875 -38.298828125 -199.997070312 c 0
 -38.298828125 -207.322265625 -44.2373046875 -213.260742188 -51.5625 -213.260742188 c 0
 -58.8876953125 -213.260742188 -64.826171875 -207.322265625 -64.826171875 -199.997070312 c 0
0.1279296875 -210.002929688 m 0
 0.1279296875 -202.677734375 6.06640625 -196.740234375 13.3916015625 -196.740234375 c 0
 20.716796875 -196.740234375 26.6552734375 -202.677734375 26.6552734375 -210.002929688 c 0
 26.6552734375 -217.328125 20.716796875 -223.266601562 13.3916015625 -223.266601562 c 0
 6.06640625 -223.266601562 0.1279296875 -217.328125 0.1279296875 -210.002929688 c 0
EndSplineSet
Validated: 1
Layer: 2
EndChar

StartChar: k
Encoding: 75 107 73
Width: 506
Flags: HMW
HStem: 0 21G<65 65 65 155 381 381 381 486> 225 75<155 187 187 197 155 187> 437 83<414.5 463 445 463 445 463> 700 20G<65 155 155 155>
VStem: 65 90<0 225 300 720>
LayerCount: 3
Back
SplineSet
282 269 m 1
 282 265 l 1
 342.291015625 232.337890625 l 1
 394.680664062 169.317382812 l 1
 467 37 l 1
 386 -8 l 1
 298.661132812 156.049804688 l 1
 253.116210938 207.173828125 l 1
 197.622070312 225.000976562 l 1
 154.7578125 225.000976562 l 1
 154.7578125 0.0009765625 l 1
 65 0.0009765625 l 1
 65.083984375 720.000976562 l 1
 108.958984375 720.043945312 l 1
 154.842773438 720.043945312 l 1
 154.842773438 300 l 1
 187.501953125 300 l 1
 234.36328125 307.69140625 l 1
 277.3984375 347.876953125 l 1
 333.530273438 470.262695312 l 1
 380.690429688 515.552734375 l 1
 469.098632812 523.291015625 l 1
 469.098632812 523.291015625 l 1
 469.098632812 438.66796875 l 1
 443.66796875 438.66796875 l 1
 398.231445312 420.041992188 l 5
 336.688476562 300.709960938 l 5
 282 269 l 1
EndSplineSet
Fore
SplineSet
51.72265625 0.25 m 4
 51.72265625 7.5751953125 57.6611328125 13.513671875 64.986328125 13.513671875 c 4
 72.3115234375 13.513671875 78.25 7.5751953125 78.25 0.25 c 4
 78.25 -7.0751953125 72.3115234375 -13.0126953125 64.986328125 -13.0126953125 c 4
 57.6611328125 -13.0126953125 51.72265625 -7.0751953125 51.72265625 0.25 c 4
141.565429688 0.25 m 4
 141.565429688 7.5751953125 147.50390625 13.513671875 154.829101562 13.513671875 c 4
 162.154296875 13.513671875 168.092773438 7.5751953125 168.092773438 0.25 c 4
 168.092773438 -7.0751953125 162.154296875 -13.0126953125 154.829101562 -13.0126953125 c 4
 147.50390625 -13.0126953125 141.565429688 -7.0751953125 141.565429688 0.25 c 4
141.565429688 225.25 m 4
 141.565429688 232.575195312 147.50390625 238.513671875 154.829101562 238.513671875 c 4
 162.154296875 238.513671875 168.092773438 232.575195312 168.092773438 225.25 c 4
 168.092773438 217.924804688 162.154296875 211.987304688 154.829101562 211.987304688 c 4
 147.50390625 211.987304688 141.565429688 217.924804688 141.565429688 225.25 c 4
141.48046875 300.25 m 4
 141.48046875 307.575195312 147.418945312 313.513671875 154.744140625 313.513671875 c 4
 162.069335938 313.513671875 168.0078125 307.575195312 168.0078125 300.25 c 4
 168.0078125 292.924804688 162.069335938 286.987304688 154.744140625 286.987304688 c 4
 147.418945312 286.987304688 141.48046875 292.924804688 141.48046875 300.25 c 4
141.48046875 720.29296875 m 4
 141.48046875 727.618164062 147.418945312 733.556640625 154.744140625 733.556640625 c 4
 162.069335938 733.556640625 168.0078125 727.618164062 168.0078125 720.29296875 c 4
 168.0078125 712.967773438 162.069335938 707.030273438 154.744140625 707.030273438 c 4
 147.418945312 707.030273438 141.48046875 712.967773438 141.48046875 720.29296875 c 4
51.806640625 720.25 m 4
 51.806640625 727.575195312 57.7451171875 733.513671875 65.0703125 733.513671875 c 4
 72.3955078125 733.513671875 78.333984375 727.575195312 78.333984375 720.25 c 4
 78.333984375 712.924804688 72.3955078125 706.987304688 65.0703125 706.987304688 c 4
 57.7451171875 706.987304688 51.806640625 712.924804688 51.806640625 720.25 c 4
174.224609375 300.25 m 4
 174.224609375 307.575195312 180.163085938 313.513671875 187.48828125 313.513671875 c 4
 194.813476562 313.513671875 200.751953125 307.575195312 200.751953125 300.25 c 4
 200.751953125 292.924804688 194.813476562 286.987304688 187.48828125 286.987304688 c 4
 180.163085938 286.987304688 174.224609375 292.924804688 174.224609375 300.25 c 4
221.0859375 307.94140625 m 4
 221.0859375 315.266601562 227.024414062 321.205078125 234.349609375 321.205078125 c 4
 241.674804688 321.205078125 247.61328125 315.266601562 247.61328125 307.94140625 c 4
 247.61328125 300.616210938 241.674804688 294.678710938 234.349609375 294.678710938 c 4
 227.024414062 294.678710938 221.0859375 300.616210938 221.0859375 307.94140625 c 4
264.12109375 348.126953125 m 4
 264.12109375 355.452148438 270.059570312 361.390625 277.384765625 361.390625 c 4
 284.709960938 361.390625 290.6484375 355.452148438 290.6484375 348.126953125 c 4
 290.6484375 340.801757812 284.709960938 334.86328125 277.384765625 334.86328125 c 4
 270.059570312 334.86328125 264.12109375 340.801757812 264.12109375 348.126953125 c 4
320.252929688 470.512695312 m 4
 320.252929688 477.837890625 326.19140625 483.775390625 333.516601562 483.775390625 c 4
 340.841796875 483.775390625 346.780273438 477.837890625 346.780273438 470.512695312 c 4
 346.780273438 463.186523438 340.841796875 457.249023438 333.516601562 457.249023438 c 4
 326.19140625 457.249023438 320.252929688 463.186523438 320.252929688 470.512695312 c 4
367.413085938 515.801757812 m 4
 367.413085938 523.126953125 373.3515625 529.065429688 380.676757812 529.065429688 c 4
 388.001953125 529.065429688 393.940429688 523.126953125 393.940429688 515.801757812 c 4
 393.940429688 508.4765625 388.001953125 502.5390625 380.676757812 502.5390625 c 4
 373.3515625 502.5390625 367.413085938 508.4765625 367.413085938 515.801757812 c 4
455.821289062 523.540039062 m 4
 455.821289062 530.865234375 461.759765625 536.803710938 469.084960938 536.803710938 c 4
 476.41015625 536.803710938 482.348632812 530.865234375 482.348632812 523.540039062 c 4
 482.348632812 516.21484375 476.41015625 510.27734375 469.084960938 510.27734375 c 4
 461.759765625 510.27734375 455.821289062 516.21484375 455.821289062 523.540039062 c 4
455.821289062 438.916992188 m 4
 455.821289062 446.2421875 461.759765625 452.180664062 469.084960938 452.180664062 c 4
 476.41015625 452.180664062 482.348632812 446.2421875 482.348632812 438.916992188 c 4
 482.348632812 431.591796875 476.41015625 425.654296875 469.084960938 425.654296875 c 4
 461.759765625 425.654296875 455.821289062 431.591796875 455.821289062 438.916992188 c 4
430.390625 438.916992188 m 4
 430.390625 446.2421875 436.329101562 452.180664062 443.654296875 452.180664062 c 4
 450.979492188 452.180664062 456.91796875 446.2421875 456.91796875 438.916992188 c 4
 456.91796875 431.591796875 450.979492188 425.654296875 443.654296875 425.654296875 c 4
 436.329101562 425.654296875 430.390625 431.591796875 430.390625 438.916992188 c 4
384.954101562 420.291015625 m 4
 384.954101562 427.616210938 390.892578125 433.5546875 398.217773438 433.5546875 c 4
 405.54296875 433.5546875 411.481445312 427.616210938 411.481445312 420.291015625 c 4
 411.481445312 412.965820312 405.54296875 407.028320312 398.217773438 407.028320312 c 4
 390.892578125 407.028320312 384.954101562 412.965820312 384.954101562 420.291015625 c 4
323.411132812 300.958984375 m 4
 323.411132812 308.284179688 329.349609375 314.22265625 336.674804688 314.22265625 c 4
 344 314.22265625 349.938476562 308.284179688 349.938476562 300.958984375 c 4
 349.938476562 293.633789062 344 287.696289062 336.674804688 287.696289062 c 4
 329.349609375 287.696289062 323.411132812 293.633789062 323.411132812 300.958984375 c 4
268.72265625 267.25 m 4
 268.72265625 274.575195312 274.661132812 280.512695312 281.986328125 280.512695312 c 4
 289.311523438 280.512695312 295.25 274.575195312 295.25 267.25 c 4
 295.25 259.924804688 289.311523438 253.986328125 281.986328125 253.986328125 c 4
 274.661132812 253.986328125 268.72265625 259.924804688 268.72265625 267.25 c 4
329.013671875 232.587890625 m 4
 329.013671875 239.913085938 334.952148438 245.850585938 342.27734375 245.850585938 c 4
 349.602539062 245.850585938 355.541015625 239.913085938 355.541015625 232.587890625 c 4
 355.541015625 225.262695312 349.602539062 219.32421875 342.27734375 219.32421875 c 4
 334.952148438 219.32421875 329.013671875 225.262695312 329.013671875 232.587890625 c 4
184.344726562 225.25 m 4
 184.344726562 232.575195312 190.283203125 238.513671875 197.608398438 238.513671875 c 4
 204.93359375 238.513671875 210.872070312 232.575195312 210.872070312 225.25 c 4
 210.872070312 217.924804688 204.93359375 211.987304688 197.608398438 211.987304688 c 4
 190.283203125 211.987304688 184.344726562 217.924804688 184.344726562 225.25 c 4
239.838867188 207.422851562 m 4
 239.838867188 214.748046875 245.77734375 220.686523438 253.102539062 220.686523438 c 4
 260.427734375 220.686523438 266.366210938 214.748046875 266.366210938 207.422851562 c 4
 266.366210938 200.09765625 260.427734375 194.16015625 253.102539062 194.16015625 c 4
 245.77734375 194.16015625 239.838867188 200.09765625 239.838867188 207.422851562 c 4
285.383789062 156.298828125 m 4
 285.383789062 163.624023438 291.322265625 169.5625 298.647460938 169.5625 c 4
 305.97265625 169.5625 311.911132812 163.624023438 311.911132812 156.298828125 c 4
 311.911132812 148.973632812 305.97265625 143.036132812 298.647460938 143.036132812 c 4
 291.322265625 143.036132812 285.383789062 148.973632812 285.383789062 156.298828125 c 4
381.403320312 169.567382812 m 4
 381.403320312 176.892578125 387.341796875 182.830078125 394.666992188 182.830078125 c 4
 401.9921875 182.830078125 407.930664062 176.892578125 407.930664062 169.567382812 c 4
 407.930664062 162.2421875 401.9921875 156.303710938 394.666992188 156.303710938 c 4
 387.341796875 156.303710938 381.403320312 162.2421875 381.403320312 169.567382812 c 4
453.72265625 37.25 m 4
 453.72265625 44.5751953125 459.661132812 50.513671875 466.986328125 50.513671875 c 4
 474.311523438 50.513671875 480.25 44.5751953125 480.25 37.25 c 4
 480.25 29.9248046875 474.311523438 23.986328125 466.986328125 23.986328125 c 4
 459.661132812 23.986328125 453.72265625 29.9248046875 453.72265625 37.25 c 4
372.72265625 -7.75 m 4
 372.72265625 -0.4248046875 378.661132812 5.513671875 385.986328125 5.513671875 c 4
 393.311523438 5.513671875 399.25 -0.4248046875 399.25 -7.75 c 4
 399.25 -15.0751953125 393.311523438 -21.013671875 385.986328125 -21.013671875 c 4
 378.661132812 -21.013671875 372.72265625 -15.0751953125 372.72265625 -7.75 c 4
EndSplineSet
Validated: 5
Layer: 2
EndChar

StartChar: l
Encoding: 76 108 74
Width: 220
Flags: HMW
HStem: 0 21G<65 155 65 65> 715 20G<155 155>
VStem: 65 90<0 695 695 695>
LayerCount: 3
Back
SplineSet
155 0 m 5
 65 0 l 5
 65 720 l 5
 155 720 l 5
 155 0 l 5
EndSplineSet
Fore
SplineSet
51.72265625 720 m 4
 51.72265625 727.325195312 57.6611328125 733.263671875 64.986328125 733.263671875 c 4
 72.3115234375 733.263671875 78.25 727.325195312 78.25 720 c 4
 78.25 712.674804688 72.3115234375 706.736328125 64.986328125 706.736328125 c 4
 57.6611328125 706.736328125 51.72265625 712.674804688 51.72265625 720 c 4
141.72265625 720 m 4
 141.72265625 727.325195312 147.661132812 733.263671875 154.986328125 733.263671875 c 4
 162.311523438 733.263671875 168.25 727.325195312 168.25 720 c 4
 168.25 712.674804688 162.311523438 706.736328125 154.986328125 706.736328125 c 4
 147.661132812 706.736328125 141.72265625 712.674804688 141.72265625 720 c 4
51.72265625 0 m 4
 51.72265625 7.3251953125 57.6611328125 13.263671875 64.986328125 13.263671875 c 4
 72.3115234375 13.263671875 78.25 7.3251953125 78.25 0 c 4
 78.25 -7.3251953125 72.3115234375 -13.263671875 64.986328125 -13.263671875 c 4
 57.6611328125 -13.263671875 51.72265625 -7.3251953125 51.72265625 0 c 4
141.72265625 0 m 4
 141.72265625 7.3251953125 147.661132812 13.263671875 154.986328125 13.263671875 c 4
 162.311523438 13.263671875 168.25 7.3251953125 168.25 0 c 4
 168.25 -7.3251953125 162.311523438 -13.263671875 154.986328125 -13.263671875 c 4
 147.661132812 -13.263671875 141.72265625 -7.3251953125 141.72265625 0 c 4
EndSplineSet
Validated: 1
Layer: 2
EndChar

StartChar: m
Encoding: 77 109 75
Width: 839
Flags: HMW
HStem: 0 21G<65.3623 155.362 65.3623 65.3623 375.362 375.362 375.362 465.362 684.362 684.362 684.362 774.362> 459 61 459 76<268.862 313.862 578.862 630.862>
VStem: 65.3623 90<0 269> 375.362 90<0 301 0 337 0 376> 684.362 90<0 327 327 356 0 361.5>
LayerCount: 3
Back
SplineSet
60.318359375 0 m 1
 60.5205078125 520 l 1
 141.520507812 520 l 1
 141.520507812 446 l 1
 208.995117188 519.471679688 l 1
 303.41796875 539.8828125 l 1
 398.166015625 514.716796875 l 1
 450.716796875 439 l 1
 521.986328125 517.8125 l 1
 615.836914062 540.350585938 l 1
 739.775390625 493.446289062 l 1
 780 362 l 1
 780 0 l 1
 690 0 l 1
 690 329.931640625 l 1
 672.791992188 421.877929688 l 1
 596.439453125 462.787109375 l 1
 496.889648438 414.734375 l 1
 464.716796875 301.000976562 l 1
 464.716796875 0.0009765625 l 1
 374.716796875 0.0009765625 l 1
 374.716796875 340.11328125 l 1
 351.598632812 430.391601562 l 1
 281.272460938 462.787109375 l 1
 175.078125 402.232421875 l 1
 150.520507812 269.000976562 l 1
 150.520507812 0.0009765625 l 1
 60.318359375 0.0009765625 l 1
 60.318359375 0 l 1
EndSplineSet
Fore
SplineSet
46.986328125 0.013671875 m 0x9c
 46.986328125 7.3388671875 52.9248046875 13.2763671875 60.25 13.2763671875 c 0
 67.5751953125 13.2763671875 73.513671875 7.3388671875 73.513671875 0.013671875 c 0
 73.513671875 -7.3115234375 67.5751953125 -13.25 60.25 -13.25 c 0
 52.9248046875 -13.25 46.986328125 -7.3115234375 46.986328125 0.013671875 c 0x9c
137.188476562 0.013671875 m 0
 137.188476562 7.3388671875 143.126953125 13.2763671875 150.452148438 13.2763671875 c 0
 157.77734375 13.2763671875 163.715820312 7.3388671875 163.715820312 0.013671875 c 0
 163.715820312 -7.3125 157.77734375 -13.25 150.452148438 -13.25 c 0
 143.126953125 -13.25 137.188476562 -7.3125 137.188476562 0.013671875 c 0
361.384765625 0.013671875 m 0
 361.384765625 7.3388671875 367.323242188 13.2763671875 374.6484375 13.2763671875 c 0
 381.97265625 13.2763671875 387.912109375 7.3388671875 387.912109375 0.013671875 c 0
 387.912109375 -7.3125 381.97265625 -13.25 374.6484375 -13.25 c 0
 367.323242188 -13.25 361.384765625 -7.3125 361.384765625 0.013671875 c 0
451.5859375 0.0126953125 m 0
 451.5859375 7.337890625 457.525390625 13.2763671875 464.849609375 13.2763671875 c 0
 472.174804688 13.2763671875 478.11328125 7.337890625 478.11328125 0.0126953125 c 0
 478.11328125 -7.3125 472.174804688 -13.25 464.849609375 -13.25 c 0
 457.525390625 -13.25 451.5859375 -7.3125 451.5859375 0.0126953125 c 0
676.465820312 0.013671875 m 0
 676.465820312 7.3388671875 682.404296875 13.2763671875 689.729492188 13.2763671875 c 0
 697.0546875 13.2763671875 702.993164062 7.3388671875 702.993164062 0.013671875 c 0
 702.993164062 -7.3115234375 697.0546875 -13.25 689.729492188 -13.25 c 0
 682.404296875 -13.25 676.465820312 -7.3115234375 676.465820312 0.013671875 c 0
766.66796875 0.013671875 m 0
 766.66796875 7.3388671875 772.606445312 13.2763671875 779.931640625 13.2763671875 c 0
 787.255859375 13.2763671875 793.1953125 7.3388671875 793.1953125 0.013671875 c 0
 793.1953125 -7.3125 787.255859375 -13.25 779.931640625 -13.25 c 0
 772.606445312 -13.25 766.66796875 -7.3125 766.66796875 0.013671875 c 0
137.188476562 269.013671875 m 0
 137.188476562 276.338867188 143.126953125 282.27734375 150.452148438 282.27734375 c 0
 157.77734375 282.27734375 163.715820312 276.338867188 163.715820312 269.013671875 c 0
 163.715820312 261.688476562 157.77734375 255.750976562 150.452148438 255.750976562 c 0
 143.126953125 255.750976562 137.188476562 261.688476562 137.188476562 269.013671875 c 0
161.74609375 402.245117188 m 0
 161.74609375 409.5703125 167.684570312 415.508789062 175.009765625 415.508789062 c 0
 182.334960938 415.508789062 188.2734375 409.5703125 188.2734375 402.245117188 c 0
 188.2734375 394.919921875 182.334960938 388.981445312 175.009765625 388.981445312 c 0
 167.684570312 388.981445312 161.74609375 394.919921875 161.74609375 402.245117188 c 0
128.188476562 446.012695312 m 0
 128.188476562 453.337890625 134.126953125 459.276367188 141.452148438 459.276367188 c 0
 148.77734375 459.276367188 154.715820312 453.337890625 154.715820312 446.012695312 c 0
 154.715820312 438.6875 148.77734375 432.749023438 141.452148438 432.749023438 c 0
 134.126953125 432.749023438 128.188476562 438.6875 128.188476562 446.012695312 c 0
128.188476562 520.012695312 m 0
 128.188476562 527.337890625 134.126953125 533.276367188 141.452148438 533.276367188 c 0
 148.77734375 533.276367188 154.715820312 527.337890625 154.715820312 520.012695312 c 0
 154.715820312 512.6875 148.77734375 506.749023438 141.452148438 506.749023438 c 0
 134.126953125 506.749023438 128.188476562 512.6875 128.188476562 520.012695312 c 0
47.1884765625 520.012695312 m 0
 47.1884765625 527.337890625 53.126953125 533.276367188 60.4521484375 533.276367188 c 0
 67.77734375 533.276367188 73.7158203125 527.337890625 73.7158203125 520.012695312 c 0
 73.7158203125 512.6875 67.77734375 506.749023438 60.4521484375 506.749023438 c 0
 53.126953125 506.749023438 47.1884765625 512.6875 47.1884765625 520.012695312 c 0
195.663085938 519.484375 m 0
 195.663085938 526.809570312 201.6015625 532.748046875 208.926757812 532.748046875 c 0
 216.251953125 532.748046875 222.190429688 526.809570312 222.190429688 519.484375 c 0
 222.190429688 512.159179688 216.251953125 506.220703125 208.926757812 506.220703125 c 0
 201.6015625 506.220703125 195.663085938 512.159179688 195.663085938 519.484375 c 0
290.0859375 539.895507812 m 0
 290.0859375 547.220703125 296.024414062 553.159179688 303.349609375 553.159179688 c 0
 310.674804688 553.159179688 316.61328125 547.220703125 316.61328125 539.895507812 c 0
 316.61328125 532.5703125 310.674804688 526.631835938 303.349609375 526.631835938 c 0
 296.024414062 526.631835938 290.0859375 532.5703125 290.0859375 539.895507812 c 0
267.94140625 462.799804688 m 0
 267.94140625 470.125 273.879882812 476.063476562 281.205078125 476.063476562 c 0
 288.529296875 476.063476562 294.46875 470.125 294.46875 462.799804688 c 0
 294.46875 455.474609375 288.529296875 449.536132812 281.205078125 449.536132812 c 0
 273.879882812 449.536132812 267.94140625 455.474609375 267.94140625 462.799804688 c 0
338.266601562 430.404296875 m 0
 338.266601562 437.729492188 344.205078125 443.66796875 351.530273438 443.66796875 c 0
 358.854492188 443.66796875 364.793945312 437.729492188 364.793945312 430.404296875 c 0
 364.793945312 423.079101562 358.854492188 417.140625 351.530273438 417.140625 c 0
 344.205078125 417.140625 338.266601562 423.079101562 338.266601562 430.404296875 c 0
384.833984375 514.729492188 m 0
 384.833984375 522.0546875 390.772460938 527.993164062 398.09765625 527.993164062 c 0
 405.422851562 527.993164062 411.361328125 522.0546875 411.361328125 514.729492188 c 0
 411.361328125 507.404296875 405.422851562 501.465820312 398.09765625 501.465820312 c 0
 390.772460938 501.465820312 384.833984375 507.404296875 384.833984375 514.729492188 c 0
437.384765625 439.012695312 m 0
 437.384765625 446.337890625 443.323242188 452.276367188 450.6484375 452.276367188 c 0
 457.973632812 452.276367188 463.912109375 446.337890625 463.912109375 439.012695312 c 0
 463.912109375 431.6875 457.973632812 425.749023438 450.6484375 425.749023438 c 0
 443.323242188 425.749023438 437.384765625 431.6875 437.384765625 439.012695312 c 0
361.384765625 340.125976562 m 0
 361.384765625 347.451171875 367.323242188 353.389648438 374.6484375 353.389648438 c 0
 381.97265625 353.389648438 387.912109375 347.451171875 387.912109375 340.125976562 c 0
 387.912109375 332.80078125 381.97265625 326.862304688 374.6484375 326.862304688 c 0
 367.323242188 326.862304688 361.384765625 332.80078125 361.384765625 340.125976562 c 0
451.384765625 301.013671875 m 0
 451.384765625 308.338867188 457.323242188 314.27734375 464.6484375 314.27734375 c 0
 471.97265625 314.27734375 477.912109375 308.338867188 477.912109375 301.013671875 c 0
 477.912109375 293.688476562 471.97265625 287.750976562 464.6484375 287.750976562 c 0
 457.323242188 287.750976562 451.384765625 293.688476562 451.384765625 301.013671875 c 0
483.557617188 414.747070312 m 0
 483.557617188 422.072265625 489.49609375 428.010742188 496.821289062 428.010742188 c 0
 504.145507812 428.010742188 510.084960938 422.072265625 510.084960938 414.747070312 c 0
 510.084960938 407.421875 504.145507812 401.483398438 496.821289062 401.483398438 c 0
 489.49609375 401.483398438 483.557617188 407.421875 483.557617188 414.747070312 c 0
508.654296875 517.825195312 m 0
 508.654296875 525.150390625 514.592773438 531.088867188 521.91796875 531.088867188 c 0
 529.243164062 531.088867188 535.181640625 525.150390625 535.181640625 517.825195312 c 0
 535.181640625 510.5 529.243164062 504.561523438 521.91796875 504.561523438 c 0
 514.592773438 504.561523438 508.654296875 510.5 508.654296875 517.825195312 c 0
583.107421875 462.799804688 m 0
 583.107421875 470.125 589.045898438 476.063476562 596.37109375 476.063476562 c 0
 603.6953125 476.063476562 609.634765625 470.125 609.634765625 462.799804688 c 0
 609.634765625 455.474609375 603.6953125 449.536132812 596.37109375 449.536132812 c 0
 589.045898438 449.536132812 583.107421875 455.474609375 583.107421875 462.799804688 c 0
602.504882812 540.36328125 m 0
 602.504882812 547.688476562 608.443359375 553.626953125 615.768554688 553.626953125 c 0
 623.09375 553.626953125 629.032226562 547.688476562 629.032226562 540.36328125 c 0
 629.032226562 533.038085938 623.09375 527.099609375 615.768554688 527.099609375 c 0
 608.443359375 527.099609375 602.504882812 533.038085938 602.504882812 540.36328125 c 0
726.443359375 493.458984375 m 0
 726.443359375 500.784179688 732.381835938 506.72265625 739.70703125 506.72265625 c 0
 747.03125 506.72265625 752.970703125 500.784179688 752.970703125 493.458984375 c 0
 752.970703125 486.133789062 747.03125 480.1953125 739.70703125 480.1953125 c 0
 732.381835938 480.1953125 726.443359375 486.133789062 726.443359375 493.458984375 c 0
659.459960938 421.890625 m 0
 659.459960938 429.215820312 665.3984375 435.154296875 672.723632812 435.154296875 c 0
 680.047851562 435.154296875 685.987304688 429.215820312 685.987304688 421.890625 c 0
 685.987304688 414.565429688 680.047851562 408.626953125 672.723632812 408.626953125 c 0
 665.3984375 408.626953125 659.459960938 414.565429688 659.459960938 421.890625 c 0
676.66796875 329.944335938 m 0
 676.66796875 337.26953125 682.606445312 343.208007812 689.931640625 343.208007812 c 0
 697.255859375 343.208007812 703.1953125 337.26953125 703.1953125 329.944335938 c 0
 703.1953125 322.619140625 697.255859375 316.680664062 689.931640625 316.680664062 c 0
 682.606445312 316.680664062 676.66796875 322.619140625 676.66796875 329.944335938 c 0
766.66796875 362.013671875 m 0
 766.66796875 369.338867188 772.606445312 375.276367188 779.931640625 375.276367188 c 0
 787.255859375 375.276367188 793.1953125 369.338867188 793.1953125 362.013671875 c 0
 793.1953125 354.6875 787.255859375 348.75 779.931640625 348.75 c 0
 772.606445312 348.75 766.66796875 354.6875 766.66796875 362.013671875 c 0
EndSplineSet
Validated: 1
Layer: 2
EndChar

StartChar: n
Encoding: 78 110 76
Width: 555
Flags: HMW
HStem: 0 21G<68.835 158.835 68.835 68.835 403.835 403.835 403.835 493.835> 459 61 459 76<278.835 335.835>
VStem: 68.835 90<0 283> 403.835 90<0 315 315 319 0 360>
LayerCount: 3
Back
SplineSet
62.5224609375 0 m 1
 62.5224609375 520 l 1
 143.522460938 520 l 1
 143.522460938 445 l 1
 214.392578125 518.918945312 l 1
 311.592773438 540.350585938 l 1
 457.930664062 477.592773438 l 1
 492 319 l 1
 492 -0 l 1
 402 -0 l 1
 402 319 l 1
 377.583007812 423.791015625 l 1
 293.278320312 462.786132812 l 1
 191.549804688 416.61328125 l 1
 152.522460938 283 l 1
 152.522460938 -0 l 1
 60.5849609375 -0 l 1
 62.5224609375 -0 l 1
 62.5224609375 0 l 1
EndSplineSet
Fore
SplineSet
47.236328125 0.0126953125 m 0x98
 47.236328125 7.337890625 53.1748046875 13.2763671875 60.5 13.2763671875 c 0
 67.8251953125 13.2763671875 73.763671875 7.337890625 73.763671875 0.0126953125 c 0
 73.763671875 -7.3125 67.8251953125 -13.25 60.5 -13.25 c 0
 53.1748046875 -13.25 47.236328125 -7.3125 47.236328125 0.0126953125 c 0x98
137.438476562 0.0126953125 m 0
 137.438476562 7.337890625 143.376953125 13.2763671875 150.702148438 13.2763671875 c 0
 158.02734375 13.2763671875 163.965820312 7.337890625 163.965820312 0.0126953125 c 0
 163.965820312 -7.3125 158.02734375 -13.2509765625 150.702148438 -13.2509765625 c 0
 143.376953125 -13.2509765625 137.438476562 -7.3125 137.438476562 0.0126953125 c 0
386.713867188 0.0126953125 m 0
 386.713867188 7.337890625 392.653320312 13.2763671875 399.978515625 13.2763671875 c 0
 407.302734375 13.2763671875 413.2421875 7.337890625 413.2421875 0.0126953125 c 0
 413.2421875 -7.3125 407.302734375 -13.25 399.978515625 -13.25 c 0
 392.653320312 -13.25 386.713867188 -7.3125 386.713867188 0.0126953125 c 0
476.916015625 0.0126953125 m 0
 476.916015625 7.337890625 482.85546875 13.2763671875 490.1796875 13.2763671875 c 0
 497.504882812 13.2763671875 503.443359375 7.337890625 503.443359375 0.0126953125 c 0
 503.443359375 -7.3125 497.504882812 -13.2509765625 490.1796875 -13.2509765625 c 0
 482.85546875 -13.2509765625 476.916015625 -7.3125 476.916015625 0.0126953125 c 0
137.438476562 283.012695312 m 0
 137.438476562 290.337890625 143.376953125 296.276367188 150.702148438 296.276367188 c 0
 158.02734375 296.276367188 163.965820312 290.337890625 163.965820312 283.012695312 c 0
 163.965820312 275.6875 158.02734375 269.749023438 150.702148438 269.749023438 c 0
 143.376953125 269.749023438 137.438476562 275.6875 137.438476562 283.012695312 c 0
176.465820312 416.625976562 m 0
 176.465820312 423.951171875 182.404296875 429.889648438 189.729492188 429.889648438 c 0
 197.0546875 429.889648438 202.993164062 423.951171875 202.993164062 416.625976562 c 0
 202.993164062 409.30078125 197.0546875 403.362304688 189.729492188 403.362304688 c 0
 182.404296875 403.362304688 176.465820312 409.30078125 176.465820312 416.625976562 c 0
128.438476562 445.012695312 m 0
 128.438476562 452.337890625 134.376953125 458.276367188 141.702148438 458.276367188 c 0
 149.02734375 458.276367188 154.965820312 452.337890625 154.965820312 445.012695312 c 0
 154.965820312 437.6875 149.02734375 431.75 141.702148438 431.75 c 0
 134.376953125 431.75 128.438476562 437.6875 128.438476562 445.012695312 c 0
128.438476562 520.012695312 m 0
 128.438476562 527.337890625 134.376953125 533.276367188 141.702148438 533.276367188 c 0
 149.02734375 533.276367188 154.965820312 527.337890625 154.965820312 520.012695312 c 0
 154.965820312 512.6875 149.02734375 506.749023438 141.702148438 506.749023438 c 0
 134.376953125 506.749023438 128.438476562 512.6875 128.438476562 520.012695312 c 0
47.4384765625 520.012695312 m 0
 47.4384765625 527.337890625 53.376953125 533.276367188 60.7021484375 533.276367188 c 0
 68.02734375 533.276367188 73.9658203125 527.337890625 73.9658203125 520.012695312 c 0
 73.9658203125 512.6875 68.02734375 506.749023438 60.7021484375 506.749023438 c 0
 53.376953125 506.749023438 47.4384765625 512.6875 47.4384765625 520.012695312 c 0
199.30859375 518.931640625 m 0
 199.30859375 526.256835938 205.247070312 532.1953125 212.572265625 532.1953125 c 0
 219.897460938 532.1953125 225.8359375 526.256835938 225.8359375 518.931640625 c 0
 225.8359375 511.606445312 219.897460938 505.66796875 212.572265625 505.66796875 c 0
 205.247070312 505.66796875 199.30859375 511.606445312 199.30859375 518.931640625 c 0
296.508789062 540.36328125 m 0
 296.508789062 547.688476562 302.447265625 553.626953125 309.772460938 553.626953125 c 0
 317.09765625 553.626953125 323.036132812 547.688476562 323.036132812 540.36328125 c 0
 323.036132812 533.038085938 317.09765625 527.099609375 309.772460938 527.099609375 c 0
 302.447265625 527.099609375 296.508789062 533.038085938 296.508789062 540.36328125 c 0
278.194335938 462.798828125 m 0
 278.194335938 470.124023438 284.133789062 476.0625 291.458007812 476.0625 c 0
 298.783203125 476.0625 304.721679688 470.124023438 304.721679688 462.798828125 c 0
 304.721679688 455.473632812 298.783203125 449.53515625 291.458007812 449.53515625 c 0
 284.133789062 449.53515625 278.194335938 455.473632812 278.194335938 462.798828125 c 0
362.499023438 423.803710938 m 0
 362.499023438 431.12890625 368.438476562 437.067382812 375.762695312 437.067382812 c 0
 383.087890625 437.067382812 389.026367188 431.12890625 389.026367188 423.803710938 c 0
 389.026367188 416.478515625 383.087890625 410.540039062 375.762695312 410.540039062 c 0
 368.438476562 410.540039062 362.499023438 416.478515625 362.499023438 423.803710938 c 0
442.846679688 477.60546875 m 0
 442.846679688 484.930664062 448.786132812 490.869140625 456.110351562 490.869140625 c 0
 463.435546875 490.869140625 469.374023438 484.930664062 469.374023438 477.60546875 c 0
 469.374023438 470.280273438 463.435546875 464.341796875 456.110351562 464.341796875 c 0
 448.786132812 464.341796875 442.846679688 470.280273438 442.846679688 477.60546875 c 0
386.916015625 319.012695312 m 0
 386.916015625 326.337890625 392.85546875 332.276367188 400.1796875 332.276367188 c 0
 407.504882812 332.276367188 413.443359375 326.337890625 413.443359375 319.012695312 c 0
 413.443359375 311.6875 407.504882812 305.749023438 400.1796875 305.749023438 c 0
 392.85546875 305.749023438 386.916015625 311.6875 386.916015625 319.012695312 c 0
476.916015625 319.012695312 m 0
 476.916015625 326.337890625 482.85546875 332.276367188 490.1796875 332.276367188 c 0
 497.504882812 332.276367188 503.443359375 326.337890625 503.443359375 319.012695312 c 0
 503.443359375 311.6875 497.504882812 305.749023438 490.1796875 305.749023438 c 0
 482.85546875 305.749023438 476.916015625 311.6875 476.916015625 319.012695312 c 0
EndSplineSet
Validated: 1
Layer: 2
EndChar

StartChar: o
Encoding: 79 111 77
Width: 556
Flags: HMW
HStem: -15 75<238.5 317.5 238.5 350> 460 75<238.5 317.5>
VStem: 35 90<189 331 189 346> 431 90<189 331>
LayerCount: 3
Back
SplineSet
277.971679688 540.5 m 1
 457.075195312 466.047851562 l 1
 525.890625 260.008789062 l 1
 457.01171875 54.00390625 l 1
 277.97265625 -20.482421875 l 1
 98.9775390625 53.9697265625 l 1
 30.140625 260.008789062 l 1
 98.9453125 466.047851562 l 1
 277.971679688 540.5 l 1
277.971679688 55.9765625 m 1
 386.283203125 103.637695312 l 1
 434.122070312 259.923828125 l 1
 386.283203125 416.251953125 l 1
 277.971679688 463.956054688 l 1
 169.78125 416.251953125 l 1
 121.993164062 259.923828125 l 1
 169.748046875 103.637695312 l 1
 277.971679688 55.9765625 l 1
EndSplineSet
Fore
SplineSet
16.994140625 259.922851562 m 0
 16.994140625 267.248046875 22.9326171875 273.186523438 30.2578125 273.186523438 c 0
 37.5830078125 273.186523438 43.521484375 267.248046875 43.521484375 259.922851562 c 0
 43.521484375 252.59765625 37.5830078125 246.659179688 30.2578125 246.659179688 c 0
 22.9326171875 246.659179688 16.994140625 252.59765625 16.994140625 259.922851562 c 0
108.846679688 259.836914062 m 0
 108.846679688 267.162109375 114.78515625 273.099609375 122.110351562 273.099609375 c 0
 129.435546875 273.099609375 135.374023438 267.162109375 135.374023438 259.836914062 c 0
 135.374023438 252.510742188 129.435546875 246.573242188 122.110351562 246.573242188 c 0
 114.78515625 246.573242188 108.846679688 252.510742188 108.846679688 259.836914062 c 0
156.634765625 416.166015625 m 0
 156.634765625 423.491210938 162.57421875 429.4296875 169.8984375 429.4296875 c 0
 177.223632812 429.4296875 183.162109375 423.491210938 183.162109375 416.166015625 c 0
 183.162109375 408.840820312 177.223632812 402.90234375 169.8984375 402.90234375 c 0
 162.57421875 402.90234375 156.634765625 408.840820312 156.634765625 416.166015625 c 0
85.798828125 465.961914062 m 0
 85.798828125 473.287109375 91.7373046875 479.225585938 99.0625 479.225585938 c 0
 106.387695312 479.225585938 112.326171875 473.287109375 112.326171875 465.961914062 c 0
 112.326171875 458.63671875 106.387695312 452.698242188 99.0625 452.698242188 c 0
 91.7373046875 452.698242188 85.798828125 458.63671875 85.798828125 465.961914062 c 0
264.826171875 463.870117188 m 0
 264.826171875 471.1953125 270.764648438 477.133789062 278.08984375 477.133789062 c 0
 285.415039062 477.133789062 291.353515625 471.1953125 291.353515625 463.870117188 c 0
 291.353515625 456.544921875 285.415039062 450.606445312 278.08984375 450.606445312 c 0
 270.764648438 450.606445312 264.826171875 456.544921875 264.826171875 463.870117188 c 0
264.826171875 540.4140625 m 0
 264.826171875 547.739257812 270.764648438 553.677734375 278.08984375 553.677734375 c 0
 285.415039062 553.677734375 291.353515625 547.739257812 291.353515625 540.4140625 c 0
 291.353515625 533.088867188 285.415039062 527.150390625 278.08984375 527.150390625 c 0
 270.764648438 527.150390625 264.826171875 533.088867188 264.826171875 540.4140625 c 0
443.928710938 465.961914062 m 0
 443.928710938 473.287109375 449.868164062 479.225585938 457.192382812 479.225585938 c 0
 464.517578125 479.225585938 470.456054688 473.287109375 470.456054688 465.961914062 c 0
 470.456054688 458.63671875 464.517578125 452.698242188 457.192382812 452.698242188 c 0
 449.868164062 452.698242188 443.928710938 458.63671875 443.928710938 465.961914062 c 0
373.135742188 416.166015625 m 0
 373.135742188 423.491210938 379.075195312 429.4296875 386.399414062 429.4296875 c 0
 393.724609375 429.4296875 399.663085938 423.491210938 399.663085938 416.166015625 c 0
 399.663085938 408.840820312 393.724609375 402.903320312 386.399414062 402.903320312 c 0
 379.075195312 402.903320312 373.135742188 408.840820312 373.135742188 416.166015625 c 0
420.975585938 259.836914062 m 0
 420.975585938 267.162109375 426.9140625 273.099609375 434.239257812 273.099609375 c 0
 441.564453125 273.099609375 447.502929688 267.162109375 447.502929688 259.836914062 c 0
 447.502929688 252.510742188 441.564453125 246.573242188 434.239257812 246.573242188 c 0
 426.9140625 246.573242188 420.975585938 252.510742188 420.975585938 259.836914062 c 0
512.744140625 259.923828125 m 0
 512.744140625 267.249023438 518.682617188 273.1875 526.0078125 273.1875 c 0
 533.333007812 273.1875 539.271484375 267.249023438 539.271484375 259.923828125 c 0
 539.271484375 252.598632812 533.333007812 246.66015625 526.0078125 246.66015625 c 0
 518.682617188 246.66015625 512.744140625 252.598632812 512.744140625 259.923828125 c 0
443.865234375 53.91796875 m 0
 443.865234375 61.2431640625 449.803710938 67.181640625 457.12890625 67.181640625 c 0
 464.454101562 67.181640625 470.392578125 61.2431640625 470.392578125 53.91796875 c 0
 470.392578125 46.5927734375 464.454101562 40.654296875 457.12890625 40.654296875 c 0
 449.803710938 40.654296875 443.865234375 46.5927734375 443.865234375 53.91796875 c 0
372.920898438 102.845703125 m 0
 372.920898438 110.170898438 378.859375 116.109375 386.184570312 116.109375 c 0
 393.509765625 116.109375 399.448242188 110.170898438 399.448242188 102.845703125 c 0
 399.448242188 95.5205078125 393.509765625 89.58203125 386.184570312 89.58203125 c 0
 378.859375 89.58203125 372.920898438 95.5205078125 372.920898438 102.845703125 c 0
264.826171875 55.890625 m 0
 264.826171875 63.2158203125 270.764648438 69.154296875 278.08984375 69.154296875 c 0
 285.4140625 69.154296875 291.353515625 63.2158203125 291.353515625 55.890625 c 0
 291.353515625 48.5654296875 285.4140625 42.626953125 278.08984375 42.626953125 c 0
 270.764648438 42.626953125 264.826171875 48.5654296875 264.826171875 55.890625 c 0
264.826171875 -20.568359375 m 0
 264.826171875 -13.2431640625 270.764648438 -7.3046875 278.08984375 -7.3046875 c 0
 285.415039062 -7.3046875 291.353515625 -13.2431640625 291.353515625 -20.568359375 c 0
 291.353515625 -27.8935546875 285.415039062 -33.83203125 278.08984375 -33.83203125 c 0
 270.764648438 -33.83203125 264.826171875 -27.8935546875 264.826171875 -20.568359375 c 0
156.600585938 103.551757812 m 0
 156.600585938 110.876953125 162.540039062 116.815429688 169.864257812 116.815429688 c 0
 177.189453125 116.815429688 183.127929688 110.876953125 183.127929688 103.551757812 c 0
 183.127929688 96.2265625 177.189453125 90.2880859375 169.864257812 90.2880859375 c 0
 162.540039062 90.2880859375 156.600585938 96.2265625 156.600585938 103.551757812 c 0
85.8310546875 53.8837890625 m 0
 85.8310546875 61.208984375 91.76953125 67.1474609375 99.0947265625 67.1474609375 c 0
 106.419921875 67.1474609375 112.358398438 61.208984375 112.358398438 53.8837890625 c 0
 112.358398438 46.55859375 106.419921875 40.6201171875 99.0947265625 40.6201171875 c 0
 91.76953125 40.6201171875 85.8310546875 46.55859375 85.8310546875 53.8837890625 c 0
EndSplineSet
Validated: 1
Layer: 2
EndChar

StartChar: p
Encoding: 80 112 78
Width: 550
Flags: HMW
HStem: -200 21G<67.7334 157.733 67.7334 67.7334> -15 75<263.733 329.233 250.233 366.733> 460 60 460 75<260.233 329.233>
VStem: 67.7334 79<194 326 194 520> 427.733 90<194 326>
LayerCount: 3
Back
SplineSet
65 -200 m 1
 65 520 l 1
 145 520 l 1
 145 449 l 1
 206.607421875 518.111328125 l 1
 294.734375 542.349609375 l 1
 463.715820312 464.071289062 l 1
 522.41015625 261.859375 l 1
 463.715820312 59.6474609375 l 1
 294.734375 -18.6318359375 l 1
 211.407226562 2.1455078125 l 1
 155 55 l 1
 155 -200 l 1
 65 -200 l 1
 65 -200 l 1
289.631835938 57.8271484375 m 1
 390.244140625 109.315429688 l 1
 430.387695312 261.774414062 l 1
 390.244140625 414.275390625 l 1
 289.631835938 465.806640625 l 1
 190.327148438 414.275390625 l 1
 143.772460938 261.774414062 l 1
 186.499023438 109.315429688 l 1
 289.631835938 57.8271484375 l 1
EndSplineSet
Fore
SplineSet
130.508789062 261.790039062 m 0xcc
 130.508789062 269.115234375 136.447265625 275.052734375 143.772460938 275.052734375 c 0
 151.09765625 275.052734375 157.036132812 269.115234375 157.036132812 261.790039062 c 0
 157.036132812 254.463867188 151.09765625 248.526367188 143.772460938 248.526367188 c 0
 136.447265625 248.526367188 130.508789062 254.463867188 130.508789062 261.790039062 c 0xcc
141.736328125 55.013671875 m 0
 141.736328125 62.3388671875 147.674804688 68.27734375 155 68.27734375 c 0
 162.325195312 68.27734375 168.263671875 62.3388671875 168.263671875 55.013671875 c 0
 168.263671875 47.6884765625 162.325195312 41.75 155 41.75 c 0
 147.674804688 41.75 141.736328125 47.6884765625 141.736328125 55.013671875 c 0
141.736328125 -199.986328125 m 0
 141.736328125 -192.661132812 147.674804688 -186.72265625 155 -186.72265625 c 0
 162.325195312 -186.72265625 168.263671875 -192.661132812 168.263671875 -199.986328125 c 0
 168.263671875 -207.311523438 162.325195312 -213.25 155 -213.25 c 0
 147.674804688 -213.25 141.736328125 -207.311523438 141.736328125 -199.986328125 c 0
51.736328125 -199.986328125 m 0
 51.736328125 -192.661132812 57.6748046875 -186.72265625 65 -186.72265625 c 0
 72.3251953125 -186.72265625 78.263671875 -192.661132812 78.263671875 -199.986328125 c 0
 78.263671875 -207.311523438 72.3251953125 -213.25 65 -213.25 c 0
 57.6748046875 -213.25 51.736328125 -207.311523438 51.736328125 -199.986328125 c 0
51.736328125 520.013671875 m 0
 51.736328125 527.338867188 57.6748046875 533.27734375 65 533.27734375 c 0
 72.3251953125 533.27734375 78.263671875 527.338867188 78.263671875 520.013671875 c 0
 78.263671875 512.688476562 72.3251953125 506.75 65 506.75 c 0
 57.6748046875 506.75 51.736328125 512.688476562 51.736328125 520.013671875 c 0
131.736328125 520.013671875 m 0
 131.736328125 527.338867188 137.674804688 533.27734375 145 533.27734375 c 0
 152.325195312 533.27734375 158.263671875 527.338867188 158.263671875 520.013671875 c 0
 158.263671875 512.688476562 152.325195312 506.75 145 506.75 c 0
 137.674804688 506.75 131.736328125 512.688476562 131.736328125 520.013671875 c 0
131.736328125 449.013671875 m 0
 131.736328125 456.338867188 137.674804688 462.27734375 145 462.27734375 c 0
 152.325195312 462.27734375 158.263671875 456.338867188 158.263671875 449.013671875 c 0
 158.263671875 441.688476562 152.325195312 435.75 145 435.75 c 0
 137.674804688 435.75 131.736328125 441.688476562 131.736328125 449.013671875 c 0
177.063476562 414.2890625 m 0
 177.063476562 421.614257812 183.001953125 427.552734375 190.327148438 427.552734375 c 0
 197.65234375 427.552734375 203.590820312 421.614257812 203.590820312 414.2890625 c 0
 203.590820312 406.963867188 197.65234375 401.025390625 190.327148438 401.025390625 c 0
 183.001953125 401.025390625 177.063476562 406.963867188 177.063476562 414.2890625 c 0
193.34375 518.125 m 0
 193.34375 525.450195312 199.282226562 531.388671875 206.607421875 531.388671875 c 0
 213.932617188 531.388671875 219.87109375 525.450195312 219.87109375 518.125 c 0
 219.87109375 510.799804688 213.932617188 504.861328125 206.607421875 504.861328125 c 0
 199.282226562 504.861328125 193.34375 510.799804688 193.34375 518.125 c 0
281.471679688 542.36328125 m 0
 281.471679688 549.688476562 287.41015625 555.626953125 294.735351562 555.626953125 c 0
 302.059570312 555.626953125 307.999023438 549.688476562 307.999023438 542.36328125 c 0
 307.999023438 535.038085938 302.059570312 529.099609375 294.735351562 529.099609375 c 0
 287.41015625 529.099609375 281.471679688 535.038085938 281.471679688 542.36328125 c 0
276.368164062 465.8203125 m 0
 276.368164062 473.145507812 282.306640625 479.083984375 289.631835938 479.083984375 c 0
 296.95703125 479.083984375 302.895507812 473.145507812 302.895507812 465.8203125 c 0
 302.895507812 458.495117188 296.95703125 452.556640625 289.631835938 452.556640625 c 0
 282.306640625 452.556640625 276.368164062 458.495117188 276.368164062 465.8203125 c 0
376.98046875 414.2890625 m 0
 376.98046875 421.614257812 382.919921875 427.552734375 390.244140625 427.552734375 c 0
 397.569335938 427.552734375 403.5078125 421.614257812 403.5078125 414.2890625 c 0
 403.5078125 406.963867188 397.569335938 401.025390625 390.244140625 401.025390625 c 0
 382.919921875 401.025390625 376.98046875 406.963867188 376.98046875 414.2890625 c 0
450.452148438 464.084960938 m 0
 450.452148438 471.41015625 456.390625 477.348632812 463.715820312 477.348632812 c 0
 471.041015625 477.348632812 476.979492188 471.41015625 476.979492188 464.084960938 c 0
 476.979492188 456.759765625 471.041015625 450.821289062 463.715820312 450.821289062 c 0
 456.390625 450.821289062 450.452148438 456.759765625 450.452148438 464.084960938 c 0
509.146484375 261.874023438 m 0
 509.146484375 269.19921875 515.084960938 275.13671875 522.41015625 275.13671875 c 0
 529.735351562 275.13671875 535.673828125 269.19921875 535.673828125 261.874023438 c 0
 535.673828125 254.548828125 529.735351562 248.610351562 522.41015625 248.610351562 c 0
 515.084960938 248.610351562 509.146484375 254.548828125 509.146484375 261.874023438 c 0
417.124023438 261.7890625 m 0
 417.124023438 269.114257812 423.0625 275.052734375 430.387695312 275.052734375 c 0
 437.712890625 275.052734375 443.651367188 269.114257812 443.651367188 261.7890625 c 0
 443.651367188 254.463867188 437.712890625 248.525390625 430.387695312 248.525390625 c 0
 423.0625 248.525390625 417.124023438 254.463867188 417.124023438 261.7890625 c 0
376.98046875 109.329101562 m 0
 376.98046875 116.654296875 382.918945312 122.592773438 390.244140625 122.592773438 c 0
 397.569335938 122.592773438 403.5078125 116.654296875 403.5078125 109.329101562 c 0
 403.5078125 102.00390625 397.569335938 96.0654296875 390.244140625 96.0654296875 c 0
 382.918945312 96.0654296875 376.98046875 102.00390625 376.98046875 109.329101562 c 0
450.452148438 59.6611328125 m 0
 450.452148438 66.986328125 456.390625 72.9248046875 463.715820312 72.9248046875 c 0
 471.041015625 72.9248046875 476.979492188 66.986328125 476.979492188 59.6611328125 c 0
 476.979492188 52.3359375 471.041015625 46.3974609375 463.715820312 46.3974609375 c 0
 456.390625 46.3974609375 450.452148438 52.3359375 450.452148438 59.6611328125 c 0
276.368164062 57.8408203125 m 0
 276.368164062 65.166015625 282.306640625 71.1044921875 289.631835938 71.1044921875 c 0
 296.95703125 71.1044921875 302.895507812 65.166015625 302.895507812 57.8408203125 c 0
 302.895507812 50.515625 296.95703125 44.5771484375 289.631835938 44.5771484375 c 0
 282.306640625 44.5771484375 276.368164062 50.515625 276.368164062 57.8408203125 c 0
173.236328125 109.329101562 m 0
 173.236328125 116.654296875 179.174804688 122.592773438 186.5 122.592773438 c 0
 193.825195312 122.592773438 199.763671875 116.654296875 199.763671875 109.329101562 c 0
 199.763671875 102.00390625 193.825195312 96.0654296875 186.5 96.0654296875 c 0
 179.174804688 96.0654296875 173.236328125 102.00390625 173.236328125 109.329101562 c 0
198.142578125 2.1591796875 m 0
 198.142578125 9.484375 204.08203125 15.4228515625 211.40625 15.4228515625 c 0
 218.731445312 15.4228515625 224.670898438 9.484375 224.670898438 2.1591796875 c 0
 224.670898438 -5.166015625 218.731445312 -11.103515625 211.40625 -11.103515625 c 0
 204.08203125 -11.103515625 198.142578125 -5.166015625 198.142578125 2.1591796875 c 0
281.471679688 -18.6181640625 m 0
 281.471679688 -11.29296875 287.41015625 -5.3544921875 294.735351562 -5.3544921875 c 0
 302.059570312 -5.3544921875 307.999023438 -11.29296875 307.999023438 -18.6181640625 c 0
 307.999023438 -25.943359375 302.059570312 -31.8818359375 294.735351562 -31.8818359375 c 0
 287.41015625 -31.8818359375 281.471679688 -25.943359375 281.471679688 -18.6181640625 c 0
EndSplineSet
Validated: 1
Layer: 2
EndChar

StartChar: q
Encoding: 81 113 79
Width: 550
Flags: HMW
HStem: -200 21G<392.176 482.176 392.176 392.176> -15 75<220.676 286.176> 460 60 460 75<220.676 289.676 183.176 294.676>
VStem: 32.1758 90<194 326 194 341> 392.176 90<-200 55 55 55>
LayerCount: 3
Back
SplineSet
395 -200 m 1
 395 55 l 1
 335.69140625 0.5634765625 l 1
 255.180664062 -18.6318359375 l 1
 86.28515625 59.6474609375 l 1
 27.673828125 261.859375 l 1
 86.28515625 464.071289062 l 1
 255.180664062 542.349609375 l 1
 345.044921875 517.609375 l 1
 405 449 l 1
 405 520 l 1
 485 520 l 1
 485 -200 l 1
 395 -200 l 1
 395 -200 l 1
260.283203125 465.890625 m 1
 159.819335938 414.360351562 l 1
 119.698242188 261.859375 l 1
 159.819335938 109.401367188 l 1
 260.283203125 57.912109375 l 1
 363.458984375 109.401367188 l 1
 406.227539062 261.859375 l 1
 359.663085938 414.360351562 l 1
 260.283203125 465.890625 l 1
EndSplineSet
Fore
SplineSet
419.491210938 261.790039062 m 4xcc
 419.491210938 254.463867188 413.552734375 248.526367188 406.227539062 248.526367188 c 4
 398.90234375 248.526367188 392.963867188 254.463867188 392.963867188 261.790039062 c 4
 392.963867188 269.115234375 398.90234375 275.052734375 406.227539062 275.052734375 c 4
 413.552734375 275.052734375 419.491210938 269.115234375 419.491210938 261.790039062 c 4xcc
408.263671875 55.013671875 m 4
 408.263671875 47.6884765625 402.325195312 41.75 395 41.75 c 4
 387.674804688 41.75 381.736328125 47.6884765625 381.736328125 55.013671875 c 4
 381.736328125 62.3388671875 387.674804688 68.27734375 395 68.27734375 c 4
 402.325195312 68.27734375 408.263671875 62.3388671875 408.263671875 55.013671875 c 4
408.263671875 -199.986328125 m 4
 408.263671875 -207.311523438 402.325195312 -213.25 395 -213.25 c 4
 387.674804688 -213.25 381.736328125 -207.311523438 381.736328125 -199.986328125 c 4
 381.736328125 -192.661132812 387.674804688 -186.72265625 395 -186.72265625 c 4
 402.325195312 -186.72265625 408.263671875 -192.661132812 408.263671875 -199.986328125 c 4
498.263671875 -199.986328125 m 4
 498.263671875 -207.311523438 492.325195312 -213.25 485 -213.25 c 4
 477.674804688 -213.25 471.736328125 -207.311523438 471.736328125 -199.986328125 c 4
 471.736328125 -192.661132812 477.674804688 -186.72265625 485 -186.72265625 c 4
 492.325195312 -186.72265625 498.263671875 -192.661132812 498.263671875 -199.986328125 c 4
498.263671875 520.013671875 m 4
 498.263671875 512.688476562 492.325195312 506.75 485 506.75 c 4
 477.674804688 506.75 471.736328125 512.688476562 471.736328125 520.013671875 c 4
 471.736328125 527.338867188 477.674804688 533.27734375 485 533.27734375 c 4
 492.325195312 533.27734375 498.263671875 527.338867188 498.263671875 520.013671875 c 4
418.263671875 520.013671875 m 4
 418.263671875 512.688476562 412.325195312 506.75 405 506.75 c 4
 397.674804688 506.75 391.736328125 512.688476562 391.736328125 520.013671875 c 4
 391.736328125 527.338867188 397.674804688 533.27734375 405 533.27734375 c 4
 412.325195312 533.27734375 418.263671875 527.338867188 418.263671875 520.013671875 c 4
418.263671875 449.013671875 m 4
 418.263671875 441.688476562 412.325195312 435.75 405 435.75 c 4
 397.674804688 435.75 391.736328125 441.688476562 391.736328125 449.013671875 c 4
 391.736328125 456.338867188 397.674804688 462.27734375 405 462.27734375 c 4
 412.325195312 462.27734375 418.263671875 456.338867188 418.263671875 449.013671875 c 4
372.936523438 414.2890625 m 4
 372.936523438 406.963867188 366.998046875 401.025390625 359.672851562 401.025390625 c 4
 352.34765625 401.025390625 346.409179688 406.963867188 346.409179688 414.2890625 c 4
 346.409179688 421.614257812 352.34765625 427.552734375 359.672851562 427.552734375 c 4
 366.998046875 427.552734375 372.936523438 421.614257812 372.936523438 414.2890625 c 4
356.65625 518.125 m 4
 356.65625 510.799804688 350.717773438 504.861328125 343.392578125 504.861328125 c 4
 336.067382812 504.861328125 330.12890625 510.799804688 330.12890625 518.125 c 4
 330.12890625 525.450195312 336.067382812 531.388671875 343.392578125 531.388671875 c 4
 350.717773438 531.388671875 356.65625 525.450195312 356.65625 518.125 c 4
268.528320312 542.36328125 m 4
 268.528320312 535.038085938 262.58984375 529.099609375 255.264648438 529.099609375 c 4
 247.940429688 529.099609375 242.000976562 535.038085938 242.000976562 542.36328125 c 4
 242.000976562 549.688476562 247.940429688 555.626953125 255.264648438 555.626953125 c 4
 262.58984375 555.626953125 268.528320312 549.688476562 268.528320312 542.36328125 c 4
273.631835938 465.8203125 m 4
 273.631835938 458.495117188 267.693359375 452.556640625 260.368164062 452.556640625 c 4
 253.04296875 452.556640625 247.104492188 458.495117188 247.104492188 465.8203125 c 4
 247.104492188 473.145507812 253.04296875 479.083984375 260.368164062 479.083984375 c 4
 267.693359375 479.083984375 273.631835938 473.145507812 273.631835938 465.8203125 c 4
173.01953125 414.2890625 m 4
 173.01953125 406.963867188 167.081054688 401.025390625 159.755859375 401.025390625 c 4
 152.430664062 401.025390625 146.4921875 406.963867188 146.4921875 414.2890625 c 4
 146.4921875 421.614257812 152.430664062 427.552734375 159.755859375 427.552734375 c 4
 167.081054688 427.552734375 173.01953125 421.614257812 173.01953125 414.2890625 c 4
99.5478515625 464.084960938 m 4
 99.5478515625 456.759765625 93.609375 450.821289062 86.2841796875 450.821289062 c 4
 78.958984375 450.821289062 73.0205078125 456.759765625 73.0205078125 464.084960938 c 4
 73.0205078125 471.41015625 78.958984375 477.348632812 86.2841796875 477.348632812 c 4
 93.609375 477.348632812 99.5478515625 471.41015625 99.5478515625 464.084960938 c 4
40.853515625 261.874023438 m 4
 40.853515625 254.548828125 34.9150390625 248.610351562 27.58984375 248.610351562 c 4
 20.2646484375 248.610351562 14.326171875 254.548828125 14.326171875 261.874023438 c 4
 14.326171875 269.19921875 20.2646484375 275.13671875 27.58984375 275.13671875 c 4
 34.9150390625 275.13671875 40.853515625 269.19921875 40.853515625 261.874023438 c 4
132.875976562 261.7890625 m 4
 132.875976562 254.463867188 126.9375 248.525390625 119.612304688 248.525390625 c 4
 112.287109375 248.525390625 106.348632812 254.463867188 106.348632812 261.7890625 c 4
 106.348632812 269.114257812 112.287109375 275.052734375 119.612304688 275.052734375 c 4
 126.9375 275.052734375 132.875976562 269.114257812 132.875976562 261.7890625 c 4
173.01953125 109.329101562 m 4
 173.01953125 102.00390625 167.081054688 96.0654296875 159.755859375 96.0654296875 c 4
 152.430664062 96.0654296875 146.4921875 102.00390625 146.4921875 109.329101562 c 4
 146.4921875 116.654296875 152.430664062 122.592773438 159.755859375 122.592773438 c 4
 167.081054688 122.592773438 173.01953125 116.654296875 173.01953125 109.329101562 c 4
99.5478515625 59.6611328125 m 4
 99.5478515625 52.3359375 93.609375 46.3974609375 86.2841796875 46.3974609375 c 4
 78.958984375 46.3974609375 73.0205078125 52.3359375 73.0205078125 59.6611328125 c 4
 73.0205078125 66.986328125 78.958984375 72.9248046875 86.2841796875 72.9248046875 c 4
 93.609375 72.9248046875 99.5478515625 66.986328125 99.5478515625 59.6611328125 c 4
273.631835938 57.8408203125 m 4
 273.631835938 50.515625 267.693359375 44.5771484375 260.368164062 44.5771484375 c 4
 253.04296875 44.5771484375 247.104492188 50.515625 247.104492188 57.8408203125 c 4
 247.104492188 65.166015625 253.04296875 71.1044921875 260.368164062 71.1044921875 c 4
 267.693359375 71.1044921875 273.631835938 65.166015625 273.631835938 57.8408203125 c 4
376.763671875 109.329101562 m 4
 376.763671875 102.00390625 370.825195312 96.0654296875 363.5 96.0654296875 c 4
 356.17578125 96.0654296875 350.236328125 102.00390625 350.236328125 109.329101562 c 4
 350.236328125 116.654296875 356.17578125 122.592773438 363.5 122.592773438 c 4
 370.825195312 122.592773438 376.763671875 116.654296875 376.763671875 109.329101562 c 4
348.955078125 0.5771484375 m 4
 348.955078125 -6.748046875 343.016601562 -12.6865234375 335.69140625 -12.6865234375 c 4
 328.366210938 -12.6865234375 322.427734375 -6.748046875 322.427734375 0.5771484375 c 4
 322.427734375 7.90234375 328.366210938 13.8408203125 335.69140625 13.8408203125 c 4
 343.016601562 13.8408203125 348.955078125 7.90234375 348.955078125 0.5771484375 c 4
268.444335938 -18.6181640625 m 4
 268.444335938 -25.943359375 262.505859375 -31.8818359375 255.180664062 -31.8818359375 c 4
 247.85546875 -31.8818359375 241.916992188 -25.943359375 241.916992188 -18.6181640625 c 4
 241.916992188 -11.29296875 247.85546875 -5.3544921875 255.180664062 -5.3544921875 c 4
 262.505859375 -5.3544921875 268.444335938 -11.29296875 268.444335938 -18.6181640625 c 4
EndSplineSet
Validated: 1
Layer: 2
EndChar

StartChar: r
Encoding: 82 114 80
Width: 385
Flags: HMW
HStem: 0 21G<66.2979 156.298 66.2979 66.2979> 450 70 450 85<256.798 300.798>
VStem: 66.2979 90<0 281>
LayerCount: 3
Back
SplineSet
65 5.0869140625 m 1
 65 520 l 1
 146 520 l 1
 146 430 l 1
 205.986328125 513.727539062 l 1
 291.909179688 540.348632812 l 1
 370 516 l 1
 345.686523438 436.30859375 l 1
 345.686523438 436.30859375 l 1
 285.428710938 453.368164062 l 1
 187.903320312 406.379882812 l 1
 155 281 l 1
 155 -0 l 1
 65 5.0869140625 l 1
EndSplineSet
Fore
SplineSet
78.2646484375 0.1005859375 m 0x90
 78.2646484375 -7.224609375 72.3251953125 -13.162109375 65 -13.162109375 c 0
 57.67578125 -13.162109375 51.736328125 -7.224609375 51.736328125 0.1005859375 c 0
 51.736328125 7.42578125 57.67578125 13.3642578125 65 13.3642578125 c 0
 72.3251953125 13.3642578125 78.2646484375 7.42578125 78.2646484375 0.1005859375 c 0x90
168.264648438 0.013671875 m 0
 168.264648438 -7.3115234375 162.325195312 -13.25 155 -13.25 c 0
 147.67578125 -13.25 141.736328125 -7.3115234375 141.736328125 0.013671875 c 0
 141.736328125 7.3388671875 147.67578125 13.27734375 155 13.27734375 c 0
 162.325195312 13.27734375 168.264648438 7.3388671875 168.264648438 0.013671875 c 0
168.264648438 281.010742188 m 0
 168.264648438 273.685546875 162.325195312 267.748046875 155 267.748046875 c 0
 147.67578125 267.748046875 141.736328125 273.685546875 141.736328125 281.010742188 c 0
 141.736328125 288.3359375 147.67578125 294.274414062 155 294.274414062 c 0
 162.325195312 294.274414062 168.264648438 288.3359375 168.264648438 281.010742188 c 0
159.264648438 430.013671875 m 0
 159.264648438 422.688476562 153.325195312 416.75 146 416.75 c 0
 138.67578125 416.75 132.736328125 422.688476562 132.736328125 430.013671875 c 0
 132.736328125 437.338867188 138.67578125 443.27734375 146 443.27734375 c 0
 153.325195312 443.27734375 159.264648438 437.338867188 159.264648438 430.013671875 c 0
201.16796875 406.393554688 m 0
 201.16796875 399.068359375 195.229492188 393.130859375 187.904296875 393.130859375 c 0
 180.579101562 393.130859375 174.640625 399.068359375 174.640625 406.393554688 c 0
 174.640625 413.71875 180.579101562 419.657226562 187.904296875 419.657226562 c 0
 195.229492188 419.657226562 201.16796875 413.71875 201.16796875 406.393554688 c 0
160.255859375 520.013671875 m 0
 160.255859375 512.688476562 154.317382812 506.75 146.9921875 506.75 c 0
 139.666992188 506.75 133.728515625 512.688476562 133.728515625 520.013671875 c 0
 133.728515625 527.338867188 139.666992188 533.27734375 146.9921875 533.27734375 c 0
 154.317382812 533.27734375 160.255859375 527.338867188 160.255859375 520.013671875 c 0
78.2646484375 520.013671875 m 0
 78.2646484375 512.688476562 72.3251953125 506.75 65 506.75 c 0
 57.67578125 506.75 51.736328125 512.688476562 51.736328125 520.013671875 c 0
 51.736328125 527.338867188 57.67578125 533.27734375 65 533.27734375 c 0
 72.3251953125 533.27734375 78.2646484375 527.338867188 78.2646484375 520.013671875 c 0
219.25 513.741210938 m 0
 219.25 506.416015625 213.311523438 500.477539062 205.986328125 500.477539062 c 0
 198.661132812 500.477539062 192.72265625 506.416015625 192.72265625 513.741210938 c 0
 192.72265625 521.06640625 198.661132812 527.004882812 205.986328125 527.004882812 c 0
 213.311523438 527.004882812 219.25 521.06640625 219.25 513.741210938 c 0
305.174804688 540.362304688 m 0
 305.174804688 533.037109375 299.235351562 527.098632812 291.91015625 527.098632812 c 0
 284.584960938 527.098632812 278.646484375 533.037109375 278.646484375 540.362304688 c 0
 278.646484375 547.6875 284.584960938 553.625976562 291.91015625 553.625976562 c 0
 299.235351562 553.625976562 305.174804688 547.6875 305.174804688 540.362304688 c 0
298.693359375 453.381835938 m 0
 298.693359375 446.056640625 292.75390625 440.118164062 285.4296875 440.118164062 c 0
 278.104492188 440.118164062 272.165039062 446.056640625 272.165039062 453.381835938 c 0
 272.165039062 460.70703125 278.104492188 466.645507812 285.4296875 466.645507812 c 0
 292.75390625 466.645507812 298.693359375 460.70703125 298.693359375 453.381835938 c 0
359.201171875 436.322265625 m 0
 359.201171875 428.997070312 353.262695312 423.059570312 345.9375 423.059570312 c 0
 338.612304688 423.059570312 332.672851562 428.997070312 332.672851562 436.322265625 c 0
 332.672851562 443.647460938 338.612304688 449.5859375 345.9375 449.5859375 c 0
 353.262695312 449.5859375 359.201171875 443.647460938 359.201171875 436.322265625 c 0
383.278320312 515.916992188 m 0
 383.278320312 508.591796875 377.338867188 502.654296875 370.013671875 502.654296875 c 0
 362.689453125 502.654296875 356.75 508.591796875 356.75 515.916992188 c 0
 356.75 523.2421875 362.689453125 529.180664062 370.013671875 529.180664062 c 0
 377.338867188 529.180664062 383.278320312 523.2421875 383.278320312 515.916992188 c 0
EndSplineSet
Validated: 1
Layer: 2
EndChar

StartChar: s
Encoding: 83 115 81
Width: 493
Flags: HMW
HStem: -15 75<208 276.5 208 300> 460 75<201.5 272.5>
VStem: 40 86<373.5 412 373.5 435.5> 368 90<106 155>
LayerCount: 3
Back
SplineSet
119.426757812 161.098632812 m 1
 155.391601562 87.53125 l 1
 250.997070312 56.0634765625 l 1
 330.146484375 72.12890625 l 1
 370.321289062 132.522460938 l 1
 354.36328125 180.668945312 l 1
 294 211 l 1
 165.859375 244.896484375 l 1
 75.626953125 287.94140625 l 1
 35.6533203125 383.416992188 l 1
 97.2607421875 503.67578125 l 1
 240.706054688 540.502929688 l 1
 385.502929688 498.0625 l 1
 429.541015625 410.962890625 l 1
 353.822265625 375.252929688 l 1
 318.791992188 441.420898438 l 1
 237.283203125 463.651367188 l 1
 152.447265625 444.822265625 l 1
 123.508789062 393.538085938 l 1
 145.602539062 352.000976562 l 1
 213 325.000976562 l 1
 334.2265625 292.228515625 l 1
 421.828125 247.219726562 l 1
 462.258789062 140.517578125 l 1
 394.931640625 15.955078125 l 1
 247.936523438 -20.650390625 l 1
 93.8798828125 23.3203125 l 1
 42.9609375 125.362304688 l 1
 119.426757812 161.098632812 l 1
EndSplineSet
Fore
SplineSet
366.715820312 374.96484375 m 0
 366.715820312 367.639648438 360.776367188 361.701171875 353.451171875 361.701171875 c 0
 346.126953125 361.701171875 340.1875 367.639648438 340.1875 374.96484375 c 0
 340.1875 382.290039062 346.126953125 388.228515625 353.451171875 388.228515625 c 0
 360.776367188 388.228515625 366.715820312 382.290039062 366.715820312 374.96484375 c 0
442.7734375 410.834960938 m 0
 442.7734375 403.509765625 436.834960938 397.571289062 429.509765625 397.571289062 c 0
 422.184570312 397.571289062 416.245117188 403.509765625 416.245117188 410.834960938 c 0
 416.245117188 418.16015625 422.184570312 424.098632812 429.509765625 424.098632812 c 0
 436.834960938 424.098632812 442.7734375 418.16015625 442.7734375 410.834960938 c 0
398.396484375 497.774414062 m 0
 398.396484375 490.44921875 392.458007812 484.510742188 385.1328125 484.510742188 c 0
 377.807617188 484.510742188 371.868164062 490.44921875 371.868164062 497.774414062 c 0
 371.868164062 505.099609375 377.807617188 511.038085938 385.1328125 511.038085938 c 0
 392.458007812 511.038085938 398.396484375 505.099609375 398.396484375 497.774414062 c 0
331.685546875 441.1328125 m 0
 331.685546875 433.807617188 325.74609375 427.870117188 318.421875 427.870117188 c 0
 311.096679688 427.870117188 305.157226562 433.807617188 305.157226562 441.1328125 c 0
 305.157226562 448.458007812 311.096679688 454.396484375 318.421875 454.396484375 c 0
 325.74609375 454.396484375 331.685546875 448.458007812 331.685546875 441.1328125 c 0
250.176757812 463.36328125 m 0
 250.176757812 456.038085938 244.237304688 450.100585938 236.912109375 450.100585938 c 0
 229.587890625 450.100585938 223.6484375 456.038085938 223.6484375 463.36328125 c 0
 223.6484375 470.688476562 229.587890625 476.626953125 236.912109375 476.626953125 c 0
 244.237304688 476.626953125 250.176757812 470.688476562 250.176757812 463.36328125 c 0
253.599609375 540.21484375 m 0
 253.599609375 532.889648438 247.66015625 526.951171875 240.3359375 526.951171875 c 0
 233.010742188 526.951171875 227.071289062 532.889648438 227.071289062 540.21484375 c 0
 227.071289062 547.540039062 233.010742188 553.478515625 240.3359375 553.478515625 c 0
 247.66015625 553.478515625 253.599609375 547.540039062 253.599609375 540.21484375 c 0
165.340820312 444.534179688 m 0
 165.340820312 437.208984375 159.401367188 431.271484375 152.076171875 431.271484375 c 0
 144.751953125 431.271484375 138.8125 437.208984375 138.8125 444.534179688 c 0
 138.8125 451.859375 144.751953125 457.797851562 152.076171875 457.797851562 c 0
 159.401367188 457.797851562 165.340820312 451.859375 165.340820312 444.534179688 c 0
136.401367188 393.25 m 0
 136.401367188 385.924804688 130.462890625 379.986328125 123.137695312 379.986328125 c 0
 115.8125 379.986328125 109.874023438 385.924804688 109.874023438 393.25 c 0
 109.874023438 400.575195312 115.8125 406.513671875 123.137695312 406.513671875 c 0
 130.462890625 406.513671875 136.401367188 400.575195312 136.401367188 393.25 c 0
110.153320312 503.387695312 m 0
 110.153320312 496.0625 104.21484375 490.124023438 96.8896484375 490.124023438 c 0
 89.564453125 490.124023438 83.6259765625 496.0625 83.6259765625 503.387695312 c 0
 83.6259765625 510.712890625 89.564453125 516.651367188 96.8896484375 516.651367188 c 0
 104.21484375 516.651367188 110.153320312 510.712890625 110.153320312 503.387695312 c 0
48.546875 383.130859375 m 0
 48.546875 375.8046875 42.607421875 369.8671875 35.2822265625 369.8671875 c 0
 27.9580078125 369.8671875 22.0185546875 375.8046875 22.0185546875 383.130859375 c 0
 22.0185546875 390.456054688 27.9580078125 396.393554688 35.2822265625 396.393554688 c 0
 42.607421875 396.393554688 48.546875 390.456054688 48.546875 383.130859375 c 0
158.495117188 351.712890625 m 0
 158.495117188 344.387695312 152.556640625 338.450195312 145.231445312 338.450195312 c 0
 137.90625 338.450195312 131.967773438 344.387695312 131.967773438 351.712890625 c 0
 131.967773438 359.038085938 137.90625 364.9765625 145.231445312 364.9765625 c 0
 152.556640625 364.9765625 158.495117188 359.038085938 158.495117188 351.712890625 c 0
88.5205078125 287.654296875 m 0
 88.5205078125 280.329101562 82.58203125 274.390625 75.2568359375 274.390625 c 0
 67.931640625 274.390625 61.9921875 280.329101562 61.9921875 287.654296875 c 0
 61.9921875 294.979492188 67.931640625 300.91796875 75.2568359375 300.91796875 c 0
 82.58203125 300.91796875 88.5205078125 294.979492188 88.5205078125 287.654296875 c 0
225.891601562 324.713867188 m 0
 225.891601562 317.388671875 219.952148438 311.450195312 212.627929688 311.450195312 c 0
 205.302734375 311.450195312 199.36328125 317.388671875 199.36328125 324.713867188 c 0
 199.36328125 332.0390625 205.302734375 337.9765625 212.627929688 337.9765625 c 0
 219.952148438 337.9765625 225.891601562 332.0390625 225.891601562 324.713867188 c 0
178.752929688 244.609375 m 0
 178.752929688 237.284179688 172.813476562 231.345703125 165.48828125 231.345703125 c 0
 158.163085938 231.345703125 152.224609375 237.284179688 152.224609375 244.609375 c 0
 152.224609375 251.934570312 158.163085938 257.873046875 165.48828125 257.873046875 c 0
 172.813476562 257.873046875 178.752929688 251.934570312 178.752929688 244.609375 c 0
347.120117188 291.940429688 m 0
 347.120117188 284.615234375 341.181640625 278.676757812 333.856445312 278.676757812 c 0
 326.53125 278.676757812 320.592773438 284.615234375 320.592773438 291.940429688 c 0
 320.592773438 299.265625 326.53125 305.204101562 333.856445312 305.204101562 c 0
 341.181640625 305.204101562 347.120117188 299.265625 347.120117188 291.940429688 c 0
306.89453125 210.712890625 m 0
 306.89453125 203.387695312 300.955078125 197.44921875 293.630859375 197.44921875 c 0
 286.305664062 197.44921875 280.366210938 203.387695312 280.366210938 210.712890625 c 0
 280.366210938 218.038085938 286.305664062 223.975585938 293.630859375 223.975585938 c 0
 300.955078125 223.975585938 306.89453125 218.038085938 306.89453125 210.712890625 c 0
434.415039062 247.08984375 m 0
 434.415039062 239.764648438 428.475585938 233.826171875 421.150390625 233.826171875 c 0
 413.825195312 233.826171875 407.88671875 239.764648438 407.88671875 247.08984375 c 0
 407.88671875 254.415039062 413.825195312 260.353515625 421.150390625 260.353515625 c 0
 428.475585938 260.353515625 434.415039062 254.415039062 434.415039062 247.08984375 c 0
367.2578125 180.381835938 m 0
 367.2578125 173.056640625 361.318359375 167.118164062 353.993164062 167.118164062 c 0
 346.668945312 167.118164062 340.729492188 173.056640625 340.729492188 180.381835938 c 0
 340.729492188 187.70703125 346.668945312 193.645507812 353.993164062 193.645507812 c 0
 361.318359375 193.645507812 367.2578125 187.70703125 367.2578125 180.381835938 c 0
475.15234375 140.229492188 m 0
 475.15234375 132.904296875 469.213867188 126.965820312 461.888671875 126.965820312 c 0
 454.563476562 126.965820312 448.625 132.904296875 448.625 140.229492188 c 0
 448.625 147.5546875 454.563476562 153.493164062 461.888671875 153.493164062 c 0
 469.213867188 153.493164062 475.15234375 147.5546875 475.15234375 140.229492188 c 0
383.215820312 132.235351562 m 0
 383.215820312 124.91015625 377.276367188 118.971679688 369.951171875 118.971679688 c 0
 362.626953125 118.971679688 356.6875 124.91015625 356.6875 132.235351562 c 0
 356.6875 139.560546875 362.626953125 145.499023438 369.951171875 145.499023438 c 0
 377.276367188 145.499023438 383.215820312 139.560546875 383.215820312 132.235351562 c 0
343.041015625 71.841796875 m 0
 343.041015625 64.5166015625 337.1015625 58.578125 329.776367188 58.578125 c 0
 322.451171875 58.578125 316.512695312 64.5166015625 316.512695312 71.841796875 c 0
 316.512695312 79.1669921875 322.451171875 85.10546875 329.776367188 85.10546875 c 0
 337.1015625 85.10546875 343.041015625 79.1669921875 343.041015625 71.841796875 c 0
407.825195312 15.66796875 m 0
 407.825195312 8.3427734375 401.88671875 2.404296875 394.561523438 2.404296875 c 0
 387.236328125 2.404296875 381.297851562 8.3427734375 381.297851562 15.66796875 c 0
 381.297851562 22.9931640625 387.236328125 28.931640625 394.561523438 28.931640625 c 0
 401.88671875 28.931640625 407.825195312 22.9931640625 407.825195312 15.66796875 c 0
263.890625 55.7763671875 m 0
 263.890625 48.451171875 257.951171875 42.5126953125 250.626953125 42.5126953125 c 0
 243.301757812 42.5126953125 237.362304688 48.451171875 237.362304688 55.7763671875 c 0
 237.362304688 63.1015625 243.301757812 69.0400390625 250.626953125 69.0400390625 c 0
 257.951171875 69.0400390625 263.890625 63.1015625 263.890625 55.7763671875 c 0
260.830078125 -20.9375 m 0
 260.830078125 -28.2626953125 254.891601562 -34.201171875 247.56640625 -34.201171875 c 0
 240.241210938 -34.201171875 234.302734375 -28.2626953125 234.302734375 -20.9375 c 0
 234.302734375 -13.6123046875 240.241210938 -7.673828125 247.56640625 -7.673828125 c 0
 254.891601562 -7.673828125 260.830078125 -13.6123046875 260.830078125 -20.9375 c 0
106.7734375 23.033203125 m 0
 106.7734375 15.7080078125 100.834960938 9.76953125 93.509765625 9.76953125 c 0
 86.1845703125 9.76953125 80.2451171875 15.7080078125 80.2451171875 23.033203125 c 0
 80.2451171875 30.3583984375 86.1845703125 36.296875 93.509765625 36.296875 c 0
 100.834960938 36.296875 106.7734375 30.3583984375 106.7734375 23.033203125 c 0
168.28515625 87.244140625 m 0
 168.28515625 79.9189453125 162.346679688 73.98046875 155.021484375 73.98046875 c 0
 147.696289062 73.98046875 141.7578125 79.9189453125 141.7578125 87.244140625 c 0
 141.7578125 94.5693359375 147.696289062 100.5078125 155.021484375 100.5078125 c 0
 162.346679688 100.5078125 168.28515625 94.5693359375 168.28515625 87.244140625 c 0
132.3203125 160.811523438 m 0
 132.3203125 153.486328125 126.381835938 147.547851562 119.056640625 147.547851562 c 0
 111.731445312 147.547851562 105.79296875 153.486328125 105.79296875 160.811523438 c 0
 105.79296875 168.13671875 111.731445312 174.075195312 119.056640625 174.075195312 c 0
 126.381835938 174.075195312 132.3203125 168.13671875 132.3203125 160.811523438 c 0
56.34765625 124.087890625 m 0
 56.34765625 116.762695312 50.408203125 110.82421875 43.083984375 110.82421875 c 0
 35.7587890625 110.82421875 29.8193359375 116.762695312 29.8193359375 124.087890625 c 0
 29.8193359375 131.413085938 35.7587890625 137.3515625 43.083984375 137.3515625 c 0
 50.408203125 137.3515625 56.34765625 131.413085938 56.34765625 124.087890625 c 0
EndSplineSet
Validated: 1
Layer: 2
EndChar

StartChar: t
Encoding: 84 116 82
Width: 322
Flags: HMW
HStem: -10 80<207.597 225.597> 451 69<20.0967 94.0967 20.0967 94.0967 184.097 273.097> 680 20G<184.097 184.097>
VStem: 94.0967 90<152 451 520 657 657 657>
LayerCount: 3
Back
SplineSet
285.784179688 -6.974609375 m 1
 217.001953125 -16.5859375 l 1
 114.52734375 26.4404296875 l 1
 93.9990234375 152 l 1
 93.9990234375 451 l 1
 19.9990234375 451 l 1
 19.9990234375 520 l 1
 93.9990234375 520 l 1
 93.9990234375 700 l 1
 183.999023438 700 l 1
 183.999023438 520 l 1
 272.999023438 520 l 1
 272.999023438 451 l 1
 183.999023438 451 l 1
 183.999023438 152 l 1
 191.752929688 86.5361328125 l 1
 235.118164062 64.5673828125 l 1
 275.419921875 70.60546875 l 1
 285.801757812 -6.9580078125 l 1
 285.784179688 -6.974609375 l 1
EndSplineSet
Fore
SplineSet
107.278320312 699.986328125 m 0
 107.278320312 692.661132812 101.338867188 686.72265625 94.013671875 686.72265625 c 0
 86.689453125 686.72265625 80.75 692.661132812 80.75 699.986328125 c 0
 80.75 707.311523438 86.689453125 713.25 94.013671875 713.25 c 0
 101.338867188 713.25 107.278320312 707.311523438 107.278320312 699.986328125 c 0
197.278320312 699.986328125 m 0
 197.278320312 692.661132812 191.338867188 686.72265625 184.013671875 686.72265625 c 0
 176.689453125 686.72265625 170.75 692.661132812 170.75 699.986328125 c 0
 170.75 707.311523438 176.689453125 713.25 184.013671875 713.25 c 0
 191.338867188 713.25 197.278320312 707.311523438 197.278320312 699.986328125 c 0
286.278320312 519.986328125 m 0
 286.278320312 512.661132812 280.338867188 506.72265625 273.013671875 506.72265625 c 0
 265.689453125 506.72265625 259.75 512.661132812 259.75 519.986328125 c 0
 259.75 527.311523438 265.689453125 533.25 273.013671875 533.25 c 0
 280.338867188 533.25 286.278320312 527.311523438 286.278320312 519.986328125 c 0
286.278320312 450.986328125 m 0
 286.278320312 443.661132812 280.338867188 437.72265625 273.013671875 437.72265625 c 0
 265.689453125 437.72265625 259.75 443.661132812 259.75 450.986328125 c 0
 259.75 458.311523438 265.689453125 464.25 273.013671875 464.25 c 0
 280.338867188 464.25 286.278320312 458.311523438 286.278320312 450.986328125 c 0
197.278320312 450.986328125 m 0
 197.278320312 443.661132812 191.338867188 437.72265625 184.013671875 437.72265625 c 0
 176.689453125 437.72265625 170.75 443.661132812 170.75 450.986328125 c 0
 170.75 458.311523438 176.689453125 464.25 184.013671875 464.25 c 0
 191.338867188 464.25 197.278320312 458.311523438 197.278320312 450.986328125 c 0
197.278320312 519.986328125 m 0
 197.278320312 512.661132812 191.338867188 506.72265625 184.013671875 506.72265625 c 0
 176.689453125 506.72265625 170.75 512.661132812 170.75 519.986328125 c 0
 170.75 527.311523438 176.689453125 533.25 184.013671875 533.25 c 0
 191.338867188 533.25 197.278320312 527.311523438 197.278320312 519.986328125 c 0
6.75 519.986328125 m 0
 6.75 527.311523438 12.689453125 533.25 20.013671875 533.25 c 0
 27.3388671875 533.25 33.2783203125 527.311523438 33.2783203125 519.986328125 c 0
 33.2783203125 512.661132812 27.3388671875 506.72265625 20.013671875 506.72265625 c 0
 12.689453125 506.72265625 6.75 512.661132812 6.75 519.986328125 c 0
6.75 450.986328125 m 0
 6.75 458.311523438 12.689453125 464.25 20.013671875 464.25 c 0
 27.3388671875 464.25 33.2783203125 458.311523438 33.2783203125 450.986328125 c 0
 33.2783203125 443.661132812 27.3388671875 437.72265625 20.013671875 437.72265625 c 0
 12.689453125 437.72265625 6.75 443.661132812 6.75 450.986328125 c 0
101.278320312 26.4267578125 m 0
 101.278320312 33.751953125 107.216796875 39.6904296875 114.541992188 39.6904296875 c 0
 121.8671875 39.6904296875 127.805664062 33.751953125 127.805664062 26.4267578125 c 0
 127.805664062 19.1015625 121.8671875 13.1630859375 114.541992188 13.1630859375 c 0
 107.216796875 13.1630859375 101.278320312 19.1015625 101.278320312 26.4267578125 c 0
80.75 519.986328125 m 0
 80.75 527.311523438 86.689453125 533.25 94.013671875 533.25 c 0
 101.338867188 533.25 107.278320312 527.311523438 107.278320312 519.986328125 c 0
 107.278320312 512.661132812 101.338867188 506.72265625 94.013671875 506.72265625 c 0
 86.689453125 506.72265625 80.75 512.661132812 80.75 519.986328125 c 0
203.751953125 -16.599609375 m 0
 203.751953125 -9.2744140625 209.69140625 -3.3359375 217.015625 -3.3359375 c 0
 224.340820312 -3.3359375 230.280273438 -9.2744140625 230.280273438 -16.599609375 c 0
 230.280273438 -23.9248046875 224.340820312 -29.86328125 217.015625 -29.86328125 c 0
 209.69140625 -29.86328125 203.751953125 -23.9248046875 203.751953125 -16.599609375 c 0
221.8671875 64.5537109375 m 0
 221.8671875 71.87890625 227.805664062 77.8173828125 235.130859375 77.8173828125 c 0
 242.456054688 77.8173828125 248.39453125 71.87890625 248.39453125 64.5537109375 c 0
 248.39453125 57.228515625 242.456054688 51.2900390625 235.130859375 51.2900390625 c 0
 227.805664062 51.2900390625 221.8671875 57.228515625 221.8671875 64.5537109375 c 0
178.50390625 86.5224609375 m 0
 178.50390625 93.84765625 184.443359375 99.78515625 191.767578125 99.78515625 c 0
 199.092773438 99.78515625 205.032226562 93.84765625 205.032226562 86.5224609375 c 0
 205.032226562 79.197265625 199.092773438 73.2587890625 191.767578125 73.2587890625 c 0
 184.443359375 73.2587890625 178.50390625 79.197265625 178.50390625 86.5224609375 c 0
170.75 151.986328125 m 0
 170.75 159.311523438 176.689453125 165.25 184.013671875 165.25 c 0
 191.338867188 165.25 197.278320312 159.311523438 197.278320312 151.986328125 c 0
 197.278320312 144.661132812 191.338867188 138.72265625 184.013671875 138.72265625 c 0
 176.689453125 138.72265625 170.75 144.661132812 170.75 151.986328125 c 0
80.75 151.984375 m 0
 80.75 159.309570312 86.689453125 165.248046875 94.013671875 165.248046875 c 0
 101.338867188 165.248046875 107.278320312 159.309570312 107.278320312 151.984375 c 0
 107.278320312 144.659179688 101.338867188 138.721679688 94.013671875 138.721679688 c 0
 86.689453125 138.721679688 80.75 144.659179688 80.75 151.984375 c 0
262.169921875 70.591796875 m 0
 262.169921875 77.9169921875 268.109375 83.85546875 275.43359375 83.85546875 c 0
 282.758789062 83.85546875 288.698242188 77.9169921875 288.698242188 70.591796875 c 0
 288.698242188 63.2666015625 282.758789062 57.328125 275.43359375 57.328125 c 0
 268.109375 57.328125 262.169921875 63.2666015625 262.169921875 70.591796875 c 0
272.534179688 -6.98828125 m 0
 272.534179688 0.3369140625 278.47265625 6.2744140625 285.797851562 6.2744140625 c 0
 293.123046875 6.2744140625 299.061523438 0.3369140625 299.061523438 -6.98828125 c 0
 299.061523438 -14.3134765625 293.123046875 -20.251953125 285.797851562 -20.251953125 c 0
 278.47265625 -20.251953125 272.534179688 -14.3134765625 272.534179688 -6.98828125 c 0
80.75 450.986328125 m 0
 80.75 458.311523438 86.689453125 464.25 94.013671875 464.25 c 0
 101.338867188 464.25 107.278320312 458.311523438 107.278320312 450.986328125 c 0
 107.278320312 443.661132812 101.338867188 437.72265625 94.013671875 437.72265625 c 0
 86.689453125 437.72265625 80.75 443.661132812 80.75 450.986328125 c 0
EndSplineSet
Validated: 1
Layer: 2
EndChar

StartChar: u
Encoding: 85 117 83
Width: 555
Flags: HMW
HStem: -15 76<220.059 277.059> 0 61 500 20G<62.0586 152.059 152.059 152.059 397.059 487.059 487.059 487.059>
VStem: 62.0586 90<201 205 205 520> 397.059 90<237 520 0 520>
LayerCount: 3
Back
SplineSet
491.4765625 520 m 1
 491.4765625 0 l 1
 410.4765625 0 l 1
 410.4765625 75 l 1
 339.522460938 3.7451171875 l 1
 242.323242188 -20.3232421875 l 1
 95.955078125 42.3916015625 l 1
 62.0009765625 201.999023438 l 1
 62.0009765625 519.999023438 l 1
 152.000976562 519.999023438 l 1
 152.000976562 202.673828125 l 1
 176.459960938 96.1845703125 l 1
 260.807617188 57.15625 l 1
 362.493164062 103.329101562 l 1
 401.477539062 238.088867188 l 1
 401.477539062 520 l 1
 491.477539062 520 l 1
 491.4765625 520 l 1
EndSplineSet
Fore
SplineSet
75.2880859375 520.013671875 m 0x38
 75.2880859375 512.688476562 69.3486328125 506.75 62.0234375 506.75 c 0
 54.69921875 506.75 48.759765625 512.688476562 48.759765625 520.013671875 c 0
 48.759765625 527.338867188 54.69921875 533.27734375 62.0234375 533.27734375 c 0
 69.3486328125 533.27734375 75.2880859375 527.338867188 75.2880859375 520.013671875 c 0x38
165.288085938 520.013671875 m 0
 165.288085938 512.688476562 159.348632812 506.75 152.0234375 506.75 c 0
 144.69921875 506.75 138.759765625 512.688476562 138.759765625 520.013671875 c 0
 138.759765625 527.338867188 144.69921875 533.276367188 152.0234375 533.276367188 c 0
 159.348632812 533.276367188 165.288085938 527.338867188 165.288085938 520.013671875 c 0
414.764648438 520.013671875 m 0
 414.764648438 512.688476562 408.826171875 506.75 401.500976562 506.75 c 0
 394.17578125 506.75 388.236328125 512.688476562 388.236328125 520.013671875 c 0
 388.236328125 527.338867188 394.17578125 533.27734375 401.500976562 533.27734375 c 0
 408.826171875 533.27734375 414.764648438 527.338867188 414.764648438 520.013671875 c 0
504.764648438 520.013671875 m 0
 504.764648438 512.688476562 498.826171875 506.75 491.500976562 506.75 c 0
 484.17578125 506.75 478.236328125 512.688476562 478.236328125 520.013671875 c 0
 478.236328125 527.338867188 484.17578125 533.276367188 491.500976562 533.276367188 c 0
 498.826171875 533.276367188 504.764648438 527.338867188 504.764648438 520.013671875 c 0
423.763671875 0.013671875 m 0
 423.763671875 -7.3115234375 417.825195312 -13.25 410.5 -13.25 c 0
 403.174804688 -13.25 397.235351562 -7.3115234375 397.235351562 0.013671875 c 0
 397.235351562 7.3388671875 403.174804688 13.27734375 410.5 13.27734375 c 0
 417.825195312 13.27734375 423.763671875 7.3388671875 423.763671875 0.013671875 c 0
504.763671875 0.013671875 m 0
 504.763671875 -7.3115234375 498.825195312 -13.25 491.5 -13.25 c 0
 484.174804688 -13.25 478.235351562 -7.3115234375 478.235351562 0.013671875 c 0
 478.235351562 7.3388671875 484.174804688 13.27734375 491.5 13.27734375 c 0
 498.825195312 13.27734375 504.763671875 7.3388671875 504.763671875 0.013671875 c 0
423.763671875 75.013671875 m 0
 423.763671875 67.6884765625 417.825195312 61.75 410.5 61.75 c 0
 403.174804688 61.75 397.235351562 67.6884765625 397.235351562 75.013671875 c 0
 397.235351562 82.3388671875 403.174804688 88.27734375 410.5 88.27734375 c 0
 417.825195312 88.27734375 423.763671875 82.3388671875 423.763671875 75.013671875 c 0
414.764648438 238.10546875 m 0
 414.764648438 230.779296875 408.826171875 224.841796875 401.500976562 224.841796875 c 0
 394.17578125 224.841796875 388.236328125 230.779296875 388.236328125 238.10546875 c 0
 388.236328125 245.430664062 394.17578125 251.368164062 401.500976562 251.368164062 c 0
 408.826171875 251.368164062 414.764648438 245.430664062 414.764648438 238.10546875 c 0
375.779296875 103.342773438 m 0
 375.779296875 96.017578125 369.840820312 90.0791015625 362.515625 90.0791015625 c 0
 355.190429688 90.0791015625 349.251953125 96.017578125 349.251953125 103.342773438 c 0
 349.251953125 110.66796875 355.190429688 116.606445312 362.515625 116.606445312 c 0
 369.840820312 116.606445312 375.779296875 110.66796875 375.779296875 103.342773438 c 0
352.809570312 3.7587890625 m 0
 352.809570312 -3.56640625 346.87109375 -9.5048828125 339.545898438 -9.5048828125 c 0
 332.220703125 -9.5048828125 326.282226562 -3.56640625 326.282226562 3.7587890625 c 0
 326.282226562 11.083984375 332.220703125 17.0224609375 339.545898438 17.0224609375 c 0
 346.87109375 17.0224609375 352.809570312 11.083984375 352.809570312 3.7587890625 c 0
255.610351562 -20.3095703125 m 0
 255.610351562 -27.634765625 249.671875 -33.5732421875 242.346679688 -33.5732421875 c 0
 235.021484375 -33.5732421875 229.083007812 -27.634765625 229.083007812 -20.3095703125 c 0
 229.083007812 -12.984375 235.021484375 -7.0458984375 242.346679688 -7.0458984375 c 0
 249.671875 -7.0458984375 255.610351562 -12.984375 255.610351562 -20.3095703125 c 0
274.09375 57.169921875 m 0
 274.09375 49.8447265625 268.154296875 43.90625 260.830078125 43.90625 c 0
 253.504882812 43.90625 247.565429688 49.8447265625 247.565429688 57.169921875 c 0
 247.565429688 64.4951171875 253.504882812 70.43359375 260.830078125 70.43359375 c 0
 268.154296875 70.43359375 274.09375 64.4951171875 274.09375 57.169921875 c 0
189.747070312 96.1982421875 m 0
 189.747070312 88.873046875 183.807617188 82.9345703125 176.482421875 82.9345703125 c 0
 169.158203125 82.9345703125 163.21875 88.873046875 163.21875 96.1982421875 c 0
 163.21875 103.5234375 169.158203125 109.461914062 176.482421875 109.461914062 c 0
 183.807617188 109.461914062 189.747070312 103.5234375 189.747070312 96.1982421875 c 0
109.2421875 42.4052734375 m 0
 109.2421875 35.080078125 103.302734375 29.1416015625 95.9775390625 29.1416015625 c 0
 88.65234375 29.1416015625 82.7138671875 35.080078125 82.7138671875 42.4052734375 c 0
 82.7138671875 49.73046875 88.65234375 55.6689453125 95.9775390625 55.6689453125 c 0
 103.302734375 55.6689453125 109.2421875 49.73046875 109.2421875 42.4052734375 c 0
75.2880859375 202.012695312 m 0
 75.2880859375 194.6875 69.3486328125 188.749023438 62.0234375 188.749023438 c 0
 54.69921875 188.749023438 48.759765625 194.6875 48.759765625 202.012695312 c 0
 48.759765625 209.337890625 54.69921875 215.276367188 62.0234375 215.276367188 c 0
 69.3486328125 215.276367188 75.2880859375 209.337890625 75.2880859375 202.012695312 c 0
165.288085938 202.6875 m 0
 165.288085938 195.362304688 159.348632812 189.423828125 152.0234375 189.423828125 c 0
 144.69921875 189.423828125 138.759765625 195.362304688 138.759765625 202.6875 c 0
 138.759765625 210.012695312 144.69921875 215.951171875 152.0234375 215.951171875 c 0
 159.348632812 215.951171875 165.288085938 210.012695312 165.288085938 202.6875 c 0
EndSplineSet
Validated: 1
Layer: 2
EndChar

StartChar: v
Encoding: 86 118 84
Width: 495
Flags: HMW
HStem: 0 21G<207 289 207 207> 500 20G<10 102 102 102 395 485 485 485>
LayerCount: 3
Back
SplineSet
289 0 m 5
 207 0 l 5
 18 500 l 5
 98 528 l 5
 247 104 l 5
 398 528 l 5
 478 500 l 5
 289 0 l 5
EndSplineSet
Fore
SplineSet
411.325195312 527.837890625 m 0
 411.325195312 520.512695312 405.385742188 514.57421875 398.060546875 514.57421875 c 0
 390.736328125 514.57421875 384.796875 520.512695312 384.796875 527.837890625 c 0
 384.796875 535.163085938 390.736328125 541.1015625 398.060546875 541.1015625 c 0
 405.385742188 541.1015625 411.325195312 535.163085938 411.325195312 527.837890625 c 0
491.325195312 499.837890625 m 0
 491.325195312 492.512695312 485.385742188 486.57421875 478.060546875 486.57421875 c 0
 470.736328125 486.57421875 464.796875 492.512695312 464.796875 499.837890625 c 0
 464.796875 507.163085938 470.736328125 513.1015625 478.060546875 513.1015625 c 0
 485.385742188 513.1015625 491.325195312 507.163085938 491.325195312 499.837890625 c 0
111.325195312 527.837890625 m 0
 111.325195312 520.512695312 105.385742188 514.57421875 98.060546875 514.57421875 c 0
 90.736328125 514.57421875 84.796875 520.512695312 84.796875 527.837890625 c 0
 84.796875 535.163085938 90.736328125 541.1015625 98.060546875 541.1015625 c 0
 105.385742188 541.1015625 111.325195312 535.163085938 111.325195312 527.837890625 c 0
31.3251953125 499.837890625 m 0
 31.3251953125 492.512695312 25.3857421875 486.57421875 18.060546875 486.57421875 c 0
 10.736328125 486.57421875 4.796875 492.512695312 4.796875 499.837890625 c 0
 4.796875 507.163085938 10.736328125 513.1015625 18.060546875 513.1015625 c 0
 25.3857421875 513.1015625 31.3251953125 507.163085938 31.3251953125 499.837890625 c 0
260.325195312 103.837890625 m 0
 260.325195312 96.5126953125 254.385742188 90.57421875 247.060546875 90.57421875 c 0
 239.736328125 90.57421875 233.796875 96.5126953125 233.796875 103.837890625 c 0
 233.796875 111.163085938 239.736328125 117.1015625 247.060546875 117.1015625 c 0
 254.385742188 117.1015625 260.325195312 111.163085938 260.325195312 103.837890625 c 0
302.385742188 0 m 0
 302.385742188 -7.3251953125 296.447265625 -13.263671875 289.122070312 -13.263671875 c 0
 281.796875 -13.263671875 275.857421875 -7.3251953125 275.857421875 0 c 0
 275.857421875 7.3251953125 281.796875 13.2626953125 289.122070312 13.2626953125 c 0
 296.447265625 13.2626953125 302.385742188 7.3251953125 302.385742188 0 c 0
220.263671875 0 m 0
 220.263671875 -7.3251953125 214.325195312 -13.263671875 207 -13.263671875 c 0
 199.674804688 -13.263671875 193.736328125 -7.3251953125 193.736328125 0 c 0
 193.736328125 7.3251953125 199.674804688 13.2626953125 207 13.2626953125 c 0
 214.325195312 13.2626953125 220.263671875 7.3251953125 220.263671875 0 c 0
EndSplineSet
Validated: 1
Layer: 2
EndChar

StartChar: w
Encoding: 87 119 85
Width: 731
Flags: HMW
HStem: 0 21G<167 260 167 167 468 468 468 559> 500 20G<10 101 101 101 321 412 412 412 636 721 721 721>
LayerCount: 3
Back
SplineSet
260 0 m 1
 167 0 l 1
 16 504 l 1
 99 528 l 5
 214 108 l 1
 321 520 l 1
 412 520 l 1
 517 119 l 1
 639 528 l 1
 716 504 l 1
 559 0 l 1
 468 0 l 1
 368 399 l 1
 260 0 l 1
EndSplineSet
Fore
SplineSet
112.278320312 528 m 0
 112.278320312 520.674804688 106.338867188 514.736328125 99.013671875 514.736328125 c 0
 91.689453125 514.736328125 85.75 520.674804688 85.75 528 c 0
 85.75 535.325195312 91.689453125 541.263671875 99.013671875 541.263671875 c 0
 106.338867188 541.263671875 112.278320312 535.325195312 112.278320312 528 c 0
29.2783203125 504 m 0
 29.2783203125 496.674804688 23.3388671875 490.736328125 16.013671875 490.736328125 c 0
 8.689453125 490.736328125 2.75 496.674804688 2.75 504 c 0
 2.75 511.325195312 8.689453125 517.263671875 16.013671875 517.263671875 c 0
 23.3388671875 517.263671875 29.2783203125 511.325195312 29.2783203125 504 c 0
180.278320312 0 m 0
 180.278320312 -7.3251953125 174.338867188 -13.263671875 167.013671875 -13.263671875 c 0
 159.689453125 -13.263671875 153.75 -7.3251953125 153.75 0 c 0
 153.75 7.3251953125 159.689453125 13.263671875 167.013671875 13.263671875 c 0
 174.338867188 13.263671875 180.278320312 7.3251953125 180.278320312 0 c 0
273.278320312 0 m 0
 273.278320312 -7.3251953125 267.338867188 -13.263671875 260.013671875 -13.263671875 c 0
 252.689453125 -13.263671875 246.75 -7.3251953125 246.75 0 c 0
 246.75 7.3251953125 252.689453125 13.263671875 260.013671875 13.263671875 c 0
 267.338867188 13.263671875 273.278320312 7.3251953125 273.278320312 0 c 0
227.278320312 108 m 0
 227.278320312 100.674804688 221.338867188 94.736328125 214.013671875 94.736328125 c 0
 206.689453125 94.736328125 200.75 100.674804688 200.75 108 c 0
 200.75 115.325195312 206.689453125 121.263671875 214.013671875 121.263671875 c 0
 221.338867188 121.263671875 227.278320312 115.325195312 227.278320312 108 c 0
334.278320312 520 m 0
 334.278320312 512.674804688 328.338867188 506.736328125 321.013671875 506.736328125 c 0
 313.689453125 506.736328125 307.75 512.674804688 307.75 520 c 0
 307.75 527.325195312 313.689453125 533.263671875 321.013671875 533.263671875 c 0
 328.338867188 533.263671875 334.278320312 527.325195312 334.278320312 520 c 0
425.278320312 520 m 0
 425.278320312 512.674804688 419.338867188 506.736328125 412.013671875 506.736328125 c 0
 404.689453125 506.736328125 398.75 512.674804688 398.75 520 c 0
 398.75 527.325195312 404.689453125 533.263671875 412.013671875 533.263671875 c 0
 419.338867188 533.263671875 425.278320312 527.325195312 425.278320312 520 c 0
381.278320312 399 m 0
 381.278320312 391.674804688 375.338867188 385.736328125 368.013671875 385.736328125 c 0
 360.689453125 385.736328125 354.75 391.674804688 354.75 399 c 0
 354.75 406.325195312 360.689453125 412.263671875 368.013671875 412.263671875 c 0
 375.338867188 412.263671875 381.278320312 406.325195312 381.278320312 399 c 0
652.278320312 528 m 0
 652.278320312 520.674804688 646.338867188 514.736328125 639.013671875 514.736328125 c 0
 631.689453125 514.736328125 625.75 520.674804688 625.75 528 c 0
 625.75 535.325195312 631.689453125 541.263671875 639.013671875 541.263671875 c 0
 646.338867188 541.263671875 652.278320312 535.325195312 652.278320312 528 c 0
729.278320312 504 m 0
 729.278320312 496.674804688 723.338867188 490.736328125 716.013671875 490.736328125 c 0
 708.689453125 490.736328125 702.75 496.674804688 702.75 504 c 0
 702.75 511.325195312 708.689453125 517.263671875 716.013671875 517.263671875 c 0
 723.338867188 517.263671875 729.278320312 511.325195312 729.278320312 504 c 0
530.278320312 119 m 0
 530.278320312 111.674804688 524.338867188 105.736328125 517.013671875 105.736328125 c 0
 509.689453125 105.736328125 503.75 111.674804688 503.75 119 c 0
 503.75 126.325195312 509.689453125 132.263671875 517.013671875 132.263671875 c 0
 524.338867188 132.263671875 530.278320312 126.325195312 530.278320312 119 c 0
481.278320312 0 m 0
 481.278320312 -7.3251953125 475.338867188 -13.263671875 468.013671875 -13.263671875 c 0
 460.689453125 -13.263671875 454.75 -7.3251953125 454.75 0 c 0
 454.75 7.3251953125 460.689453125 13.263671875 468.013671875 13.263671875 c 0
 475.338867188 13.263671875 481.278320312 7.3251953125 481.278320312 0 c 0
572.278320312 0 m 0
 572.278320312 -7.3251953125 566.338867188 -13.263671875 559.013671875 -13.263671875 c 0
 551.689453125 -13.263671875 545.75 -7.3251953125 545.75 0 c 0
 545.75 7.3251953125 551.689453125 13.263671875 559.013671875 13.263671875 c 0
 566.338867188 13.263671875 572.278320312 7.3251953125 572.278320312 0 c 0
EndSplineSet
Validated: 1
Layer: 2
EndChar

StartChar: x
Encoding: 88 120 86
Width: 517
Flags: HMW
HStem: 0 21G<20 124 20 20 391 391 391 497> 500 20G<32 140 140 140 381 483 483 483>
LayerCount: 3
Back
SplineSet
119 -8 m 1
 49 40.75 l 1
 205 266 l 1
 59 481 l 1
 134 528 l 1
 260 332 l 1
 387 528 l 1
 456 481 l 5
 307 269 l 1
 468 41 l 1
 396 -8 l 1
 257 200 l 1
 119 -8 l 1
EndSplineSet
Fore
SplineSet
132.514648438 -8.2373046875 m 0
 132.514648438 -15.5625 126.575195312 -21.5 119.25 -21.5 c 0
 111.92578125 -21.5 105.986328125 -15.5625 105.986328125 -8.2373046875 c 0
 105.986328125 -0.912109375 111.92578125 5.0263671875 119.25 5.0263671875 c 0
 126.575195312 5.0263671875 132.514648438 -0.912109375 132.514648438 -8.2373046875 c 0
62.5146484375 40.5126953125 m 0
 62.5146484375 33.1875 56.5751953125 27.25 49.25 27.25 c 0
 41.92578125 27.25 35.986328125 33.1875 35.986328125 40.5126953125 c 0
 35.986328125 47.837890625 41.92578125 53.7763671875 49.25 53.7763671875 c 0
 56.5751953125 53.7763671875 62.5146484375 47.837890625 62.5146484375 40.5126953125 c 0
409.514648438 -8.2373046875 m 0
 409.514648438 -15.5625 403.575195312 -21.5 396.25 -21.5 c 0
 388.92578125 -21.5 382.986328125 -15.5625 382.986328125 -8.2373046875 c 0
 382.986328125 -0.912109375 388.92578125 5.0263671875 396.25 5.0263671875 c 0
 403.575195312 5.0263671875 409.514648438 -0.912109375 409.514648438 -8.2373046875 c 0
481.514648438 40.7626953125 m 0
 481.514648438 33.4375 475.575195312 27.5 468.25 27.5 c 0
 460.92578125 27.5 454.986328125 33.4375 454.986328125 40.7626953125 c 0
 454.986328125 48.087890625 460.92578125 54.0263671875 468.25 54.0263671875 c 0
 475.575195312 54.0263671875 481.514648438 48.087890625 481.514648438 40.7626953125 c 0
320.514648438 268.762695312 m 0
 320.514648438 261.4375 314.575195312 255.5 307.25 255.5 c 0
 299.92578125 255.5 293.986328125 261.4375 293.986328125 268.762695312 c 0
 293.986328125 276.087890625 299.92578125 282.026367188 307.25 282.026367188 c 0
 314.575195312 282.026367188 320.514648438 276.087890625 320.514648438 268.762695312 c 0
270.514648438 199.762695312 m 0
 270.514648438 192.4375 264.575195312 186.5 257.25 186.5 c 0
 249.92578125 186.5 243.986328125 192.4375 243.986328125 199.762695312 c 0
 243.986328125 207.087890625 249.92578125 213.026367188 257.25 213.026367188 c 0
 264.575195312 213.026367188 270.514648438 207.087890625 270.514648438 199.762695312 c 0
218.514648438 265.762695312 m 0
 218.514648438 258.4375 212.575195312 252.5 205.25 252.5 c 0
 197.92578125 252.5 191.986328125 258.4375 191.986328125 265.762695312 c 0
 191.986328125 273.087890625 197.92578125 279.026367188 205.25 279.026367188 c 0
 212.575195312 279.026367188 218.514648438 273.087890625 218.514648438 265.762695312 c 0
273.514648438 331.762695312 m 0
 273.514648438 324.4375 267.575195312 318.5 260.25 318.5 c 0
 252.92578125 318.5 246.986328125 324.4375 246.986328125 331.762695312 c 0
 246.986328125 339.087890625 252.92578125 345.026367188 260.25 345.026367188 c 0
 267.575195312 345.026367188 273.514648438 339.087890625 273.514648438 331.762695312 c 0
72.5146484375 480.762695312 m 0
 72.5146484375 473.4375 66.5751953125 467.5 59.25 467.5 c 0
 51.92578125 467.5 45.986328125 473.4375 45.986328125 480.762695312 c 0
 45.986328125 488.087890625 51.92578125 494.026367188 59.25 494.026367188 c 0
 66.5751953125 494.026367188 72.5146484375 488.087890625 72.5146484375 480.762695312 c 0
147.514648438 527.762695312 m 0
 147.514648438 520.4375 141.575195312 514.5 134.25 514.5 c 0
 126.92578125 514.5 120.986328125 520.4375 120.986328125 527.762695312 c 0
 120.986328125 535.087890625 126.92578125 541.026367188 134.25 541.026367188 c 0
 141.575195312 541.026367188 147.514648438 535.087890625 147.514648438 527.762695312 c 0
400.141601562 528.016601562 m 0
 400.141601562 520.69140625 394.202148438 514.752929688 386.876953125 514.752929688 c 0
 379.552734375 514.752929688 373.61328125 520.69140625 373.61328125 528.016601562 c 0
 373.61328125 535.341796875 379.552734375 541.280273438 386.876953125 541.280273438 c 0
 394.202148438 541.280273438 400.141601562 535.341796875 400.141601562 528.016601562 c 0
469.514648438 480.762695312 m 0
 469.514648438 473.4375 463.575195312 467.5 456.25 467.5 c 0
 448.92578125 467.5 442.986328125 473.4375 442.986328125 480.762695312 c 0
 442.986328125 488.087890625 448.92578125 494.026367188 456.25 494.026367188 c 0
 463.575195312 494.026367188 469.514648438 488.087890625 469.514648438 480.762695312 c 0
EndSplineSet
Validated: 1
Layer: 2
EndChar

StartChar: y
Encoding: 89 121 87
Width: 500
Flags: HMW
HStem: -210 79<109.5 121.5 94.5 160.5> 500 20G<10 103 103 103 402 490 490 490>
LayerCount: 3
Back
SplineSet
106 -132 m 1
 152.963867188 -112.497070312 l 1
 191.5 -51.4365234375 l 1
 212.116210938 5.037109375 l 1
 19 498 l 1
 100 528 l 1
 254.056640625 115.017578125 l 1
 405 528 l 1
 482 498 l 5
 275.240234375 -57.53125 l 1
 216.19140625 -167.111328125 l 1
 117.978515625 -210.002929688 l 1
 60.9462890625 -200.080078125 l 1
 77 -127 l 1
 106 -132 l 1
EndSplineSet
Fore
SplineSet
32.318359375 498.092773438 m 4
 32.318359375 490.767578125 26.37890625 484.829101562 19.0537109375 484.829101562 c 4
 11.7294921875 484.829101562 5.7900390625 490.767578125 5.7900390625 498.092773438 c 4
 5.7900390625 505.41796875 11.7294921875 511.356445312 19.0537109375 511.356445312 c 4
 26.37890625 511.356445312 32.318359375 505.41796875 32.318359375 498.092773438 c 4
113.318359375 528.092773438 m 4
 113.318359375 520.767578125 107.37890625 514.829101562 100.053710938 514.829101562 c 4
 92.7294921875 514.829101562 86.7900390625 520.767578125 86.7900390625 528.092773438 c 4
 86.7900390625 535.41796875 92.7294921875 541.356445312 100.053710938 541.356445312 c 4
 107.37890625 541.356445312 113.318359375 535.41796875 113.318359375 528.092773438 c 4
418.318359375 528.092773438 m 4
 418.318359375 520.767578125 412.37890625 514.829101562 405.053710938 514.829101562 c 4
 397.729492188 514.829101562 391.790039062 520.767578125 391.790039062 528.092773438 c 4
 391.790039062 535.41796875 397.729492188 541.356445312 405.053710938 541.356445312 c 4
 412.37890625 541.356445312 418.318359375 535.41796875 418.318359375 528.092773438 c 4
495.318359375 498.092773438 m 4
 495.318359375 490.767578125 489.37890625 484.829101562 482.053710938 484.829101562 c 4
 474.729492188 484.829101562 468.790039062 490.767578125 468.790039062 498.092773438 c 4
 468.790039062 505.41796875 474.729492188 511.356445312 482.053710938 511.356445312 c 4
 489.37890625 511.356445312 495.318359375 505.41796875 495.318359375 498.092773438 c 4
267.375 115.111328125 m 4
 267.375 107.786132812 261.436523438 101.84765625 254.111328125 101.84765625 c 4
 246.786132812 101.84765625 240.846679688 107.786132812 240.846679688 115.111328125 c 4
 240.846679688 122.436523438 246.786132812 128.374023438 254.111328125 128.374023438 c 4
 261.436523438 128.374023438 267.375 122.436523438 267.375 115.111328125 c 4
288.557617188 -57.4375 m 4
 288.557617188 -64.763671875 282.619140625 -70.701171875 275.293945312 -70.701171875 c 4
 267.96875 -70.701171875 262.030273438 -64.763671875 262.030273438 -57.4375 c 4
 262.030273438 -50.1123046875 267.96875 -44.1748046875 275.293945312 -44.1748046875 c 4
 282.619140625 -44.1748046875 288.557617188 -50.1123046875 288.557617188 -57.4375 c 4
225.43359375 5.1298828125 m 4
 225.43359375 -2.1953125 219.495117188 -8.1337890625 212.169921875 -8.1337890625 c 4
 204.844726562 -8.1337890625 198.90625 -2.1953125 198.90625 5.1298828125 c 4
 198.90625 12.455078125 204.844726562 18.3935546875 212.169921875 18.3935546875 c 4
 219.495117188 18.3935546875 225.43359375 12.455078125 225.43359375 5.1298828125 c 4
204.818359375 -51.34375 m 4
 204.818359375 -58.6689453125 198.87890625 -64.607421875 191.553710938 -64.607421875 c 4
 184.229492188 -64.607421875 178.290039062 -58.6689453125 178.290039062 -51.34375 c 4
 178.290039062 -44.0185546875 184.229492188 -38.080078125 191.553710938 -38.080078125 c 4
 198.87890625 -38.080078125 204.818359375 -44.0185546875 204.818359375 -51.34375 c 4
166.282226562 -112.404296875 m 4
 166.282226562 -119.729492188 160.342773438 -125.66796875 153.017578125 -125.66796875 c 4
 145.693359375 -125.66796875 139.75390625 -119.729492188 139.75390625 -112.404296875 c 4
 139.75390625 -105.079101562 145.693359375 -99.140625 153.017578125 -99.140625 c 4
 160.342773438 -99.140625 166.282226562 -105.079101562 166.282226562 -112.404296875 c 4
229.508789062 -167.017578125 m 4
 229.508789062 -174.342773438 223.5703125 -180.28125 216.245117188 -180.28125 c 4
 208.919921875 -180.28125 202.981445312 -174.342773438 202.981445312 -167.017578125 c 4
 202.981445312 -159.692382812 208.919921875 -153.754882812 216.245117188 -153.754882812 c 4
 223.5703125 -153.754882812 229.508789062 -159.692382812 229.508789062 -167.017578125 c 4
131.295898438 -209.909179688 m 4
 131.295898438 -217.234375 125.357421875 -223.172851562 118.032226562 -223.172851562 c 4
 110.70703125 -223.172851562 104.767578125 -217.234375 104.767578125 -209.909179688 c 4
 104.767578125 -202.583984375 110.70703125 -196.646484375 118.032226562 -196.646484375 c 4
 125.357421875 -196.646484375 131.295898438 -202.583984375 131.295898438 -209.909179688 c 4
119.318359375 -131.907226562 m 4
 119.318359375 -139.232421875 113.37890625 -145.170898438 106.053710938 -145.170898438 c 4
 98.7294921875 -145.170898438 92.7900390625 -139.232421875 92.7900390625 -131.907226562 c 4
 92.7900390625 -124.58203125 98.7294921875 -118.643554688 106.053710938 -118.643554688 c 4
 113.37890625 -118.643554688 119.318359375 -124.58203125 119.318359375 -131.907226562 c 4
90.318359375 -126.90625 m 4
 90.318359375 -134.232421875 84.37890625 -140.169921875 77.0537109375 -140.169921875 c 4
 69.7294921875 -140.169921875 63.7900390625 -134.232421875 63.7900390625 -126.90625 c 4
 63.7900390625 -119.581054688 69.7294921875 -113.643554688 77.0537109375 -113.643554688 c 4
 84.37890625 -113.643554688 90.318359375 -119.581054688 90.318359375 -126.90625 c 4
74.263671875 -199.986328125 m 4
 74.263671875 -207.311523438 68.3251953125 -213.25 61 -213.25 c 4
 53.6748046875 -213.25 47.736328125 -207.311523438 47.736328125 -199.986328125 c 4
 47.736328125 -192.661132812 53.6748046875 -186.723632812 61 -186.723632812 c 4
 68.3251953125 -186.723632812 74.263671875 -192.661132812 74.263671875 -199.986328125 c 4
EndSplineSet
Validated: 1
Layer: 2
EndChar

StartChar: z
Encoding: 90 122 88
Width: 499
Flags: HMW
HStem: 0 75<141 459 40 40> 445 75<59 347 59 453 59 453>
LayerCount: 3
Back
SplineSet
459 0 m 1
 40 0 l 1
 40 75 l 1
 347 445 l 1
 59 445 l 1
 59 520 l 1
 453 520 l 1
 453 445 l 1
 141 75 l 1
 459 75 l 1
 459 0 l 1
EndSplineSet
Fore
SplineSet
72.2646484375 520.013671875 m 0
 72.2646484375 512.688476562 66.3251953125 506.75 59 506.75 c 0
 51.67578125 506.75 45.736328125 512.688476562 45.736328125 520.013671875 c 0
 45.736328125 527.338867188 51.67578125 533.27734375 59 533.27734375 c 0
 66.3251953125 533.27734375 72.2646484375 527.338867188 72.2646484375 520.013671875 c 0
72.2646484375 445.013671875 m 0
 72.2646484375 437.688476562 66.3251953125 431.75 59 431.75 c 0
 51.67578125 431.75 45.736328125 437.688476562 45.736328125 445.013671875 c 0
 45.736328125 452.338867188 51.67578125 458.27734375 59 458.27734375 c 0
 66.3251953125 458.27734375 72.2646484375 452.338867188 72.2646484375 445.013671875 c 0
360.264648438 445.013671875 m 0
 360.264648438 437.688476562 354.325195312 431.75 347 431.75 c 0
 339.67578125 431.75 333.736328125 437.688476562 333.736328125 445.013671875 c 0
 333.736328125 452.338867188 339.67578125 458.27734375 347 458.27734375 c 0
 354.325195312 458.27734375 360.264648438 452.338867188 360.264648438 445.013671875 c 0
466.264648438 520.013671875 m 0
 466.264648438 512.688476562 460.325195312 506.75 453 506.75 c 0
 445.67578125 506.75 439.736328125 512.688476562 439.736328125 520.013671875 c 0
 439.736328125 527.338867188 445.67578125 533.27734375 453 533.27734375 c 0
 460.325195312 533.27734375 466.264648438 527.338867188 466.264648438 520.013671875 c 0
466.264648438 445.013671875 m 0
 466.264648438 437.688476562 460.325195312 431.75 453 431.75 c 0
 445.67578125 431.75 439.736328125 437.688476562 439.736328125 445.013671875 c 0
 439.736328125 452.338867188 445.67578125 458.27734375 453 458.27734375 c 0
 460.325195312 458.27734375 466.264648438 452.338867188 466.264648438 445.013671875 c 0
154.264648438 75.013671875 m 0
 154.264648438 67.6884765625 148.325195312 61.75 141 61.75 c 0
 133.67578125 61.75 127.736328125 67.6884765625 127.736328125 75.013671875 c 0
 127.736328125 82.3388671875 133.67578125 88.27734375 141 88.27734375 c 0
 148.325195312 88.27734375 154.264648438 82.3388671875 154.264648438 75.013671875 c 0
53.2646484375 75.013671875 m 0
 53.2646484375 67.6884765625 47.3251953125 61.75 40 61.75 c 0
 32.67578125 61.75 26.736328125 67.6884765625 26.736328125 75.013671875 c 0
 26.736328125 82.3388671875 32.67578125 88.27734375 40 88.27734375 c 0
 47.3251953125 88.27734375 53.2646484375 82.3388671875 53.2646484375 75.013671875 c 0
53.2646484375 0.013671875 m 0
 53.2646484375 -7.3115234375 47.3251953125 -13.25 40 -13.25 c 0
 32.67578125 -13.25 26.736328125 -7.3115234375 26.736328125 0.013671875 c 0
 26.736328125 7.3388671875 32.67578125 13.27734375 40 13.27734375 c 0
 47.3251953125 13.27734375 53.2646484375 7.3388671875 53.2646484375 0.013671875 c 0
472.264648438 0.013671875 m 0
 472.264648438 -7.3115234375 466.325195312 -13.25 459 -13.25 c 0
 451.67578125 -13.25 445.736328125 -7.3115234375 445.736328125 0.013671875 c 0
 445.736328125 7.3388671875 451.67578125 13.27734375 459 13.27734375 c 0
 466.325195312 13.27734375 472.264648438 7.3388671875 472.264648438 0.013671875 c 0
472.264648438 75.013671875 m 0
 472.264648438 67.6884765625 466.325195312 61.75 459 61.75 c 0
 451.67578125 61.75 445.736328125 67.6884765625 445.736328125 75.013671875 c 0
 445.736328125 82.3388671875 451.67578125 88.27734375 459 88.27734375 c 0
 466.325195312 88.27734375 472.264648438 82.3388671875 472.264648438 75.013671875 c 0
EndSplineSet
Validated: 1
Layer: 2
EndChar

StartChar: A
Encoding: 33 65 89
Width: 675
Flags: HMW
HStem: 0 21G<10 107 10 10 562 665 562 562> 175 85<205 466 205 497 173 466> 700 20G<290 387 387 387>
LayerCount: 3
Back
SplineSet
167 159 m 1
 104 -8 l 1
 19 24 l 1
 290 720 l 1
 387 720 l 1
 656 23.8330078125 l 1
 565 -8 l 1
 504 156 l 1
 497 175 l 1
 173 175 l 1
 167 159 l 1
466 260 m 1
 338 611 l 1
 205 260 l 1
 466 260 l 1
91.828125 -8.1826171875 m 0
 91.828125 -0.83203125 97.787109375 5.1259765625 105.137695312 5.1259765625 c 0
 112.487304688 5.1259765625 118.446289062 -0.83203125 118.446289062 -8.1826171875 c 0
 118.446289062 -15.533203125 112.487304688 -21.4912109375 105.137695312 -21.4912109375 c 0
 97.787109375 -21.4912109375 91.828125 -15.533203125 91.828125 -8.1826171875 c 0
6.5 23.94140625 m 0
 6.5 31.291015625 12.458984375 37.25 19.80859375 37.25 c 0
 27.1591796875 37.25 33.1171875 31.291015625 33.1171875 23.94140625 c 0
 33.1171875 16.5908203125 27.1591796875 10.6328125 19.80859375 10.6328125 c 0
 12.458984375 10.6328125 6.5 16.5908203125 6.5 23.94140625 c 0
160.536132812 174.94140625 m 0
 160.536132812 182.291015625 166.494140625 188.25 173.844726562 188.25 c 0
 181.1953125 188.25 187.153320312 182.291015625 187.153320312 174.94140625 c 0
 187.153320312 167.590820312 181.1953125 161.6328125 173.844726562 161.6328125 c 0
 166.494140625 161.6328125 160.536132812 167.590820312 160.536132812 174.94140625 c 0
192.5 259.94140625 m 0
 192.5 267.291015625 198.458007812 273.25 205.80859375 273.25 c 0
 213.159179688 273.25 219.1171875 267.291015625 219.1171875 259.94140625 c 0
 219.1171875 252.590820312 213.159179688 246.6328125 205.80859375 246.6328125 c 0
 198.458007812 246.6328125 192.5 252.590820312 192.5 259.94140625 c 0
277.5 719.94140625 m 0
 277.5 727.291015625 283.458984375 733.25 290.80859375 733.25 c 0
 298.159179688 733.25 304.1171875 727.291015625 304.1171875 719.94140625 c 0
 304.1171875 712.590820312 298.159179688 706.6328125 290.80859375 706.6328125 c 0
 283.458984375 706.6328125 277.5 712.590820312 277.5 719.94140625 c 0
579.1171875 -8.05859375 m 0
 579.1171875 -15.4091796875 573.159179688 -21.3671875 565.80859375 -21.3671875 c 0
 558.458984375 -21.3671875 552.5 -15.4091796875 552.5 -8.05859375 c 0
 552.5 -0.708984375 558.458984375 5.25 565.80859375 5.25 c 0
 573.159179688 5.25 579.1171875 -0.708984375 579.1171875 -8.05859375 c 0
670.1171875 23.7744140625 m 0
 670.1171875 16.423828125 664.159179688 10.4658203125 656.80859375 10.4658203125 c 0
 649.458007812 10.4658203125 643.5 16.423828125 643.5 23.7744140625 c 0
 643.5 31.1240234375 649.458007812 37.0830078125 656.80859375 37.0830078125 c 0
 664.159179688 37.0830078125 670.1171875 31.1240234375 670.1171875 23.7744140625 c 0
510.837890625 175.700195312 m 0
 510.837890625 168.349609375 504.87890625 162.391601562 497.529296875 162.391601562 c 0
 490.178710938 162.391601562 484.220703125 168.349609375 484.220703125 175.700195312 c 0
 484.220703125 183.05078125 490.178710938 189.008789062 497.529296875 189.008789062 c 0
 504.87890625 189.008789062 510.837890625 183.05078125 510.837890625 175.700195312 c 0
479.801757812 259.94140625 m 0
 479.801757812 252.590820312 473.842773438 246.6328125 466.493164062 246.6328125 c 0
 459.142578125 246.6328125 453.184570312 252.590820312 453.184570312 259.94140625 c 0
 453.184570312 267.291015625 459.142578125 273.25 466.493164062 273.25 c 0
 473.842773438 273.25 479.801757812 267.291015625 479.801757812 259.94140625 c 0
401.1171875 719.94140625 m 0
 401.1171875 712.590820312 395.159179688 706.6328125 387.80859375 706.6328125 c 0
 380.458007812 706.6328125 374.5 712.590820312 374.5 719.94140625 c 0
 374.5 727.291015625 380.458007812 733.25 387.80859375 733.25 c 0
 395.159179688 733.25 401.1171875 727.291015625 401.1171875 719.94140625 c 0
352.1171875 610.94140625 m 0
 352.1171875 603.590820312 346.159179688 597.6328125 338.80859375 597.6328125 c 0
 331.458984375 597.6328125 325.5 603.590820312 325.5 610.94140625 c 0
 325.5 618.291015625 331.458984375 624.25 338.80859375 624.25 c 0
 346.159179688 624.25 352.1171875 618.291015625 352.1171875 610.94140625 c 0
EndSplineSet
Fore
SplineSet
91.828125 -8.1826171875 m 0
 91.828125 -0.83203125 97.787109375 5.1259765625 105.137695312 5.1259765625 c 0
 112.487304688 5.1259765625 118.446289062 -0.83203125 118.446289062 -8.1826171875 c 0
 118.446289062 -15.533203125 112.487304688 -21.4912109375 105.137695312 -21.4912109375 c 0
 97.787109375 -21.4912109375 91.828125 -15.533203125 91.828125 -8.1826171875 c 0
6.5 23.94140625 m 0
 6.5 31.291015625 12.458984375 37.25 19.80859375 37.25 c 0
 27.1591796875 37.25 33.1171875 31.291015625 33.1171875 23.94140625 c 0
 33.1171875 16.5908203125 27.1591796875 10.6328125 19.80859375 10.6328125 c 0
 12.458984375 10.6328125 6.5 16.5908203125 6.5 23.94140625 c 0
160.536132812 174.94140625 m 0
 160.536132812 182.291015625 166.494140625 188.25 173.844726562 188.25 c 0
 181.1953125 188.25 187.153320312 182.291015625 187.153320312 174.94140625 c 0
 187.153320312 167.590820312 181.1953125 161.6328125 173.844726562 161.6328125 c 0
 166.494140625 161.6328125 160.536132812 167.590820312 160.536132812 174.94140625 c 0
192.5 259.94140625 m 0
 192.5 267.291015625 198.458007812 273.25 205.80859375 273.25 c 0
 213.159179688 273.25 219.1171875 267.291015625 219.1171875 259.94140625 c 0
 219.1171875 252.590820312 213.159179688 246.6328125 205.80859375 246.6328125 c 0
 198.458007812 246.6328125 192.5 252.590820312 192.5 259.94140625 c 0
277.5 719.94140625 m 0
 277.5 727.291015625 283.458984375 733.25 290.80859375 733.25 c 0
 298.159179688 733.25 304.1171875 727.291015625 304.1171875 719.94140625 c 0
 304.1171875 712.590820312 298.159179688 706.6328125 290.80859375 706.6328125 c 0
 283.458984375 706.6328125 277.5 712.590820312 277.5 719.94140625 c 0
579.1171875 -8.05859375 m 0
 579.1171875 -15.4091796875 573.159179688 -21.3671875 565.80859375 -21.3671875 c 0
 558.458984375 -21.3671875 552.5 -15.4091796875 552.5 -8.05859375 c 0
 552.5 -0.708984375 558.458984375 5.25 565.80859375 5.25 c 0
 573.159179688 5.25 579.1171875 -0.708984375 579.1171875 -8.05859375 c 0
670.1171875 23.7744140625 m 0
 670.1171875 16.423828125 664.159179688 10.4658203125 656.80859375 10.4658203125 c 0
 649.458007812 10.4658203125 643.5 16.423828125 643.5 23.7744140625 c 0
 643.5 31.1240234375 649.458007812 37.0830078125 656.80859375 37.0830078125 c 0
 664.159179688 37.0830078125 670.1171875 31.1240234375 670.1171875 23.7744140625 c 0
510.837890625 175.700195312 m 0
 510.837890625 168.349609375 504.87890625 162.391601562 497.529296875 162.391601562 c 0
 490.178710938 162.391601562 484.220703125 168.349609375 484.220703125 175.700195312 c 0
 484.220703125 183.05078125 490.178710938 189.008789062 497.529296875 189.008789062 c 0
 504.87890625 189.008789062 510.837890625 183.05078125 510.837890625 175.700195312 c 0
479.801757812 259.94140625 m 0
 479.801757812 252.590820312 473.842773438 246.6328125 466.493164062 246.6328125 c 0
 459.142578125 246.6328125 453.184570312 252.590820312 453.184570312 259.94140625 c 0
 453.184570312 267.291015625 459.142578125 273.25 466.493164062 273.25 c 0
 473.842773438 273.25 479.801757812 267.291015625 479.801757812 259.94140625 c 0
401.1171875 719.94140625 m 0
 401.1171875 712.590820312 395.159179688 706.6328125 387.80859375 706.6328125 c 0
 380.458007812 706.6328125 374.5 712.590820312 374.5 719.94140625 c 0
 374.5 727.291015625 380.458007812 733.25 387.80859375 733.25 c 0
 395.159179688 733.25 401.1171875 727.291015625 401.1171875 719.94140625 c 0
352.1171875 610.94140625 m 0
 352.1171875 603.590820312 346.159179688 597.6328125 338.80859375 597.6328125 c 0
 331.458984375 597.6328125 325.5 603.590820312 325.5 610.94140625 c 0
 325.5 618.291015625 331.458984375 624.25 338.80859375 624.25 c 0
 346.159179688 624.25 352.1171875 618.291015625 352.1171875 610.94140625 c 0
EndSplineSet
Validated: 1
Layer: 2
EndChar

